<?xml version="1.0" encoding="utf-8"?>
<svg xmlns="http://www.w3.org/2000/svg" xmlns:xlink="http://www.w3.org/1999/xlink" width="600" height="400" viewBox="0 0 2400 1600">
<defs>
  <clipPath id="clip8000">
    <rect x="0" y="0" width="2400" height="1600"/>
  </clipPath>
</defs>
<polygon clip-path="url(#clip8000)" points="
0,1600 2400,1600 2400,0 0,0 
  " fill="#ffffff" fill-rule="evenodd" fill-opacity="1"/>
<defs>
  <clipPath id="clip8001">
    <rect x="480" y="0" width="1681" height="1600"/>
  </clipPath>
</defs>
<polygon clip-path="url(#clip8000)" points="
229.135,1425.62 2352.76,1425.62 2352.76,121.675 229.135,121.675 
  " fill="#ffffff" fill-rule="evenodd" fill-opacity="1"/>
<defs>
  <clipPath id="clip8002">
    <rect x="229" y="121" width="2125" height="1305"/>
  </clipPath>
</defs>
<polyline clip-path="url(#clip8002)" style="stroke:#000000; stroke-width:2; stroke-opacity:0.1; fill:none" points="
  229.135,1425.62 229.135,121.675 
  "/>
<polyline clip-path="url(#clip8002)" style="stroke:#000000; stroke-width:2; stroke-opacity:0.1; fill:none" points="
  760.04,1425.62 760.04,121.675 
  "/>
<polyline clip-path="url(#clip8002)" style="stroke:#000000; stroke-width:2; stroke-opacity:0.1; fill:none" points="
  1290.95,1425.62 1290.95,121.675 
  "/>
<polyline clip-path="url(#clip8002)" style="stroke:#000000; stroke-width:2; stroke-opacity:0.1; fill:none" points="
  1821.85,1425.62 1821.85,121.675 
  "/>
<polyline clip-path="url(#clip8002)" style="stroke:#000000; stroke-width:2; stroke-opacity:0.1; fill:none" points="
  2352.76,1425.62 2352.76,121.675 
  "/>
<polyline clip-path="url(#clip8002)" style="stroke:#000000; stroke-width:2; stroke-opacity:0.1; fill:none" points="
  229.135,1386.17 2352.76,1386.17 
  "/>
<polyline clip-path="url(#clip8002)" style="stroke:#000000; stroke-width:2; stroke-opacity:0.1; fill:none" points="
  229.135,1079.27 2352.76,1079.27 
  "/>
<polyline clip-path="url(#clip8002)" style="stroke:#000000; stroke-width:2; stroke-opacity:0.1; fill:none" points="
  229.135,772.376 2352.76,772.376 
  "/>
<polyline clip-path="url(#clip8002)" style="stroke:#000000; stroke-width:2; stroke-opacity:0.1; fill:none" points="
  229.135,465.478 2352.76,465.478 
  "/>
<polyline clip-path="url(#clip8002)" style="stroke:#000000; stroke-width:2; stroke-opacity:0.1; fill:none" points="
  229.135,158.579 2352.76,158.579 
  "/>
<polyline clip-path="url(#clip8000)" style="stroke:#000000; stroke-width:4; stroke-opacity:1; fill:none" points="
  229.135,1425.62 2352.76,1425.62 
  "/>
<polyline clip-path="url(#clip8000)" style="stroke:#000000; stroke-width:4; stroke-opacity:1; fill:none" points="
  229.135,1425.62 229.135,121.675 
  "/>
<polyline clip-path="url(#clip8000)" style="stroke:#000000; stroke-width:4; stroke-opacity:1; fill:none" points="
  229.135,1425.62 229.135,1406.06 
  "/>
<polyline clip-path="url(#clip8000)" style="stroke:#000000; stroke-width:4; stroke-opacity:1; fill:none" points="
  760.04,1425.62 760.04,1406.06 
  "/>
<polyline clip-path="url(#clip8000)" style="stroke:#000000; stroke-width:4; stroke-opacity:1; fill:none" points="
  1290.95,1425.62 1290.95,1406.06 
  "/>
<polyline clip-path="url(#clip8000)" style="stroke:#000000; stroke-width:4; stroke-opacity:1; fill:none" points="
  1821.85,1425.62 1821.85,1406.06 
  "/>
<polyline clip-path="url(#clip8000)" style="stroke:#000000; stroke-width:4; stroke-opacity:1; fill:none" points="
  2352.76,1425.62 2352.76,1406.06 
  "/>
<polyline clip-path="url(#clip8000)" style="stroke:#000000; stroke-width:4; stroke-opacity:1; fill:none" points="
  229.135,1386.17 260.99,1386.17 
  "/>
<polyline clip-path="url(#clip8000)" style="stroke:#000000; stroke-width:4; stroke-opacity:1; fill:none" points="
  229.135,1079.27 260.99,1079.27 
  "/>
<polyline clip-path="url(#clip8000)" style="stroke:#000000; stroke-width:4; stroke-opacity:1; fill:none" points="
  229.135,772.376 260.99,772.376 
  "/>
<polyline clip-path="url(#clip8000)" style="stroke:#000000; stroke-width:4; stroke-opacity:1; fill:none" points="
  229.135,465.478 260.99,465.478 
  "/>
<polyline clip-path="url(#clip8000)" style="stroke:#000000; stroke-width:4; stroke-opacity:1; fill:none" points="
  229.135,158.579 260.99,158.579 
  "/>
<g clip-path="url(#clip8000)">
<text style="fill:#000000; fill-opacity:1; font-family:Arial,Helvetica Neue,Helvetica,sans-serif; font-size:48px; text-anchor:middle;" transform="rotate(0, 229.135, 1479.62)" x="229.135" y="1479.62">0</text>
</g>
<g clip-path="url(#clip8000)">
<text style="fill:#000000; fill-opacity:1; font-family:Arial,Helvetica Neue,Helvetica,sans-serif; font-size:48px; text-anchor:middle;" transform="rotate(0, 760.04, 1479.62)" x="760.04" y="1479.62">50</text>
</g>
<g clip-path="url(#clip8000)">
<text style="fill:#000000; fill-opacity:1; font-family:Arial,Helvetica Neue,Helvetica,sans-serif; font-size:48px; text-anchor:middle;" transform="rotate(0, 1290.95, 1479.62)" x="1290.95" y="1479.62">100</text>
</g>
<g clip-path="url(#clip8000)">
<text style="fill:#000000; fill-opacity:1; font-family:Arial,Helvetica Neue,Helvetica,sans-serif; font-size:48px; text-anchor:middle;" transform="rotate(0, 1821.85, 1479.62)" x="1821.85" y="1479.62">150</text>
</g>
<g clip-path="url(#clip8000)">
<text style="fill:#000000; fill-opacity:1; font-family:Arial,Helvetica Neue,Helvetica,sans-serif; font-size:48px; text-anchor:middle;" transform="rotate(0, 2352.76, 1479.62)" x="2352.76" y="1479.62">200</text>
</g>
<g clip-path="url(#clip8000)">
<text style="fill:#000000; fill-opacity:1; font-family:Arial,Helvetica Neue,Helvetica,sans-serif; font-size:48px; text-anchor:end;" transform="rotate(0, 205.135, 1403.67)" x="205.135" y="1403.67">0</text>
</g>
<g clip-path="url(#clip8000)">
<text style="fill:#000000; fill-opacity:1; font-family:Arial,Helvetica Neue,Helvetica,sans-serif; font-size:48px; text-anchor:end;" transform="rotate(0, 205.135, 1096.77)" x="205.135" y="1096.77">25</text>
</g>
<g clip-path="url(#clip8000)">
<text style="fill:#000000; fill-opacity:1; font-family:Arial,Helvetica Neue,Helvetica,sans-serif; font-size:48px; text-anchor:end;" transform="rotate(0, 205.135, 789.876)" x="205.135" y="789.876">50</text>
</g>
<g clip-path="url(#clip8000)">
<text style="fill:#000000; fill-opacity:1; font-family:Arial,Helvetica Neue,Helvetica,sans-serif; font-size:48px; text-anchor:end;" transform="rotate(0, 205.135, 482.978)" x="205.135" y="482.978">75</text>
</g>
<g clip-path="url(#clip8000)">
<text style="fill:#000000; fill-opacity:1; font-family:Arial,Helvetica Neue,Helvetica,sans-serif; font-size:48px; text-anchor:end;" transform="rotate(0, 205.135, 176.079)" x="205.135" y="176.079">100</text>
</g>
<g clip-path="url(#clip8000)">
<text style="fill:#000000; fill-opacity:1; font-family:Arial,Helvetica Neue,Helvetica,sans-serif; font-size:84px; text-anchor:middle;" transform="rotate(0, 1290.95, 73.2)" x="1290.95" y="73.2">wholes</text>
</g>
<g clip-path="url(#clip8000)">
<text style="fill:#000000; fill-opacity:1; font-family:Arial,Helvetica Neue,Helvetica,sans-serif; font-size:66px; text-anchor:middle;" transform="rotate(0, 1290.95, 1559.48)" x="1290.95" y="1559.48">day</text>
</g>
<g clip-path="url(#clip8000)">
<text style="fill:#000000; fill-opacity:1; font-family:Arial,Helvetica Neue,Helvetica,sans-serif; font-size:66px; text-anchor:middle;" transform="rotate(-90, 89.2861, 773.647)" x="89.2861" y="773.647">n</text>
</g>
<polyline clip-path="url(#clip8002)" style="stroke:#009af9; stroke-width:4; stroke-opacity:0.5; fill:none" points="
  239.753,158.579 250.371,170.855 260.99,183.131 271.608,195.407 282.226,207.683 292.844,219.959 303.462,232.235 314.08,244.511 324.698,256.787 335.316,269.063 
  345.934,281.339 356.552,281.339 367.171,293.614 377.789,305.89 388.407,318.166 399.025,330.442 409.643,342.718 420.261,354.994 430.879,367.27 441.497,379.546 
  452.115,391.822 462.734,404.098 473.352,416.374 483.97,428.65 494.588,440.926 505.206,440.926 515.824,453.202 526.442,465.478 537.06,477.754 547.678,490.029 
  558.296,502.305 568.915,502.305 579.533,514.581 590.151,514.581 600.769,526.857 611.387,539.133 622.005,539.133 632.623,539.133 643.241,539.133 653.859,551.409 
  664.477,563.685 675.096,575.961 685.714,575.961 696.332,588.237 706.95,600.513 717.568,612.789 728.186,625.065 738.804,637.341 749.422,637.341 760.04,649.617 
  770.659,661.893 781.277,661.893 791.895,661.893 802.513,674.168 813.131,686.444 823.749,686.444 834.367,686.444 844.985,686.444 855.603,698.72 866.221,710.996 
  876.84,723.272 887.458,735.548 898.076,747.824 908.694,747.824 919.312,760.1 929.93,772.376 940.548,772.376 951.166,784.652 961.784,784.652 972.402,784.652 
  983.021,784.652 993.639,796.928 1004.26,809.204 1014.87,809.204 1025.49,809.204 1036.11,809.204 1046.73,809.204 1057.35,821.48 1067.97,833.756 1078.58,846.032 
  1089.2,858.308 1099.82,870.583 1110.44,882.859 1121.06,895.135 1131.67,907.411 1142.29,919.687 1152.91,931.963 1163.53,944.239 1174.15,956.515 1184.76,968.791 
  1195.38,981.067 1206,981.067 1216.62,993.343 1227.24,993.343 1237.86,1005.62 1248.47,1005.62 1259.09,1005.62 1269.71,1005.62 1280.33,1005.62 1290.95,1005.62 
  1301.56,1005.62 1312.18,1017.89 1322.8,1017.89 1333.42,1030.17 1344.04,1030.17 1354.65,1030.17 1365.27,1030.17 1375.89,1042.45 1386.51,1042.45 1397.13,1042.45 
  1407.74,1054.72 1418.36,1067 1428.98,1067 1439.6,1067 1450.22,1067 1460.84,1079.27 1471.45,1091.55 1482.07,1091.55 1492.69,1103.83 1503.31,1103.83 
  1513.93,1116.1 1524.54,1128.38 1535.16,1140.65 1545.78,1140.65 1556.4,1140.65 1567.02,1152.93 1577.63,1152.93 1588.25,1165.21 1598.87,1165.21 1609.49,1177.48 
  1620.11,1177.48 1630.72,1177.48 1641.34,1177.48 1651.96,1189.76 1662.58,1202.03 1673.2,1202.03 1683.82,1214.31 1694.43,1214.31 1705.05,1214.31 1715.67,1226.59 
  1726.29,1226.59 1736.91,1226.59 1747.52,1226.59 1758.14,1226.59 1768.76,1226.59 1779.38,1238.86 1790,1238.86 1800.61,1238.86 1811.23,1251.14 1821.85,1251.14 
  1832.47,1251.14 1843.09,1263.41 1853.71,1263.41 1864.32,1263.41 1874.94,1263.41 1885.56,1263.41 1896.18,1275.69 1906.8,1275.69 1917.41,1275.69 1928.03,1275.69 
  1938.65,1275.69 1949.27,1275.69 1959.89,1275.69 1970.5,1287.97 1981.12,1287.97 1991.74,1287.97 2002.36,1300.24 2012.98,1312.52 2023.59,1312.52 2034.21,1324.79 
  2044.83,1324.79 2055.45,1324.79 2066.07,1324.79 2076.69,1337.07 2087.3,1349.34 2097.92,1349.34 2108.54,1349.34 2119.16,1349.34 2129.78,1349.34 2140.39,1349.34 
  2151.01,1349.34 2161.63,1349.34 2172.25,1361.62 2182.87,1361.62 2193.48,1361.62 2204.1,1361.62 2214.72,1361.62 2225.34,1361.62 2235.96,1361.62 2246.57,1361.62 
  2257.19,1373.9 2267.81,1386.17 2278.43,1386.17 2289.05,1386.17 2299.67,1386.17 2310.28,1386.17 2320.9,1386.17 2331.52,1386.17 2342.14,1386.17 2352.76,1386.17 
  
  "/>
<polyline clip-path="url(#clip8002)" style="stroke:#e26f46; stroke-width:4; stroke-opacity:0.5; fill:none" points="
  239.753,158.579 250.371,170.855 260.99,183.131 271.608,195.407 282.226,207.683 292.844,219.959 303.462,232.235 314.08,244.511 324.698,256.787 335.316,269.063 
  345.934,281.339 356.552,293.614 367.171,305.89 377.789,318.166 388.407,318.166 399.025,330.442 409.643,342.718 420.261,354.994 430.879,367.27 441.497,379.546 
  452.115,391.822 462.734,404.098 473.352,416.374 483.97,428.65 494.588,440.926 505.206,453.202 515.824,465.478 526.442,477.754 537.06,490.029 547.678,502.305 
  558.296,514.581 568.915,514.581 579.533,514.581 590.151,526.857 600.769,539.133 611.387,551.409 622.005,563.685 632.623,575.961 643.241,588.237 653.859,588.237 
  664.477,600.513 675.096,600.513 685.714,612.789 696.332,625.065 706.95,625.065 717.568,625.065 728.186,637.341 738.804,637.341 749.422,637.341 760.04,637.341 
  770.659,649.617 781.277,649.617 791.895,661.893 802.513,674.168 813.131,674.168 823.749,686.444 834.367,686.444 844.985,698.72 855.603,710.996 866.221,710.996 
  876.84,723.272 887.458,723.272 898.076,735.548 908.694,747.824 919.312,747.824 929.93,760.1 940.548,772.376 951.166,784.652 961.784,796.928 972.402,809.204 
  983.021,809.204 993.639,809.204 1004.26,821.48 1014.87,833.756 1025.49,833.756 1036.11,833.756 1046.73,833.756 1057.35,833.756 1067.97,846.032 1078.58,846.032 
  1089.2,846.032 1099.82,858.308 1110.44,858.308 1121.06,870.583 1131.67,882.859 1142.29,895.135 1152.91,895.135 1163.53,895.135 1174.15,907.411 1184.76,907.411 
  1195.38,919.687 1206,931.963 1216.62,944.239 1227.24,956.515 1237.86,956.515 1248.47,968.791 1259.09,968.791 1269.71,968.791 1280.33,981.067 1290.95,981.067 
  1301.56,981.067 1312.18,981.067 1322.8,993.343 1333.42,1005.62 1344.04,1005.62 1354.65,1005.62 1365.27,1005.62 1375.89,1017.89 1386.51,1030.17 1397.13,1042.45 
  1407.74,1054.72 1418.36,1054.72 1428.98,1054.72 1439.6,1067 1450.22,1067 1460.84,1079.27 1471.45,1091.55 1482.07,1103.83 1492.69,1103.83 1503.31,1103.83 
  1513.93,1103.83 1524.54,1116.1 1535.16,1128.38 1545.78,1128.38 1556.4,1140.65 1567.02,1140.65 1577.63,1152.93 1588.25,1165.21 1598.87,1177.48 1609.49,1189.76 
  1620.11,1189.76 1630.72,1189.76 1641.34,1189.76 1651.96,1202.03 1662.58,1202.03 1673.2,1214.31 1683.82,1226.59 1694.43,1226.59 1705.05,1226.59 1715.67,1226.59 
  1726.29,1226.59 1736.91,1238.86 1747.52,1238.86 1758.14,1251.14 1768.76,1251.14 1779.38,1251.14 1790,1251.14 1800.61,1251.14 1811.23,1251.14 1821.85,1251.14 
  1832.47,1251.14 1843.09,1251.14 1853.71,1263.41 1864.32,1275.69 1874.94,1287.97 1885.56,1287.97 1896.18,1287.97 1906.8,1287.97 1917.41,1287.97 1928.03,1287.97 
  1938.65,1287.97 1949.27,1300.24 1959.89,1300.24 1970.5,1300.24 1981.12,1300.24 1991.74,1300.24 2002.36,1300.24 2012.98,1312.52 2023.59,1324.79 2034.21,1324.79 
  2044.83,1324.79 2055.45,1324.79 2066.07,1337.07 2076.69,1349.34 2087.3,1361.62 2097.92,1361.62 2108.54,1361.62 2119.16,1361.62 2129.78,1361.62 2140.39,1361.62 
  2151.01,1361.62 2161.63,1361.62 2172.25,1361.62 2182.87,1361.62 2193.48,1373.9 2204.1,1373.9 2214.72,1373.9 2225.34,1373.9 2235.96,1373.9 2246.57,1373.9 
  2257.19,1373.9 2267.81,1373.9 2278.43,1373.9 2289.05,1386.17 2299.67,1386.17 2310.28,1386.17 2320.9,1386.17 2331.52,1386.17 2342.14,1386.17 2352.76,1386.17 
  
  "/>
<polyline clip-path="url(#clip8002)" style="stroke:#3da44d; stroke-width:4; stroke-opacity:0.5; fill:none" points="
  239.753,158.579 250.371,170.855 260.99,183.131 271.608,195.407 282.226,207.683 292.844,219.959 303.462,219.959 314.08,232.235 324.698,244.511 335.316,256.787 
  345.934,269.063 356.552,281.339 367.171,293.614 377.789,305.89 388.407,318.166 399.025,330.442 409.643,342.718 420.261,342.718 430.879,354.994 441.497,367.27 
  452.115,379.546 462.734,391.822 473.352,404.098 483.97,416.374 494.588,416.374 505.206,428.65 515.824,440.926 526.442,440.926 537.06,453.202 547.678,453.202 
  558.296,465.478 568.915,465.478 579.533,477.754 590.151,490.029 600.769,502.305 611.387,514.581 622.005,514.581 632.623,526.857 643.241,539.133 653.859,551.409 
  664.477,563.685 675.096,563.685 685.714,575.961 696.332,588.237 706.95,600.513 717.568,612.789 728.186,625.065 738.804,637.341 749.422,649.617 760.04,661.893 
  770.659,674.168 781.277,686.444 791.895,698.72 802.513,698.72 813.131,698.72 823.749,698.72 834.367,698.72 844.985,710.996 855.603,723.272 866.221,735.548 
  876.84,735.548 887.458,747.824 898.076,760.1 908.694,772.376 919.312,784.652 929.93,784.652 940.548,784.652 951.166,796.928 961.784,809.204 972.402,809.204 
  983.021,809.204 993.639,809.204 1004.26,809.204 1014.87,821.48 1025.49,821.48 1036.11,833.756 1046.73,833.756 1057.35,833.756 1067.97,846.032 1078.58,846.032 
  1089.2,858.308 1099.82,858.308 1110.44,870.583 1121.06,882.859 1131.67,895.135 1142.29,895.135 1152.91,907.411 1163.53,919.687 1174.15,919.687 1184.76,919.687 
  1195.38,931.963 1206,944.239 1216.62,956.515 1227.24,968.791 1237.86,968.791 1248.47,968.791 1259.09,968.791 1269.71,981.067 1280.33,993.343 1290.95,993.343 
  1301.56,993.343 1312.18,993.343 1322.8,993.343 1333.42,1005.62 1344.04,1005.62 1354.65,1005.62 1365.27,1017.89 1375.89,1017.89 1386.51,1030.17 1397.13,1030.17 
  1407.74,1042.45 1418.36,1054.72 1428.98,1067 1439.6,1067 1450.22,1079.27 1460.84,1091.55 1471.45,1091.55 1482.07,1091.55 1492.69,1091.55 1503.31,1091.55 
  1513.93,1091.55 1524.54,1103.83 1535.16,1103.83 1545.78,1103.83 1556.4,1103.83 1567.02,1116.1 1577.63,1128.38 1588.25,1128.38 1598.87,1128.38 1609.49,1128.38 
  1620.11,1128.38 1630.72,1140.65 1641.34,1140.65 1651.96,1152.93 1662.58,1152.93 1673.2,1165.21 1683.82,1177.48 1694.43,1177.48 1705.05,1177.48 1715.67,1177.48 
  1726.29,1189.76 1736.91,1189.76 1747.52,1189.76 1758.14,1202.03 1768.76,1202.03 1779.38,1214.31 1790,1214.31 1800.61,1214.31 1811.23,1214.31 1821.85,1214.31 
  1832.47,1226.59 1843.09,1238.86 1853.71,1251.14 1864.32,1251.14 1874.94,1251.14 1885.56,1263.41 1896.18,1263.41 1906.8,1263.41 1917.41,1263.41 1928.03,1263.41 
  1938.65,1263.41 1949.27,1263.41 1959.89,1263.41 1970.5,1275.69 1981.12,1275.69 1991.74,1275.69 2002.36,1275.69 2012.98,1275.69 2023.59,1287.97 2034.21,1287.97 
  2044.83,1287.97 2055.45,1287.97 2066.07,1287.97 2076.69,1287.97 2087.3,1300.24 2097.92,1312.52 2108.54,1312.52 2119.16,1324.79 2129.78,1324.79 2140.39,1324.79 
  2151.01,1324.79 2161.63,1324.79 2172.25,1337.07 2182.87,1337.07 2193.48,1337.07 2204.1,1349.34 2214.72,1361.62 2225.34,1361.62 2235.96,1361.62 2246.57,1373.9 
  2257.19,1373.9 2267.81,1373.9 2278.43,1373.9 2289.05,1373.9 2299.67,1373.9 2310.28,1386.17 2320.9,1386.17 2331.52,1386.17 2342.14,1386.17 2352.76,1386.17 
  
  "/>
<polyline clip-path="url(#clip8002)" style="stroke:#c271d2; stroke-width:4; stroke-opacity:0.5; fill:none" points="
  239.753,158.579 250.371,170.855 260.99,183.131 271.608,195.407 282.226,207.683 292.844,219.959 303.462,232.235 314.08,244.511 324.698,256.787 335.316,269.063 
  345.934,281.339 356.552,293.614 367.171,305.89 377.789,318.166 388.407,318.166 399.025,318.166 409.643,330.442 420.261,342.718 430.879,354.994 441.497,367.27 
  452.115,379.546 462.734,391.822 473.352,391.822 483.97,391.822 494.588,404.098 505.206,404.098 515.824,404.098 526.442,416.374 537.06,428.65 547.678,440.926 
  558.296,453.202 568.915,465.478 579.533,477.754 590.151,490.029 600.769,490.029 611.387,502.305 622.005,514.581 632.623,526.857 643.241,526.857 653.859,539.133 
  664.477,539.133 675.096,551.409 685.714,563.685 696.332,563.685 706.95,575.961 717.568,588.237 728.186,600.513 738.804,600.513 749.422,600.513 760.04,612.789 
  770.659,625.065 781.277,625.065 791.895,637.341 802.513,637.341 813.131,649.617 823.749,649.617 834.367,661.893 844.985,674.168 855.603,686.444 866.221,698.72 
  876.84,710.996 887.458,710.996 898.076,723.272 908.694,723.272 919.312,735.548 929.93,747.824 940.548,760.1 951.166,760.1 961.784,760.1 972.402,772.376 
  983.021,784.652 993.639,796.928 1004.26,809.204 1014.87,809.204 1025.49,809.204 1036.11,821.48 1046.73,821.48 1057.35,821.48 1067.97,833.756 1078.58,846.032 
  1089.2,846.032 1099.82,858.308 1110.44,858.308 1121.06,858.308 1131.67,870.583 1142.29,882.859 1152.91,895.135 1163.53,895.135 1174.15,895.135 1184.76,907.411 
  1195.38,919.687 1206,931.963 1216.62,931.963 1227.24,931.963 1237.86,931.963 1248.47,931.963 1259.09,944.239 1269.71,944.239 1280.33,956.515 1290.95,968.791 
  1301.56,968.791 1312.18,981.067 1322.8,993.343 1333.42,1005.62 1344.04,1017.89 1354.65,1017.89 1365.27,1030.17 1375.89,1030.17 1386.51,1030.17 1397.13,1030.17 
  1407.74,1042.45 1418.36,1042.45 1428.98,1054.72 1439.6,1067 1450.22,1079.27 1460.84,1079.27 1471.45,1079.27 1482.07,1091.55 1492.69,1091.55 1503.31,1103.83 
  1513.93,1116.1 1524.54,1128.38 1535.16,1128.38 1545.78,1128.38 1556.4,1128.38 1567.02,1128.38 1577.63,1128.38 1588.25,1128.38 1598.87,1128.38 1609.49,1128.38 
  1620.11,1128.38 1630.72,1140.65 1641.34,1140.65 1651.96,1152.93 1662.58,1165.21 1673.2,1177.48 1683.82,1189.76 1694.43,1202.03 1705.05,1214.31 1715.67,1214.31 
  1726.29,1214.31 1736.91,1214.31 1747.52,1214.31 1758.14,1214.31 1768.76,1214.31 1779.38,1226.59 1790,1226.59 1800.61,1238.86 1811.23,1238.86 1821.85,1238.86 
  1832.47,1251.14 1843.09,1251.14 1853.71,1263.41 1864.32,1263.41 1874.94,1263.41 1885.56,1275.69 1896.18,1275.69 1906.8,1287.97 1917.41,1287.97 1928.03,1287.97 
  1938.65,1287.97 1949.27,1300.24 1959.89,1312.52 1970.5,1312.52 1981.12,1324.79 1991.74,1337.07 2002.36,1337.07 2012.98,1337.07 2023.59,1337.07 2034.21,1337.07 
  2044.83,1337.07 2055.45,1349.34 2066.07,1349.34 2076.69,1349.34 2087.3,1349.34 2097.92,1349.34 2108.54,1349.34 2119.16,1361.62 2129.78,1361.62 2140.39,1361.62 
  2151.01,1361.62 2161.63,1361.62 2172.25,1373.9 2182.87,1373.9 2193.48,1373.9 2204.1,1373.9 2214.72,1373.9 2225.34,1373.9 2235.96,1373.9 2246.57,1373.9 
  2257.19,1373.9 2267.81,1373.9 2278.43,1373.9 2289.05,1373.9 2299.67,1373.9 2310.28,1373.9 2320.9,1386.17 2331.52,1386.17 2342.14,1386.17 2352.76,1386.17 
  
  "/>
<polyline clip-path="url(#clip8002)" style="stroke:#ac8d18; stroke-width:4; stroke-opacity:0.5; fill:none" points="
  239.753,158.579 250.371,170.855 260.99,183.131 271.608,195.407 282.226,207.683 292.844,219.959 303.462,232.235 314.08,244.511 324.698,256.787 335.316,269.063 
  345.934,281.339 356.552,293.614 367.171,305.89 377.789,318.166 388.407,330.442 399.025,342.718 409.643,354.994 420.261,367.27 430.879,379.546 441.497,379.546 
  452.115,391.822 462.734,404.098 473.352,404.098 483.97,416.374 494.588,428.65 505.206,440.926 515.824,453.202 526.442,465.478 537.06,477.754 547.678,477.754 
  558.296,477.754 568.915,477.754 579.533,490.029 590.151,490.029 600.769,502.305 611.387,502.305 622.005,514.581 632.623,526.857 643.241,526.857 653.859,539.133 
  664.477,551.409 675.096,563.685 685.714,575.961 696.332,588.237 706.95,600.513 717.568,612.789 728.186,612.789 738.804,625.065 749.422,637.341 760.04,649.617 
  770.659,661.893 781.277,674.168 791.895,674.168 802.513,674.168 813.131,686.444 823.749,686.444 834.367,698.72 844.985,698.72 855.603,710.996 866.221,723.272 
  876.84,723.272 887.458,723.272 898.076,723.272 908.694,723.272 919.312,735.548 929.93,735.548 940.548,747.824 951.166,760.1 961.784,772.376 972.402,784.652 
  983.021,784.652 993.639,796.928 1004.26,809.204 1014.87,809.204 1025.49,821.48 1036.11,833.756 1046.73,833.756 1057.35,846.032 1067.97,846.032 1078.58,858.308 
  1089.2,870.583 1099.82,870.583 1110.44,870.583 1121.06,882.859 1131.67,895.135 1142.29,907.411 1152.91,907.411 1163.53,907.411 1174.15,919.687 1184.76,931.963 
  1195.38,944.239 1206,956.515 1216.62,956.515 1227.24,968.791 1237.86,968.791 1248.47,981.067 1259.09,981.067 1269.71,981.067 1280.33,981.067 1290.95,993.343 
  1301.56,1005.62 1312.18,1005.62 1322.8,1017.89 1333.42,1030.17 1344.04,1030.17 1354.65,1030.17 1365.27,1030.17 1375.89,1030.17 1386.51,1042.45 1397.13,1042.45 
  1407.74,1042.45 1418.36,1042.45 1428.98,1042.45 1439.6,1042.45 1450.22,1042.45 1460.84,1042.45 1471.45,1042.45 1482.07,1042.45 1492.69,1042.45 1503.31,1042.45 
  1513.93,1042.45 1524.54,1054.72 1535.16,1067 1545.78,1079.27 1556.4,1079.27 1567.02,1079.27 1577.63,1091.55 1588.25,1091.55 1598.87,1091.55 1609.49,1103.83 
  1620.11,1103.83 1630.72,1116.1 1641.34,1128.38 1651.96,1140.65 1662.58,1152.93 1673.2,1152.93 1683.82,1152.93 1694.43,1152.93 1705.05,1165.21 1715.67,1165.21 
  1726.29,1165.21 1736.91,1165.21 1747.52,1177.48 1758.14,1177.48 1768.76,1177.48 1779.38,1189.76 1790,1189.76 1800.61,1189.76 1811.23,1189.76 1821.85,1202.03 
  1832.47,1202.03 1843.09,1214.31 1853.71,1214.31 1864.32,1226.59 1874.94,1226.59 1885.56,1226.59 1896.18,1238.86 1906.8,1238.86 1917.41,1238.86 1928.03,1238.86 
  1938.65,1238.86 1949.27,1251.14 1959.89,1251.14 1970.5,1251.14 1981.12,1263.41 1991.74,1275.69 2002.36,1275.69 2012.98,1275.69 2023.59,1275.69 2034.21,1275.69 
  2044.83,1275.69 2055.45,1275.69 2066.07,1287.97 2076.69,1300.24 2087.3,1300.24 2097.92,1300.24 2108.54,1300.24 2119.16,1312.52 2129.78,1324.79 2140.39,1324.79 
  2151.01,1324.79 2161.63,1324.79 2172.25,1324.79 2182.87,1324.79 2193.48,1337.07 2204.1,1337.07 2214.72,1337.07 2225.34,1337.07 2235.96,1337.07 2246.57,1349.34 
  2257.19,1361.62 2267.81,1361.62 2278.43,1361.62 2289.05,1361.62 2299.67,1361.62 2310.28,1373.9 2320.9,1373.9 2331.52,1386.17 2342.14,1386.17 2352.76,1386.17 
  
  "/>
<polyline clip-path="url(#clip8002)" style="stroke:#00a9ad; stroke-width:4; stroke-opacity:0.5; fill:none" points="
  239.753,158.579 250.371,170.855 260.99,183.131 271.608,195.407 282.226,207.683 292.844,219.959 303.462,232.235 314.08,244.511 324.698,256.787 335.316,269.063 
  345.934,281.339 356.552,281.339 367.171,293.614 377.789,305.89 388.407,318.166 399.025,330.442 409.643,342.718 420.261,354.994 430.879,354.994 441.497,367.27 
  452.115,379.546 462.734,391.822 473.352,404.098 483.97,416.374 494.588,428.65 505.206,428.65 515.824,440.926 526.442,453.202 537.06,465.478 547.678,477.754 
  558.296,490.029 568.915,502.305 579.533,514.581 590.151,526.857 600.769,539.133 611.387,551.409 622.005,563.685 632.623,575.961 643.241,588.237 653.859,600.513 
  664.477,612.789 675.096,625.065 685.714,625.065 696.332,625.065 706.95,625.065 717.568,637.341 728.186,637.341 738.804,649.617 749.422,661.893 760.04,674.168 
  770.659,686.444 781.277,698.72 791.895,698.72 802.513,710.996 813.131,723.272 823.749,735.548 834.367,747.824 844.985,760.1 855.603,760.1 866.221,760.1 
  876.84,760.1 887.458,772.376 898.076,772.376 908.694,772.376 919.312,772.376 929.93,772.376 940.548,784.652 951.166,796.928 961.784,809.204 972.402,809.204 
  983.021,809.204 993.639,809.204 1004.26,809.204 1014.87,821.48 1025.49,821.48 1036.11,833.756 1046.73,846.032 1057.35,858.308 1067.97,870.583 1078.58,882.859 
  1089.2,882.859 1099.82,895.135 1110.44,907.411 1121.06,919.687 1131.67,931.963 1142.29,944.239 1152.91,944.239 1163.53,944.239 1174.15,944.239 1184.76,944.239 
  1195.38,944.239 1206,956.515 1216.62,968.791 1227.24,968.791 1237.86,981.067 1248.47,981.067 1259.09,993.343 1269.71,993.343 1280.33,1005.62 1290.95,1005.62 
  1301.56,1005.62 1312.18,1017.89 1322.8,1030.17 1333.42,1042.45 1344.04,1054.72 1354.65,1067 1365.27,1079.27 1375.89,1091.55 1386.51,1091.55 1397.13,1091.55 
  1407.74,1091.55 1418.36,1091.55 1428.98,1103.83 1439.6,1116.1 1450.22,1116.1 1460.84,1116.1 1471.45,1128.38 1482.07,1140.65 1492.69,1140.65 1503.31,1140.65 
  1513.93,1152.93 1524.54,1152.93 1535.16,1152.93 1545.78,1152.93 1556.4,1152.93 1567.02,1152.93 1577.63,1152.93 1588.25,1165.21 1598.87,1165.21 1609.49,1165.21 
  1620.11,1177.48 1630.72,1189.76 1641.34,1202.03 1651.96,1214.31 1662.58,1214.31 1673.2,1214.31 1683.82,1214.31 1694.43,1214.31 1705.05,1214.31 1715.67,1214.31 
  1726.29,1214.31 1736.91,1226.59 1747.52,1238.86 1758.14,1251.14 1768.76,1251.14 1779.38,1263.41 1790,1275.69 1800.61,1275.69 1811.23,1287.97 1821.85,1287.97 
  1832.47,1287.97 1843.09,1287.97 1853.71,1287.97 1864.32,1287.97 1874.94,1287.97 1885.56,1287.97 1896.18,1287.97 1906.8,1287.97 1917.41,1287.97 1928.03,1287.97 
  1938.65,1300.24 1949.27,1300.24 1959.89,1300.24 1970.5,1312.52 1981.12,1312.52 1991.74,1324.79 2002.36,1324.79 2012.98,1337.07 2023.59,1337.07 2034.21,1337.07 
  2044.83,1349.34 2055.45,1361.62 2066.07,1361.62 2076.69,1361.62 2087.3,1361.62 2097.92,1361.62 2108.54,1361.62 2119.16,1361.62 2129.78,1361.62 2140.39,1361.62 
  2151.01,1361.62 2161.63,1361.62 2172.25,1373.9 2182.87,1373.9 2193.48,1373.9 2204.1,1373.9 2214.72,1373.9 2225.34,1373.9 2235.96,1373.9 2246.57,1373.9 
  2257.19,1373.9 2267.81,1373.9 2278.43,1373.9 2289.05,1373.9 2299.67,1386.17 2310.28,1386.17 2320.9,1386.17 2331.52,1386.17 2342.14,1386.17 2352.76,1386.17 
  
  "/>
<polyline clip-path="url(#clip8002)" style="stroke:#ed5d92; stroke-width:4; stroke-opacity:0.5; fill:none" points="
  239.753,158.579 250.371,170.855 260.99,183.131 271.608,195.407 282.226,207.683 292.844,219.959 303.462,232.235 314.08,244.511 324.698,256.787 335.316,269.063 
  345.934,281.339 356.552,293.614 367.171,305.89 377.789,318.166 388.407,330.442 399.025,330.442 409.643,342.718 420.261,354.994 430.879,354.994 441.497,367.27 
  452.115,379.546 462.734,391.822 473.352,404.098 483.97,416.374 494.588,428.65 505.206,440.926 515.824,453.202 526.442,465.478 537.06,477.754 547.678,490.029 
  558.296,502.305 568.915,514.581 579.533,526.857 590.151,539.133 600.769,551.409 611.387,551.409 622.005,563.685 632.623,575.961 643.241,588.237 653.859,600.513 
  664.477,600.513 675.096,612.789 685.714,625.065 696.332,637.341 706.95,649.617 717.568,661.893 728.186,661.893 738.804,674.168 749.422,686.444 760.04,686.444 
  770.659,698.72 781.277,710.996 791.895,723.272 802.513,723.272 813.131,723.272 823.749,723.272 834.367,735.548 844.985,747.824 855.603,747.824 866.221,747.824 
  876.84,747.824 887.458,760.1 898.076,760.1 908.694,772.376 919.312,784.652 929.93,784.652 940.548,796.928 951.166,796.928 961.784,796.928 972.402,809.204 
  983.021,809.204 993.639,809.204 1004.26,809.204 1014.87,809.204 1025.49,809.204 1036.11,821.48 1046.73,833.756 1057.35,846.032 1067.97,858.308 1078.58,870.583 
  1089.2,882.859 1099.82,882.859 1110.44,895.135 1121.06,907.411 1131.67,919.687 1142.29,931.963 1152.91,931.963 1163.53,944.239 1174.15,944.239 1184.76,956.515 
  1195.38,956.515 1206,956.515 1216.62,968.791 1227.24,981.067 1237.86,993.343 1248.47,1005.62 1259.09,1017.89 1269.71,1017.89 1280.33,1017.89 1290.95,1030.17 
  1301.56,1030.17 1312.18,1042.45 1322.8,1054.72 1333.42,1054.72 1344.04,1067 1354.65,1067 1365.27,1079.27 1375.89,1079.27 1386.51,1079.27 1397.13,1079.27 
  1407.74,1091.55 1418.36,1103.83 1428.98,1116.1 1439.6,1116.1 1450.22,1116.1 1460.84,1128.38 1471.45,1140.65 1482.07,1140.65 1492.69,1140.65 1503.31,1140.65 
  1513.93,1140.65 1524.54,1140.65 1535.16,1140.65 1545.78,1152.93 1556.4,1165.21 1567.02,1177.48 1577.63,1177.48 1588.25,1177.48 1598.87,1177.48 1609.49,1177.48 
  1620.11,1189.76 1630.72,1189.76 1641.34,1202.03 1651.96,1202.03 1662.58,1214.31 1673.2,1214.31 1683.82,1214.31 1694.43,1214.31 1705.05,1214.31 1715.67,1226.59 
  1726.29,1226.59 1736.91,1226.59 1747.52,1226.59 1758.14,1226.59 1768.76,1238.86 1779.38,1238.86 1790,1251.14 1800.61,1251.14 1811.23,1263.41 1821.85,1275.69 
  1832.47,1275.69 1843.09,1275.69 1853.71,1275.69 1864.32,1275.69 1874.94,1275.69 1885.56,1275.69 1896.18,1275.69 1906.8,1275.69 1917.41,1287.97 1928.03,1287.97 
  1938.65,1287.97 1949.27,1287.97 1959.89,1300.24 1970.5,1300.24 1981.12,1300.24 1991.74,1300.24 2002.36,1312.52 2012.98,1324.79 2023.59,1337.07 2034.21,1337.07 
  2044.83,1337.07 2055.45,1337.07 2066.07,1337.07 2076.69,1337.07 2087.3,1337.07 2097.92,1349.34 2108.54,1349.34 2119.16,1349.34 2129.78,1349.34 2140.39,1349.34 
  2151.01,1349.34 2161.63,1361.62 2172.25,1361.62 2182.87,1361.62 2193.48,1361.62 2204.1,1373.9 2214.72,1373.9 2225.34,1386.17 2235.96,1386.17 2246.57,1386.17 
  2257.19,1386.17 2267.81,1386.17 2278.43,1386.17 2289.05,1386.17 2299.67,1386.17 2310.28,1386.17 2320.9,1386.17 2331.52,1386.17 2342.14,1386.17 2352.76,1386.17 
  
  "/>
<polyline clip-path="url(#clip8002)" style="stroke:#c68125; stroke-width:4; stroke-opacity:0.5; fill:none" points="
  239.753,158.579 250.371,170.855 260.99,183.131 271.608,195.407 282.226,207.683 292.844,219.959 303.462,232.235 314.08,244.511 324.698,256.787 335.316,256.787 
  345.934,269.063 356.552,281.339 367.171,293.614 377.789,293.614 388.407,305.89 399.025,318.166 409.643,330.442 420.261,342.718 430.879,354.994 441.497,367.27 
  452.115,379.546 462.734,379.546 473.352,391.822 483.97,404.098 494.588,416.374 505.206,428.65 515.824,440.926 526.442,440.926 537.06,453.202 547.678,465.478 
  558.296,465.478 568.915,477.754 579.533,490.029 590.151,502.305 600.769,514.581 611.387,526.857 622.005,539.133 632.623,539.133 643.241,539.133 653.859,539.133 
  664.477,551.409 675.096,551.409 685.714,551.409 696.332,563.685 706.95,575.961 717.568,588.237 728.186,588.237 738.804,588.237 749.422,600.513 760.04,612.789 
  770.659,625.065 781.277,637.341 791.895,637.341 802.513,649.617 813.131,661.893 823.749,674.168 834.367,674.168 844.985,674.168 855.603,674.168 866.221,686.444 
  876.84,698.72 887.458,710.996 898.076,723.272 908.694,735.548 919.312,735.548 929.93,735.548 940.548,747.824 951.166,747.824 961.784,760.1 972.402,760.1 
  983.021,772.376 993.639,772.376 1004.26,784.652 1014.87,796.928 1025.49,809.204 1036.11,821.48 1046.73,821.48 1057.35,833.756 1067.97,846.032 1078.58,858.308 
  1089.2,858.308 1099.82,858.308 1110.44,870.583 1121.06,882.859 1131.67,882.859 1142.29,895.135 1152.91,895.135 1163.53,907.411 1174.15,907.411 1184.76,907.411 
  1195.38,907.411 1206,907.411 1216.62,919.687 1227.24,931.963 1237.86,931.963 1248.47,931.963 1259.09,931.963 1269.71,931.963 1280.33,944.239 1290.95,956.515 
  1301.56,968.791 1312.18,968.791 1322.8,968.791 1333.42,968.791 1344.04,968.791 1354.65,981.067 1365.27,981.067 1375.89,993.343 1386.51,993.343 1397.13,1005.62 
  1407.74,1017.89 1418.36,1030.17 1428.98,1042.45 1439.6,1042.45 1450.22,1054.72 1460.84,1067 1471.45,1079.27 1482.07,1091.55 1492.69,1091.55 1503.31,1103.83 
  1513.93,1103.83 1524.54,1116.1 1535.16,1128.38 1545.78,1128.38 1556.4,1128.38 1567.02,1128.38 1577.63,1140.65 1588.25,1152.93 1598.87,1152.93 1609.49,1152.93 
  1620.11,1165.21 1630.72,1165.21 1641.34,1165.21 1651.96,1165.21 1662.58,1177.48 1673.2,1189.76 1683.82,1189.76 1694.43,1202.03 1705.05,1202.03 1715.67,1214.31 
  1726.29,1214.31 1736.91,1226.59 1747.52,1238.86 1758.14,1238.86 1768.76,1238.86 1779.38,1238.86 1790,1238.86 1800.61,1238.86 1811.23,1251.14 1821.85,1251.14 
  1832.47,1251.14 1843.09,1251.14 1853.71,1251.14 1864.32,1251.14 1874.94,1263.41 1885.56,1263.41 1896.18,1275.69 1906.8,1275.69 1917.41,1287.97 1928.03,1287.97 
  1938.65,1287.97 1949.27,1287.97 1959.89,1287.97 1970.5,1300.24 1981.12,1300.24 1991.74,1300.24 2002.36,1300.24 2012.98,1312.52 2023.59,1324.79 2034.21,1324.79 
  2044.83,1324.79 2055.45,1324.79 2066.07,1324.79 2076.69,1337.07 2087.3,1337.07 2097.92,1337.07 2108.54,1349.34 2119.16,1349.34 2129.78,1349.34 2140.39,1349.34 
  2151.01,1349.34 2161.63,1349.34 2172.25,1349.34 2182.87,1361.62 2193.48,1361.62 2204.1,1361.62 2214.72,1373.9 2225.34,1373.9 2235.96,1386.17 2246.57,1386.17 
  2257.19,1386.17 2267.81,1386.17 2278.43,1386.17 2289.05,1386.17 2299.67,1386.17 2310.28,1386.17 2320.9,1386.17 2331.52,1386.17 2342.14,1386.17 2352.76,1386.17 
  
  "/>
<polyline clip-path="url(#clip8002)" style="stroke:#00a98d; stroke-width:4; stroke-opacity:0.5; fill:none" points="
  239.753,158.579 250.371,170.855 260.99,183.131 271.608,195.407 282.226,195.407 292.844,207.683 303.462,219.959 314.08,232.235 324.698,232.235 335.316,244.511 
  345.934,256.787 356.552,269.063 367.171,281.339 377.789,293.614 388.407,305.89 399.025,318.166 409.643,330.442 420.261,342.718 430.879,354.994 441.497,367.27 
  452.115,379.546 462.734,391.822 473.352,404.098 483.97,416.374 494.588,428.65 505.206,440.926 515.824,440.926 526.442,453.202 537.06,465.478 547.678,477.754 
  558.296,490.029 568.915,490.029 579.533,502.305 590.151,514.581 600.769,526.857 611.387,539.133 622.005,551.409 632.623,551.409 643.241,563.685 653.859,575.961 
  664.477,588.237 675.096,600.513 685.714,612.789 696.332,612.789 706.95,612.789 717.568,625.065 728.186,625.065 738.804,625.065 749.422,625.065 760.04,637.341 
  770.659,649.617 781.277,661.893 791.895,674.168 802.513,686.444 813.131,686.444 823.749,698.72 834.367,710.996 844.985,710.996 855.603,710.996 866.221,723.272 
  876.84,723.272 887.458,723.272 898.076,723.272 908.694,735.548 919.312,747.824 929.93,747.824 940.548,760.1 951.166,772.376 961.784,772.376 972.402,784.652 
  983.021,796.928 993.639,809.204 1004.26,809.204 1014.87,821.48 1025.49,821.48 1036.11,833.756 1046.73,833.756 1057.35,846.032 1067.97,858.308 1078.58,858.308 
  1089.2,870.583 1099.82,882.859 1110.44,895.135 1121.06,907.411 1131.67,907.411 1142.29,919.687 1152.91,931.963 1163.53,944.239 1174.15,956.515 1184.76,956.515 
  1195.38,968.791 1206,968.791 1216.62,968.791 1227.24,968.791 1237.86,981.067 1248.47,981.067 1259.09,981.067 1269.71,981.067 1280.33,993.343 1290.95,993.343 
  1301.56,993.343 1312.18,1005.62 1322.8,1017.89 1333.42,1030.17 1344.04,1042.45 1354.65,1042.45 1365.27,1042.45 1375.89,1042.45 1386.51,1042.45 1397.13,1042.45 
  1407.74,1042.45 1418.36,1042.45 1428.98,1042.45 1439.6,1042.45 1450.22,1054.72 1460.84,1067 1471.45,1067 1482.07,1067 1492.69,1079.27 1503.31,1079.27 
  1513.93,1091.55 1524.54,1103.83 1535.16,1103.83 1545.78,1103.83 1556.4,1116.1 1567.02,1128.38 1577.63,1128.38 1588.25,1140.65 1598.87,1152.93 1609.49,1152.93 
  1620.11,1152.93 1630.72,1152.93 1641.34,1152.93 1651.96,1152.93 1662.58,1165.21 1673.2,1165.21 1683.82,1177.48 1694.43,1177.48 1705.05,1177.48 1715.67,1177.48 
  1726.29,1189.76 1736.91,1202.03 1747.52,1202.03 1758.14,1214.31 1768.76,1214.31 1779.38,1214.31 1790,1226.59 1800.61,1238.86 1811.23,1238.86 1821.85,1238.86 
  1832.47,1238.86 1843.09,1238.86 1853.71,1238.86 1864.32,1251.14 1874.94,1263.41 1885.56,1263.41 1896.18,1263.41 1906.8,1275.69 1917.41,1275.69 1928.03,1287.97 
  1938.65,1287.97 1949.27,1287.97 1959.89,1287.97 1970.5,1300.24 1981.12,1300.24 1991.74,1300.24 2002.36,1300.24 2012.98,1300.24 2023.59,1300.24 2034.21,1312.52 
  2044.83,1324.79 2055.45,1324.79 2066.07,1337.07 2076.69,1337.07 2087.3,1337.07 2097.92,1337.07 2108.54,1337.07 2119.16,1349.34 2129.78,1349.34 2140.39,1349.34 
  2151.01,1361.62 2161.63,1361.62 2172.25,1361.62 2182.87,1361.62 2193.48,1361.62 2204.1,1361.62 2214.72,1361.62 2225.34,1361.62 2235.96,1361.62 2246.57,1361.62 
  2257.19,1361.62 2267.81,1361.62 2278.43,1361.62 2289.05,1361.62 2299.67,1361.62 2310.28,1361.62 2320.9,1361.62 2331.52,1373.9 2342.14,1373.9 2352.76,1386.17 
  
  "/>
<polyline clip-path="url(#clip8002)" style="stroke:#8e971d; stroke-width:4; stroke-opacity:0.5; fill:none" points="
  239.753,158.579 250.371,170.855 260.99,183.131 271.608,195.407 282.226,207.683 292.844,219.959 303.462,232.235 314.08,244.511 324.698,256.787 335.316,256.787 
  345.934,269.063 356.552,269.063 367.171,281.339 377.789,281.339 388.407,293.614 399.025,305.89 409.643,305.89 420.261,318.166 430.879,330.442 441.497,342.718 
  452.115,342.718 462.734,342.718 473.352,354.994 483.97,367.27 494.588,379.546 505.206,391.822 515.824,391.822 526.442,404.098 537.06,416.374 547.678,428.65 
  558.296,440.926 568.915,453.202 579.533,465.478 590.151,477.754 600.769,477.754 611.387,490.029 622.005,490.029 632.623,502.305 643.241,514.581 653.859,526.857 
  664.477,539.133 675.096,551.409 685.714,551.409 696.332,563.685 706.95,563.685 717.568,575.961 728.186,588.237 738.804,600.513 749.422,600.513 760.04,612.789 
  770.659,625.065 781.277,625.065 791.895,637.341 802.513,649.617 813.131,661.893 823.749,661.893 834.367,661.893 844.985,674.168 855.603,686.444 866.221,686.444 
  876.84,698.72 887.458,710.996 898.076,710.996 908.694,723.272 919.312,735.548 929.93,747.824 940.548,760.1 951.166,760.1 961.784,760.1 972.402,772.376 
  983.021,784.652 993.639,796.928 1004.26,809.204 1014.87,809.204 1025.49,809.204 1036.11,809.204 1046.73,821.48 1057.35,821.48 1067.97,821.48 1078.58,833.756 
  1089.2,846.032 1099.82,846.032 1110.44,846.032 1121.06,846.032 1131.67,858.308 1142.29,870.583 1152.91,870.583 1163.53,882.859 1174.15,895.135 1184.76,895.135 
  1195.38,907.411 1206,919.687 1216.62,931.963 1227.24,944.239 1237.86,944.239 1248.47,944.239 1259.09,956.515 1269.71,968.791 1280.33,981.067 1290.95,993.343 
  1301.56,993.343 1312.18,993.343 1322.8,1005.62 1333.42,1005.62 1344.04,1005.62 1354.65,1005.62 1365.27,1005.62 1375.89,1017.89 1386.51,1030.17 1397.13,1030.17 
  1407.74,1030.17 1418.36,1042.45 1428.98,1042.45 1439.6,1042.45 1450.22,1042.45 1460.84,1042.45 1471.45,1042.45 1482.07,1042.45 1492.69,1054.72 1503.31,1054.72 
  1513.93,1067 1524.54,1067 1535.16,1067 1545.78,1079.27 1556.4,1079.27 1567.02,1079.27 1577.63,1079.27 1588.25,1091.55 1598.87,1103.83 1609.49,1116.1 
  1620.11,1128.38 1630.72,1140.65 1641.34,1140.65 1651.96,1152.93 1662.58,1165.21 1673.2,1165.21 1683.82,1177.48 1694.43,1177.48 1705.05,1189.76 1715.67,1202.03 
  1726.29,1202.03 1736.91,1202.03 1747.52,1202.03 1758.14,1214.31 1768.76,1214.31 1779.38,1214.31 1790,1214.31 1800.61,1226.59 1811.23,1226.59 1821.85,1238.86 
  1832.47,1238.86 1843.09,1238.86 1853.71,1238.86 1864.32,1238.86 1874.94,1238.86 1885.56,1251.14 1896.18,1251.14 1906.8,1251.14 1917.41,1263.41 1928.03,1263.41 
  1938.65,1263.41 1949.27,1263.41 1959.89,1263.41 1970.5,1263.41 1981.12,1263.41 1991.74,1263.41 2002.36,1275.69 2012.98,1287.97 2023.59,1287.97 2034.21,1287.97 
  2044.83,1300.24 2055.45,1300.24 2066.07,1300.24 2076.69,1300.24 2087.3,1300.24 2097.92,1300.24 2108.54,1300.24 2119.16,1300.24 2129.78,1300.24 2140.39,1300.24 
  2151.01,1300.24 2161.63,1312.52 2172.25,1312.52 2182.87,1324.79 2193.48,1324.79 2204.1,1337.07 2214.72,1337.07 2225.34,1337.07 2235.96,1349.34 2246.57,1349.34 
  2257.19,1349.34 2267.81,1349.34 2278.43,1361.62 2289.05,1373.9 2299.67,1373.9 2310.28,1373.9 2320.9,1386.17 2331.52,1386.17 2342.14,1386.17 2352.76,1386.17 
  
  "/>
<polygon clip-path="url(#clip8002)" points="
239.753,158.579 250.371,170.855 260.99,184.228 271.608,197.131 282.226,209.87 292.844,222.468 303.462,234.926 314.08,247.251 324.698,259.451 335.316,271.522 
  345.934,283.471 356.552,295.294 367.171,307 377.789,318.591 388.407,330.07 399.025,341.429 409.643,352.684 420.261,363.832 430.879,374.868 441.497,385.798 
  452.115,396.633 462.734,407.372 473.352,418.01 483.97,428.539 494.588,438.967 505.206,449.321 515.824,459.579 526.442,469.737 537.06,479.806 547.678,489.784 
  558.296,499.673 568.915,509.482 579.533,519.197 590.151,528.84 600.769,538.4 611.387,547.868 622.005,557.257 632.623,566.573 643.241,575.807 653.859,584.965 
  664.477,594.05 675.096,603.055 685.714,611.996 696.332,620.859 706.95,629.654 717.568,638.373 728.186,647.033 738.804,655.614 749.422,664.129 760.04,672.577 
  770.659,680.944 781.277,689.262 791.895,697.505 802.513,705.69 813.131,713.802 823.749,721.84 834.367,729.839 844.985,737.778 855.603,745.645 866.221,753.446 
  876.84,761.192 887.458,768.871 898.076,776.508 908.694,784.084 919.312,791.581 929.93,799.042 940.548,806.452 951.166,813.799 961.784,821.081 972.402,828.292 
  983.021,835.469 993.639,842.581 1004.26,849.651 1014.87,856.67 1025.49,863.641 1036.11,870.563 1046.73,877.428 1057.35,884.233 1067.97,891 1078.58,897.713 
  1089.2,904.363 1099.82,910.976 1110.44,917.536 1121.06,924.034 1131.67,930.502 1142.29,936.92 1152.91,943.29 1163.53,949.613 1174.15,955.881 1184.76,962.108 
  1195.38,968.289 1206,974.412 1216.62,980.504 1227.24,986.54 1237.86,992.541 1248.47,998.494 1259.09,1004.41 1269.71,1010.28 1280.33,1016.1 1290.95,1021.87 
  1301.56,1027.58 1312.18,1033.28 1322.8,1038.92 1333.42,1044.53 1344.04,1050.08 1354.65,1055.62 1365.27,1061.11 1375.89,1066.54 1386.51,1071.95 1397.13,1077.31 
  1407.74,1082.63 1418.36,1087.91 1428.98,1093.14 1439.6,1098.34 1450.22,1103.49 1460.84,1108.6 1471.45,1113.67 1482.07,1118.71 1492.69,1123.7 1503.31,1128.66 
  1513.93,1133.57 1524.54,1138.46 1535.16,1143.3 1545.78,1148.11 1556.4,1152.86 1567.02,1157.58 1577.63,1162.27 1588.25,1166.93 1598.87,1171.55 1609.49,1176.12 
  1620.11,1180.65 1630.72,1185.13 1641.34,1189.59 1651.96,1194.01 1662.58,1198.38 1673.2,1202.73 1683.82,1207.03 1694.43,1211.29 1705.05,1215.52 1715.67,1219.7 
  1726.29,1223.83 1736.91,1227.95 1747.52,1232.03 1758.14,1236.08 1768.76,1240.07 1779.38,1244.03 1790,1247.96 1800.61,1251.84 1811.23,1255.69 1821.85,1259.5 
  1832.47,1263.26 1843.09,1267.01 1853.71,1270.69 1864.32,1274.35 1874.94,1277.98 1885.56,1281.56 1896.18,1285.1 1906.8,1288.61 1917.41,1292.05 1928.03,1295.46 
  1938.65,1298.84 1949.27,1302.18 1959.89,1305.48 1970.5,1308.76 1981.12,1311.98 1991.74,1315.17 2002.36,1318.3 2012.98,1321.39 2023.59,1324.42 2034.21,1327.42 
  2044.83,1330.39 2055.45,1333.32 2066.07,1336.2 2076.69,1339.02 2087.3,1341.81 2097.92,1344.53 2108.54,1347.22 2119.16,1349.86 2129.78,1352.46 2140.39,1355.01 
  2151.01,1357.5 2161.63,1359.93 2172.25,1362.29 2182.87,1364.6 2193.48,1366.84 2204.1,1369.04 2214.72,1371.16 2225.34,1373.22 2235.96,1375.2 2246.57,1377.1 
  2257.19,1378.91 2267.81,1380.64 2278.43,1382.27 2289.05,1383.79 2299.67,1385.18 2310.28,1386.4 2320.9,1387.45 2331.52,1388.22 2342.14,1388.71 2352.76,1386.17 
  2352.76,1386.17 2342.14,1380.14 2331.52,1377.14 2320.9,1374.13 2310.28,1371.18 2299.67,1368.26 2289.05,1365.33 2278.43,1362.38 2267.81,1359.42 2257.19,1356.45 
  2246.57,1353.44 2235.96,1350.42 2225.34,1347.37 2214.72,1344.29 2204.1,1341.17 2193.48,1338.03 2182.87,1334.85 2172.25,1331.64 2161.63,1328.41 2151.01,1325.15 
  2140.39,1321.87 2129.78,1318.56 2119.16,1315.2 2108.54,1311.82 2097.92,1308.42 2087.3,1304.99 2076.69,1301.53 2066.07,1298.02 2055.45,1294.49 2044.83,1290.95 
  2034.21,1287.38 2023.59,1283.76 2012.98,1280.12 2002.36,1276.45 1991.74,1272.75 1981.12,1269.03 1970.5,1265.27 1959.89,1261.48 1949.27,1257.67 1938.65,1253.83 
  1928.03,1249.96 1917.41,1246.05 1906.8,1242.12 1896.18,1238.16 1885.56,1234.16 1874.94,1230.14 1864.32,1226.1 1853.71,1222.04 1843.09,1217.93 1832.47,1213.78 
  1821.85,1209.61 1811.23,1205.43 1800.61,1201.21 1790,1196.95 1779.38,1192.67 1768.76,1188.36 1758.14,1184.02 1747.52,1179.63 1736.91,1175.23 1726.29,1170.81 
  1715.67,1166.35 1705.05,1161.86 1694.43,1157.35 1683.82,1152.8 1673.2,1148.22 1662.58,1143.6 1651.96,1138.96 1641.34,1134.29 1630.72,1129.6 1620.11,1124.86 
  1609.49,1120.09 1598.87,1115.29 1588.25,1110.46 1577.63,1105.61 1567.02,1100.71 1556.4,1095.8 1545.78,1090.84 1535.16,1085.86 1524.54,1080.85 1513.93,1075.8 
  1503.31,1070.73 1492.69,1065.63 1482.07,1060.48 1471.45,1055.3 1460.84,1050.09 1450.22,1044.84 1439.6,1039.59 1428.98,1034.28 1418.36,1028.93 1407.74,1023.56 
  1397.13,1018.17 1386.51,1012.73 1375.89,1007.25 1365.27,1001.75 1354.65,996.209 1344.04,990.631 1333.42,985.033 1322.8,979.369 1312.18,973.699 1301.56,967.996 
  1290.95,962.254 1280.33,956.478 1269.71,950.665 1259.09,944.803 1248.47,938.922 1237.86,932.979 1227.24,927.022 1216.62,921.017 1206,914.961 1195.38,908.885 
  1184.76,902.771 1174.15,896.614 1163.53,890.439 1152.91,884.202 1142.29,877.935 1131.67,871.632 1121.06,865.306 1110.44,858.923 1099.82,852.488 1089.2,846.031 
  1078.58,839.537 1067.97,832.987 1057.35,826.402 1046.73,819.769 1036.11,813.107 1025.49,806.399 1014.87,799.635 1004.26,792.83 993.639,785.985 983.021,779.107 
  972.402,772.184 961.784,765.211 951.166,758.197 940.548,751.144 929.93,744.032 919.312,736.883 908.694,729.695 898.076,722.437 887.458,715.141 876.84,707.803 
  866.221,700.423 855.603,693.006 844.985,685.516 834.367,677.979 823.749,670.394 813.131,662.78 802.513,655.116 791.895,647.383 781.277,639.592 770.659,631.76 
  760.04,623.885 749.422,615.946 738.804,607.952 728.186,599.905 717.568,591.808 706.95,583.658 696.332,575.455 685.714,567.19 675.096,558.867 664.477,550.482 
  653.859,542.045 643.241,533.548 632.623,525.004 622.005,516.392 611.387,507.719 600.769,498.988 590.151,490.187 579.533,481.319 568.915,472.391 558.296,463.398 
  547.678,454.361 537.06,445.239 526.442,436.053 515.824,426.792 505.206,417.473 494.588,408.072 483.97,398.615 473.352,389.064 462.734,379.459 452.115,369.779 
  441.497,360.026 430.879,350.203 420.261,340.301 409.643,330.299 399.025,320.238 388.407,310.086 377.789,299.867 367.171,289.551 356.552,279.169 345.934,268.699 
  335.316,258.131 324.698,247.492 314.08,236.762 303.462,225.944 292.844,215.037 282.226,204.04 271.608,192.949 260.99,181.79 250.371,170.855 239.753,158.579 
  
  " fill="#ff0000" fill-rule="evenodd" fill-opacity="0.5"/>
<polyline clip-path="url(#clip8002)" style="stroke:#ff0000; stroke-width:8; stroke-opacity:1; fill:none" points="
  239.753,158.579 250.371,170.855 260.99,183.009 271.608,195.04 282.226,206.955 292.844,218.752 303.462,230.435 314.08,242.006 324.698,253.472 335.316,264.826 
  345.934,276.085 356.552,287.231 367.171,298.275 377.789,309.229 388.407,320.078 399.025,330.834 409.643,341.492 420.261,352.066 430.879,362.535 441.497,372.912 
  452.115,383.206 462.734,393.415 473.352,403.537 483.97,413.577 494.588,423.519 505.206,433.397 515.824,443.186 526.442,452.895 537.06,462.523 547.678,472.073 
  558.296,481.536 568.915,490.936 579.533,500.258 590.151,509.514 600.769,518.694 611.387,527.793 622.005,536.825 632.623,545.788 643.241,554.678 653.859,563.505 
  664.477,572.266 675.096,580.961 685.714,589.593 696.332,598.157 706.95,606.656 717.568,615.091 728.186,623.469 738.804,631.783 749.422,640.038 760.04,648.231 
  770.659,656.352 781.277,664.427 791.895,672.444 802.513,680.403 813.131,688.291 823.749,696.117 834.367,703.909 844.985,711.647 855.603,719.325 866.221,726.934 
  876.84,734.497 887.458,742.006 898.076,749.472 908.694,756.89 919.312,764.232 929.93,771.537 940.548,778.798 951.166,785.998 961.784,793.146 972.402,800.238 
  983.021,807.288 993.639,814.283 1004.26,821.241 1014.87,828.152 1025.49,835.02 1036.11,841.835 1046.73,848.598 1057.35,855.317 1067.97,861.994 1078.58,868.625 
  1089.2,875.197 1099.82,881.732 1110.44,888.229 1121.06,894.67 1131.67,901.067 1142.29,907.428 1152.91,913.746 1163.53,920.026 1174.15,926.248 1184.76,932.439 
  1195.38,938.587 1206,944.686 1216.62,950.761 1227.24,956.781 1237.86,962.76 1248.47,968.708 1259.09,974.607 1269.71,980.473 1280.33,986.287 1290.95,992.06 
  1301.56,997.788 1312.18,1003.49 1322.8,1009.14 1333.42,1014.78 1344.04,1020.36 1354.65,1025.91 1365.27,1031.43 1375.89,1036.9 1386.51,1042.34 1397.13,1047.74 
  1407.74,1053.1 1418.36,1058.42 1428.98,1063.71 1439.6,1068.96 1450.22,1074.16 1460.84,1079.34 1471.45,1084.49 1482.07,1089.59 1492.69,1094.67 1503.31,1099.7 
  1513.93,1104.69 1524.54,1109.65 1535.16,1114.58 1545.78,1119.48 1556.4,1124.33 1567.02,1129.15 1577.63,1133.94 1588.25,1138.7 1598.87,1143.42 1609.49,1148.1 
  1620.11,1152.76 1630.72,1157.36 1641.34,1161.94 1651.96,1166.48 1662.58,1170.99 1673.2,1175.47 1683.82,1179.92 1694.43,1184.32 1705.05,1188.69 1715.67,1193.02 
  1726.29,1197.32 1736.91,1201.59 1747.52,1205.83 1758.14,1210.05 1768.76,1214.22 1779.38,1218.35 1790,1222.45 1800.61,1226.52 1811.23,1230.56 1821.85,1234.56 
  1832.47,1238.52 1843.09,1242.47 1853.71,1246.37 1864.32,1250.23 1874.94,1254.06 1885.56,1257.86 1896.18,1261.63 1906.8,1265.36 1917.41,1269.05 1928.03,1272.71 
  1938.65,1276.34 1949.27,1279.93 1959.89,1283.48 1970.5,1287.02 1981.12,1290.51 1991.74,1293.96 2002.36,1297.38 2012.98,1300.75 2023.59,1304.09 2034.21,1307.4 
  2044.83,1310.67 2055.45,1313.9 2066.07,1317.11 2076.69,1320.27 2087.3,1323.4 2097.92,1326.47 2108.54,1329.52 2119.16,1332.53 2129.78,1335.51 2140.39,1338.44 
  2151.01,1341.32 2161.63,1344.17 2172.25,1346.97 2182.87,1349.73 2193.48,1352.44 2204.1,1355.1 2214.72,1357.72 2225.34,1360.29 2235.96,1362.81 2246.57,1365.27 
  2257.19,1367.68 2267.81,1370.03 2278.43,1372.33 2289.05,1374.56 2299.67,1376.72 2310.28,1378.79 2320.9,1380.79 2331.52,1382.68 2342.14,1384.43 2352.76,1386.17 
  
  "/>
</svg>
