<?xml version="1.0" encoding="utf-8"?>
<svg xmlns="http://www.w3.org/2000/svg" xmlns:xlink="http://www.w3.org/1999/xlink" width="600" height="400" viewBox="0 0 2400 1600">
<defs>
  <clipPath id="clip6400">
    <rect x="0" y="0" width="2400" height="1600"/>
  </clipPath>
</defs>
<polygon clip-path="url(#clip6400)" points="
0,1600 2400,1600 2400,0 0,0 
  " fill="#ffffff" fill-rule="evenodd" fill-opacity="1"/>
<defs>
  <clipPath id="clip6401">
    <rect x="480" y="0" width="1681" height="1600"/>
  </clipPath>
</defs>
<polygon clip-path="url(#clip6400)" points="
202.373,1425.62 2352.76,1425.62 2352.76,121.675 202.373,121.675 
  " fill="#ffffff" fill-rule="evenodd" fill-opacity="1"/>
<defs>
  <clipPath id="clip6402">
    <rect x="202" y="121" width="2151" height="1305"/>
  </clipPath>
</defs>
<polyline clip-path="url(#clip6402)" style="stroke:#000000; stroke-width:2; stroke-opacity:0.1; fill:none" points="
  202.373,1425.62 202.373,121.675 
  "/>
<polyline clip-path="url(#clip6402)" style="stroke:#000000; stroke-width:2; stroke-opacity:0.1; fill:none" points="
  739.969,1425.62 739.969,121.675 
  "/>
<polyline clip-path="url(#clip6402)" style="stroke:#000000; stroke-width:2; stroke-opacity:0.1; fill:none" points="
  1277.56,1425.62 1277.56,121.675 
  "/>
<polyline clip-path="url(#clip6402)" style="stroke:#000000; stroke-width:2; stroke-opacity:0.1; fill:none" points="
  1815.16,1425.62 1815.16,121.675 
  "/>
<polyline clip-path="url(#clip6402)" style="stroke:#000000; stroke-width:2; stroke-opacity:0.1; fill:none" points="
  2352.76,1425.62 2352.76,121.675 
  "/>
<polyline clip-path="url(#clip6402)" style="stroke:#000000; stroke-width:2; stroke-opacity:0.1; fill:none" points="
  202.373,1388.71 2352.76,1388.71 
  "/>
<polyline clip-path="url(#clip6402)" style="stroke:#000000; stroke-width:2; stroke-opacity:0.1; fill:none" points="
  202.373,1142.69 2352.76,1142.69 
  "/>
<polyline clip-path="url(#clip6402)" style="stroke:#000000; stroke-width:2; stroke-opacity:0.1; fill:none" points="
  202.373,896.66 2352.76,896.66 
  "/>
<polyline clip-path="url(#clip6402)" style="stroke:#000000; stroke-width:2; stroke-opacity:0.1; fill:none" points="
  202.373,650.633 2352.76,650.633 
  "/>
<polyline clip-path="url(#clip6402)" style="stroke:#000000; stroke-width:2; stroke-opacity:0.1; fill:none" points="
  202.373,404.606 2352.76,404.606 
  "/>
<polyline clip-path="url(#clip6402)" style="stroke:#000000; stroke-width:2; stroke-opacity:0.1; fill:none" points="
  202.373,158.579 2352.76,158.579 
  "/>
<polyline clip-path="url(#clip6400)" style="stroke:#000000; stroke-width:4; stroke-opacity:1; fill:none" points="
  202.373,1425.62 2352.76,1425.62 
  "/>
<polyline clip-path="url(#clip6400)" style="stroke:#000000; stroke-width:4; stroke-opacity:1; fill:none" points="
  202.373,1425.62 202.373,121.675 
  "/>
<polyline clip-path="url(#clip6400)" style="stroke:#000000; stroke-width:4; stroke-opacity:1; fill:none" points="
  202.373,1425.62 202.373,1406.06 
  "/>
<polyline clip-path="url(#clip6400)" style="stroke:#000000; stroke-width:4; stroke-opacity:1; fill:none" points="
  739.969,1425.62 739.969,1406.06 
  "/>
<polyline clip-path="url(#clip6400)" style="stroke:#000000; stroke-width:4; stroke-opacity:1; fill:none" points="
  1277.56,1425.62 1277.56,1406.06 
  "/>
<polyline clip-path="url(#clip6400)" style="stroke:#000000; stroke-width:4; stroke-opacity:1; fill:none" points="
  1815.16,1425.62 1815.16,1406.06 
  "/>
<polyline clip-path="url(#clip6400)" style="stroke:#000000; stroke-width:4; stroke-opacity:1; fill:none" points="
  2352.76,1425.62 2352.76,1406.06 
  "/>
<polyline clip-path="url(#clip6400)" style="stroke:#000000; stroke-width:4; stroke-opacity:1; fill:none" points="
  202.373,1388.71 234.629,1388.71 
  "/>
<polyline clip-path="url(#clip6400)" style="stroke:#000000; stroke-width:4; stroke-opacity:1; fill:none" points="
  202.373,1142.69 234.629,1142.69 
  "/>
<polyline clip-path="url(#clip6400)" style="stroke:#000000; stroke-width:4; stroke-opacity:1; fill:none" points="
  202.373,896.66 234.629,896.66 
  "/>
<polyline clip-path="url(#clip6400)" style="stroke:#000000; stroke-width:4; stroke-opacity:1; fill:none" points="
  202.373,650.633 234.629,650.633 
  "/>
<polyline clip-path="url(#clip6400)" style="stroke:#000000; stroke-width:4; stroke-opacity:1; fill:none" points="
  202.373,404.606 234.629,404.606 
  "/>
<polyline clip-path="url(#clip6400)" style="stroke:#000000; stroke-width:4; stroke-opacity:1; fill:none" points="
  202.373,158.579 234.629,158.579 
  "/>
<g clip-path="url(#clip6400)">
<text style="fill:#000000; fill-opacity:1; font-family:Arial,Helvetica Neue,Helvetica,sans-serif; font-size:48px; text-anchor:middle;" transform="rotate(0, 202.373, 1479.62)" x="202.373" y="1479.62">0</text>
</g>
<g clip-path="url(#clip6400)">
<text style="fill:#000000; fill-opacity:1; font-family:Arial,Helvetica Neue,Helvetica,sans-serif; font-size:48px; text-anchor:middle;" transform="rotate(0, 739.969, 1479.62)" x="739.969" y="1479.62">50</text>
</g>
<g clip-path="url(#clip6400)">
<text style="fill:#000000; fill-opacity:1; font-family:Arial,Helvetica Neue,Helvetica,sans-serif; font-size:48px; text-anchor:middle;" transform="rotate(0, 1277.56, 1479.62)" x="1277.56" y="1479.62">100</text>
</g>
<g clip-path="url(#clip6400)">
<text style="fill:#000000; fill-opacity:1; font-family:Arial,Helvetica Neue,Helvetica,sans-serif; font-size:48px; text-anchor:middle;" transform="rotate(0, 1815.16, 1479.62)" x="1815.16" y="1479.62">150</text>
</g>
<g clip-path="url(#clip6400)">
<text style="fill:#000000; fill-opacity:1; font-family:Arial,Helvetica Neue,Helvetica,sans-serif; font-size:48px; text-anchor:middle;" transform="rotate(0, 2352.76, 1479.62)" x="2352.76" y="1479.62">200</text>
</g>
<g clip-path="url(#clip6400)">
<text style="fill:#000000; fill-opacity:1; font-family:Arial,Helvetica Neue,Helvetica,sans-serif; font-size:48px; text-anchor:end;" transform="rotate(0, 178.373, 1406.21)" x="178.373" y="1406.21">0</text>
</g>
<g clip-path="url(#clip6400)">
<text style="fill:#000000; fill-opacity:1; font-family:Arial,Helvetica Neue,Helvetica,sans-serif; font-size:48px; text-anchor:end;" transform="rotate(0, 178.373, 1160.19)" x="178.373" y="1160.19">10</text>
</g>
<g clip-path="url(#clip6400)">
<text style="fill:#000000; fill-opacity:1; font-family:Arial,Helvetica Neue,Helvetica,sans-serif; font-size:48px; text-anchor:end;" transform="rotate(0, 178.373, 914.16)" x="178.373" y="914.16">20</text>
</g>
<g clip-path="url(#clip6400)">
<text style="fill:#000000; fill-opacity:1; font-family:Arial,Helvetica Neue,Helvetica,sans-serif; font-size:48px; text-anchor:end;" transform="rotate(0, 178.373, 668.133)" x="178.373" y="668.133">30</text>
</g>
<g clip-path="url(#clip6400)">
<text style="fill:#000000; fill-opacity:1; font-family:Arial,Helvetica Neue,Helvetica,sans-serif; font-size:48px; text-anchor:end;" transform="rotate(0, 178.373, 422.106)" x="178.373" y="422.106">40</text>
</g>
<g clip-path="url(#clip6400)">
<text style="fill:#000000; fill-opacity:1; font-family:Arial,Helvetica Neue,Helvetica,sans-serif; font-size:48px; text-anchor:end;" transform="rotate(0, 178.373, 176.079)" x="178.373" y="176.079">50</text>
</g>
<g clip-path="url(#clip6400)">
<text style="fill:#000000; fill-opacity:1; font-family:Arial,Helvetica Neue,Helvetica,sans-serif; font-size:84px; text-anchor:middle;" transform="rotate(0, 1277.56, 73.2)" x="1277.56" y="73.2">halves</text>
</g>
<g clip-path="url(#clip6400)">
<text style="fill:#000000; fill-opacity:1; font-family:Arial,Helvetica Neue,Helvetica,sans-serif; font-size:66px; text-anchor:middle;" transform="rotate(0, 1277.56, 1559.48)" x="1277.56" y="1559.48">t</text>
</g>
<g clip-path="url(#clip6400)">
<text style="fill:#000000; fill-opacity:1; font-family:Arial,Helvetica Neue,Helvetica,sans-serif; font-size:66px; text-anchor:middle;" transform="rotate(-90, 89.2861, 773.647)" x="89.2861" y="773.647">n</text>
</g>
<polyline clip-path="url(#clip6402)" style="stroke:#009af9; stroke-width:4; stroke-opacity:0.5; fill:none" points="
  213.125,1388.71 223.877,1364.11 234.629,1339.51 245.381,1314.91 256.132,1290.3 266.884,1265.7 277.636,1241.1 288.388,1216.5 299.14,1191.89 309.892,1167.29 
  320.644,1142.69 331.396,1118.08 342.148,1093.48 352.9,1068.88 363.652,1044.28 374.404,1019.67 385.155,995.071 395.907,970.469 406.659,945.866 417.411,970.469 
  428.163,995.071 438.915,970.469 449.667,945.866 460.419,921.263 471.171,896.66 481.923,872.058 492.675,847.455 503.427,872.058 514.178,847.455 524.93,822.852 
  535.682,847.455 546.434,822.852 557.186,798.25 567.938,773.647 578.69,749.044 589.442,724.441 600.194,699.839 610.946,675.236 621.698,699.839 632.45,675.236 
  643.201,650.633 653.953,626.031 664.705,601.428 675.457,626.031 686.209,650.633 696.961,626.031 707.713,601.428 718.465,576.825 729.217,601.428 739.969,576.825 
  750.721,552.223 761.472,576.825 772.224,552.223 782.976,527.62 793.728,503.017 804.48,478.414 815.232,453.812 825.984,478.414 836.736,453.812 847.488,478.414 
  858.24,503.017 868.992,527.62 879.744,552.223 890.495,576.825 901.247,552.223 911.999,576.825 922.751,552.223 933.503,527.62 944.255,503.017 955.007,478.414 
  965.759,503.017 976.511,527.62 987.263,552.223 998.015,576.825 1008.77,552.223 1019.52,527.62 1030.27,503.017 1041.02,478.414 1051.77,453.812 1062.53,478.414 
  1073.28,503.017 1084.03,478.414 1094.78,503.017 1105.53,527.62 1116.29,552.223 1127.04,527.62 1137.79,503.017 1148.54,527.62 1159.29,552.223 1170.05,576.825 
  1180.8,601.428 1191.55,576.825 1202.3,601.428 1213.05,626.031 1223.8,650.633 1234.56,626.031 1245.31,601.428 1256.06,576.825 1266.81,601.428 1277.56,576.825 
  1288.32,552.223 1299.07,527.62 1309.82,503.017 1320.57,527.62 1331.32,552.223 1342.08,576.825 1352.83,552.223 1363.58,576.825 1374.33,552.223 1385.08,576.825 
  1395.84,552.223 1406.59,576.825 1417.34,552.223 1428.09,527.62 1438.84,552.223 1449.6,527.62 1460.35,552.223 1471.1,576.825 1481.85,601.428 1492.6,576.825 
  1503.35,601.428 1514.11,576.825 1524.86,601.428 1535.61,626.031 1546.36,601.428 1557.11,626.031 1567.87,650.633 1578.62,675.236 1589.37,650.633 1600.12,626.031 
  1610.87,650.633 1621.63,626.031 1632.38,650.633 1643.13,626.031 1653.88,601.428 1664.63,626.031 1675.39,650.633 1686.14,626.031 1696.89,601.428 1707.64,626.031 
  1718.39,601.428 1729.14,626.031 1739.9,650.633 1750.65,675.236 1761.4,650.633 1772.15,675.236 1782.9,699.839 1793.66,724.441 1804.41,749.044 1815.16,773.647 
  1825.91,749.044 1836.66,773.647 1847.42,749.044 1858.17,773.647 1868.92,798.25 1879.67,773.647 1890.42,798.25 1901.18,822.852 1911.93,798.25 1922.68,773.647 
  1933.43,749.044 1944.18,773.647 1954.94,798.25 1965.69,822.852 1976.44,847.455 1987.19,872.058 1997.94,896.66 2008.69,872.058 2019.45,896.66 2030.2,872.058 
  2040.95,847.455 2051.7,872.058 2062.45,847.455 2073.21,872.058 2083.96,896.66 2094.71,921.263 2105.46,945.866 2116.21,970.469 2126.97,945.866 2137.72,970.469 
  2148.47,945.866 2159.22,970.469 2169.97,995.071 2180.73,1019.67 2191.48,1044.28 2202.23,1068.88 2212.98,1093.48 2223.73,1118.08 2234.48,1093.48 2245.24,1118.08 
  2255.99,1142.69 2266.74,1167.29 2277.49,1191.89 2288.24,1216.5 2299,1241.1 2309.75,1265.7 2320.5,1290.3 2331.25,1314.91 2342,1339.51 2352.76,1364.11 
  
  "/>
<polyline clip-path="url(#clip6402)" style="stroke:#e26f46; stroke-width:4; stroke-opacity:0.5; fill:none" points="
  213.125,1388.71 223.877,1364.11 234.629,1339.51 245.381,1314.91 256.132,1290.3 266.884,1265.7 277.636,1241.1 288.388,1216.5 299.14,1191.89 309.892,1167.29 
  320.644,1142.69 331.396,1118.08 342.148,1093.48 352.9,1068.88 363.652,1044.28 374.404,1068.88 385.155,1044.28 395.907,1019.67 406.659,995.071 417.411,970.469 
  428.163,995.071 438.915,970.469 449.667,945.866 460.419,921.263 471.171,896.66 481.923,872.058 492.675,847.455 503.427,822.852 514.178,798.25 524.93,822.852 
  535.682,798.25 546.434,773.647 557.186,749.044 567.938,724.441 578.69,749.044 589.442,724.441 600.194,749.044 610.946,724.441 621.698,699.839 632.45,675.236 
  643.201,699.839 653.953,675.236 664.705,650.633 675.457,626.031 686.209,650.633 696.961,675.236 707.713,699.839 718.465,675.236 729.217,699.839 739.969,675.236 
  750.721,650.633 761.472,675.236 772.224,650.633 782.976,626.031 793.728,650.633 804.48,626.031 815.232,650.633 825.984,626.031 836.736,650.633 847.488,675.236 
  858.24,650.633 868.992,675.236 879.744,650.633 890.495,626.031 901.247,601.428 911.999,576.825 922.751,601.428 933.503,626.031 944.255,601.428 955.007,626.031 
  965.759,650.633 976.511,626.031 987.263,601.428 998.015,576.825 1008.77,601.428 1019.52,626.031 1030.27,601.428 1041.02,626.031 1051.77,650.633 1062.53,675.236 
  1073.28,699.839 1084.03,724.441 1094.78,749.044 1105.53,724.441 1116.29,749.044 1127.04,724.441 1137.79,749.044 1148.54,724.441 1159.29,699.839 1170.05,724.441 
  1180.8,699.839 1191.55,675.236 1202.3,650.633 1213.05,626.031 1223.8,650.633 1234.56,675.236 1245.31,650.633 1256.06,675.236 1266.81,650.633 1277.56,626.031 
  1288.32,650.633 1299.07,675.236 1309.82,650.633 1320.57,626.031 1331.32,601.428 1342.08,626.031 1352.83,601.428 1363.58,626.031 1374.33,650.633 1385.08,626.031 
  1395.84,650.633 1406.59,675.236 1417.34,699.839 1428.09,675.236 1438.84,650.633 1449.6,675.236 1460.35,699.839 1471.1,675.236 1481.85,650.633 1492.6,675.236 
  1503.35,699.839 1514.11,675.236 1524.86,699.839 1535.61,675.236 1546.36,699.839 1557.11,724.441 1567.87,749.044 1578.62,773.647 1589.37,798.25 1600.12,773.647 
  1610.87,798.25 1621.63,773.647 1632.38,798.25 1643.13,773.647 1653.88,749.044 1664.63,773.647 1675.39,749.044 1686.14,773.647 1696.89,798.25 1707.64,822.852 
  1718.39,847.455 1729.14,872.058 1739.9,896.66 1750.65,921.263 1761.4,945.866 1772.15,921.263 1782.9,896.66 1793.66,872.058 1804.41,896.66 1815.16,921.263 
  1825.91,896.66 1836.66,921.263 1847.42,896.66 1858.17,921.263 1868.92,896.66 1879.67,921.263 1890.42,945.866 1901.18,921.263 1911.93,945.866 1922.68,921.263 
  1933.43,945.866 1944.18,970.469 1954.94,945.866 1965.69,921.263 1976.44,945.866 1987.19,970.469 1997.94,945.866 2008.69,970.469 2019.45,995.071 2030.2,1019.67 
  2040.95,1044.28 2051.7,1068.88 2062.45,1093.48 2073.21,1118.08 2083.96,1142.69 2094.71,1167.29 2105.46,1142.69 2116.21,1118.08 2126.97,1142.69 2137.72,1167.29 
  2148.47,1142.69 2159.22,1167.29 2169.97,1191.89 2180.73,1216.5 2191.48,1241.1 2202.23,1265.7 2212.98,1290.3 2223.73,1314.91 2234.48,1339.51 2245.24,1364.11 
  2255.99,1388.71 2266.74,1364.11 2277.49,1339.51 2288.24,1364.11 2299,1388.71 2309.75,1364.11 2320.5,1339.51 2331.25,1364.11 2342,1339.51 2352.76,1364.11 
  
  "/>
<polyline clip-path="url(#clip6402)" style="stroke:#3da44d; stroke-width:4; stroke-opacity:0.5; fill:none" points="
  213.125,1388.71 223.877,1364.11 234.629,1339.51 245.381,1314.91 256.132,1290.3 266.884,1265.7 277.636,1241.1 288.388,1216.5 299.14,1191.89 309.892,1167.29 
  320.644,1191.89 331.396,1167.29 342.148,1142.69 352.9,1118.08 363.652,1093.48 374.404,1068.88 385.155,1044.28 395.907,1019.67 406.659,995.071 417.411,970.469 
  428.163,945.866 438.915,921.263 449.667,945.866 460.419,921.263 471.171,896.66 481.923,872.058 492.675,847.455 503.427,872.058 514.178,847.455 524.93,822.852 
  535.682,847.455 546.434,822.852 557.186,798.25 567.938,822.852 578.69,798.25 589.442,773.647 600.194,749.044 610.946,724.441 621.698,749.044 632.45,724.441 
  643.201,699.839 653.953,724.441 664.705,699.839 675.457,675.236 686.209,650.633 696.961,626.031 707.713,650.633 718.465,626.031 729.217,601.428 739.969,576.825 
  750.721,601.428 761.472,576.825 772.224,601.428 782.976,576.825 793.728,601.428 804.48,626.031 815.232,650.633 825.984,626.031 836.736,601.428 847.488,576.825 
  858.24,552.223 868.992,527.62 879.744,552.223 890.495,576.825 901.247,552.223 911.999,527.62 922.751,552.223 933.503,527.62 944.255,503.017 955.007,527.62 
  965.759,503.017 976.511,527.62 987.263,503.017 998.015,478.414 1008.77,503.017 1019.52,527.62 1030.27,503.017 1041.02,478.414 1051.77,503.017 1062.53,478.414 
  1073.28,453.812 1084.03,478.414 1094.78,503.017 1105.53,478.414 1116.29,453.812 1127.04,429.209 1137.79,404.606 1148.54,429.209 1159.29,453.812 1170.05,478.414 
  1180.8,453.812 1191.55,478.414 1202.3,503.017 1213.05,478.414 1223.8,503.017 1234.56,527.62 1245.31,503.017 1256.06,478.414 1266.81,453.812 1277.56,478.414 
  1288.32,453.812 1299.07,478.414 1309.82,453.812 1320.57,478.414 1331.32,453.812 1342.08,478.414 1352.83,453.812 1363.58,429.209 1374.33,453.812 1385.08,429.209 
  1395.84,404.606 1406.59,429.209 1417.34,404.606 1428.09,429.209 1438.84,404.606 1449.6,429.209 1460.35,453.812 1471.1,429.209 1481.85,453.812 1492.6,478.414 
  1503.35,503.017 1514.11,478.414 1524.86,453.812 1535.61,478.414 1546.36,503.017 1557.11,527.62 1567.87,552.223 1578.62,576.825 1589.37,601.428 1600.12,576.825 
  1610.87,601.428 1621.63,626.031 1632.38,601.428 1643.13,626.031 1653.88,601.428 1664.63,626.031 1675.39,650.633 1686.14,675.236 1696.89,650.633 1707.64,675.236 
  1718.39,650.633 1729.14,675.236 1739.9,699.839 1750.65,724.441 1761.4,699.839 1772.15,724.441 1782.9,699.839 1793.66,724.441 1804.41,699.839 1815.16,724.441 
  1825.91,749.044 1836.66,773.647 1847.42,798.25 1858.17,773.647 1868.92,798.25 1879.67,822.852 1890.42,798.25 1901.18,822.852 1911.93,798.25 1922.68,822.852 
  1933.43,798.25 1944.18,773.647 1954.94,749.044 1965.69,724.441 1976.44,749.044 1987.19,773.647 1997.94,798.25 2008.69,822.852 2019.45,847.455 2030.2,872.058 
  2040.95,896.66 2051.7,921.263 2062.45,945.866 2073.21,970.469 2083.96,995.071 2094.71,970.469 2105.46,995.071 2116.21,1019.67 2126.97,1044.28 2137.72,1019.67 
  2148.47,995.071 2159.22,1019.67 2169.97,1044.28 2180.73,1068.88 2191.48,1093.48 2202.23,1118.08 2212.98,1142.69 2223.73,1167.29 2234.48,1191.89 2245.24,1167.29 
  2255.99,1191.89 2266.74,1216.5 2277.49,1241.1 2288.24,1265.7 2299,1290.3 2309.75,1314.91 2320.5,1290.3 2331.25,1314.91 2342,1339.51 2352.76,1364.11 
  
  "/>
<polyline clip-path="url(#clip6402)" style="stroke:#c271d2; stroke-width:4; stroke-opacity:0.5; fill:none" points="
  213.125,1388.71 223.877,1364.11 234.629,1339.51 245.381,1314.91 256.132,1290.3 266.884,1265.7 277.636,1241.1 288.388,1216.5 299.14,1191.89 309.892,1167.29 
  320.644,1142.69 331.396,1118.08 342.148,1093.48 352.9,1068.88 363.652,1044.28 374.404,1019.67 385.155,995.071 395.907,970.469 406.659,945.866 417.411,970.469 
  428.163,945.866 438.915,921.263 449.667,896.66 460.419,872.058 471.171,847.455 481.923,872.058 492.675,896.66 503.427,872.058 514.178,847.455 524.93,822.852 
  535.682,798.25 546.434,773.647 557.186,749.044 567.938,724.441 578.69,699.839 589.442,675.236 600.194,650.633 610.946,626.031 621.698,650.633 632.45,626.031 
  643.201,601.428 653.953,576.825 664.705,601.428 675.457,576.825 686.209,552.223 696.961,527.62 707.713,503.017 718.465,478.414 729.217,503.017 739.969,527.62 
  750.721,503.017 761.472,478.414 772.224,453.812 782.976,429.209 793.728,404.606 804.48,380.004 815.232,404.606 825.984,380.004 836.736,404.606 847.488,380.004 
  858.24,404.606 868.992,429.209 879.744,453.812 890.495,429.209 901.247,404.606 911.999,380.004 922.751,355.401 933.503,380.004 944.255,404.606 955.007,380.004 
  965.759,404.606 976.511,429.209 987.263,453.812 998.015,429.209 1008.77,453.812 1019.52,429.209 1030.27,404.606 1041.02,380.004 1051.77,355.401 1062.53,330.798 
  1073.28,306.195 1084.03,330.798 1094.78,306.195 1105.53,281.593 1116.29,306.195 1127.04,281.593 1137.79,306.195 1148.54,281.593 1159.29,256.99 1170.05,281.593 
  1180.8,306.195 1191.55,330.798 1202.3,355.401 1213.05,330.798 1223.8,306.195 1234.56,281.593 1245.31,256.99 1256.06,232.387 1266.81,207.785 1277.56,232.387 
  1288.32,207.785 1299.07,183.182 1309.82,207.785 1320.57,183.182 1331.32,158.579 1342.08,183.182 1352.83,207.785 1363.58,232.387 1374.33,256.99 1385.08,281.593 
  1395.84,256.99 1406.59,281.593 1417.34,306.195 1428.09,330.798 1438.84,306.195 1449.6,330.798 1460.35,355.401 1471.1,330.798 1481.85,355.401 1492.6,380.004 
  1503.35,404.606 1514.11,380.004 1524.86,404.606 1535.61,429.209 1546.36,453.812 1557.11,478.414 1567.87,503.017 1578.62,527.62 1589.37,503.017 1600.12,527.62 
  1610.87,552.223 1621.63,576.825 1632.38,601.428 1643.13,626.031 1653.88,601.428 1664.63,626.031 1675.39,650.633 1686.14,675.236 1696.89,699.839 1707.64,724.441 
  1718.39,749.044 1729.14,773.647 1739.9,749.044 1750.65,773.647 1761.4,749.044 1772.15,724.441 1782.9,699.839 1793.66,675.236 1804.41,650.633 1815.16,675.236 
  1825.91,699.839 1836.66,675.236 1847.42,699.839 1858.17,724.441 1868.92,699.839 1879.67,675.236 1890.42,699.839 1901.18,724.441 1911.93,749.044 1922.68,773.647 
  1933.43,798.25 1944.18,822.852 1954.94,847.455 1965.69,872.058 1976.44,896.66 1987.19,921.263 1997.94,896.66 2008.69,921.263 2019.45,896.66 2030.2,872.058 
  2040.95,896.66 2051.7,921.263 2062.45,945.866 2073.21,970.469 2083.96,995.071 2094.71,1019.67 2105.46,1044.28 2116.21,1068.88 2126.97,1093.48 2137.72,1118.08 
  2148.47,1093.48 2159.22,1118.08 2169.97,1093.48 2180.73,1068.88 2191.48,1093.48 2202.23,1068.88 2212.98,1093.48 2223.73,1118.08 2234.48,1142.69 2245.24,1118.08 
  2255.99,1142.69 2266.74,1167.29 2277.49,1191.89 2288.24,1216.5 2299,1241.1 2309.75,1265.7 2320.5,1290.3 2331.25,1314.91 2342,1339.51 2352.76,1364.11 
  
  "/>
<polyline clip-path="url(#clip6402)" style="stroke:#ac8d18; stroke-width:4; stroke-opacity:0.5; fill:none" points="
  213.125,1388.71 223.877,1364.11 234.629,1339.51 245.381,1314.91 256.132,1290.3 266.884,1265.7 277.636,1241.1 288.388,1216.5 299.14,1191.89 309.892,1216.5 
  320.644,1191.89 331.396,1167.29 342.148,1142.69 352.9,1118.08 363.652,1093.48 374.404,1068.88 385.155,1044.28 395.907,1019.67 406.659,1044.28 417.411,1019.67 
  428.163,1044.28 438.915,1068.88 449.667,1093.48 460.419,1068.88 471.171,1044.28 481.923,1068.88 492.675,1044.28 503.427,1068.88 514.178,1044.28 524.93,1019.67 
  535.682,995.071 546.434,970.469 557.186,945.866 567.938,921.263 578.69,896.66 589.442,872.058 600.194,847.455 610.946,822.852 621.698,798.25 632.45,773.647 
  643.201,749.044 653.953,724.441 664.705,749.044 675.457,773.647 686.209,749.044 696.961,724.441 707.713,699.839 718.465,724.441 729.217,699.839 739.969,675.236 
  750.721,650.633 761.472,626.031 772.224,601.428 782.976,626.031 793.728,601.428 804.48,576.825 815.232,552.223 825.984,576.825 836.736,552.223 847.488,576.825 
  858.24,552.223 868.992,576.825 879.744,601.428 890.495,576.825 901.247,601.428 911.999,626.031 922.751,601.428 933.503,576.825 944.255,601.428 955.007,576.825 
  965.759,552.223 976.511,527.62 987.263,503.017 998.015,478.414 1008.77,503.017 1019.52,527.62 1030.27,503.017 1041.02,527.62 1051.77,503.017 1062.53,527.62 
  1073.28,552.223 1084.03,527.62 1094.78,503.017 1105.53,527.62 1116.29,503.017 1127.04,478.414 1137.79,503.017 1148.54,478.414 1159.29,453.812 1170.05,429.209 
  1180.8,404.606 1191.55,429.209 1202.3,404.606 1213.05,429.209 1223.8,404.606 1234.56,429.209 1245.31,404.606 1256.06,429.209 1266.81,404.606 1277.56,429.209 
  1288.32,453.812 1299.07,478.414 1309.82,503.017 1320.57,527.62 1331.32,503.017 1342.08,527.62 1352.83,503.017 1363.58,527.62 1374.33,552.223 1385.08,576.825 
  1395.84,552.223 1406.59,576.825 1417.34,601.428 1428.09,576.825 1438.84,601.428 1449.6,626.031 1460.35,650.633 1471.1,675.236 1481.85,699.839 1492.6,724.441 
  1503.35,699.839 1514.11,724.441 1524.86,699.839 1535.61,675.236 1546.36,699.839 1557.11,675.236 1567.87,699.839 1578.62,724.441 1589.37,699.839 1600.12,675.236 
  1610.87,699.839 1621.63,675.236 1632.38,699.839 1643.13,724.441 1653.88,749.044 1664.63,773.647 1675.39,798.25 1686.14,822.852 1696.89,798.25 1707.64,773.647 
  1718.39,798.25 1729.14,773.647 1739.9,749.044 1750.65,773.647 1761.4,749.044 1772.15,724.441 1782.9,749.044 1793.66,773.647 1804.41,749.044 1815.16,773.647 
  1825.91,798.25 1836.66,773.647 1847.42,749.044 1858.17,773.647 1868.92,749.044 1879.67,773.647 1890.42,749.044 1901.18,773.647 1911.93,798.25 1922.68,822.852 
  1933.43,847.455 1944.18,872.058 1954.94,896.66 1965.69,921.263 1976.44,945.866 1987.19,970.469 1997.94,945.866 2008.69,970.469 2019.45,945.866 2030.2,970.469 
  2040.95,995.071 2051.7,1019.67 2062.45,995.071 2073.21,1019.67 2083.96,1044.28 2094.71,1068.88 2105.46,1093.48 2116.21,1118.08 2126.97,1093.48 2137.72,1118.08 
  2148.47,1093.48 2159.22,1118.08 2169.97,1142.69 2180.73,1167.29 2191.48,1191.89 2202.23,1167.29 2212.98,1191.89 2223.73,1216.5 2234.48,1241.1 2245.24,1265.7 
  2255.99,1241.1 2266.74,1265.7 2277.49,1290.3 2288.24,1314.91 2299,1290.3 2309.75,1314.91 2320.5,1339.51 2331.25,1364.11 2342,1388.71 2352.76,1364.11 
  
  "/>
<polyline clip-path="url(#clip6402)" style="stroke:#00a9ad; stroke-width:4; stroke-opacity:0.5; fill:none" points="
  213.125,1388.71 223.877,1364.11 234.629,1339.51 245.381,1314.91 256.132,1290.3 266.884,1265.7 277.636,1241.1 288.388,1216.5 299.14,1191.89 309.892,1167.29 
  320.644,1142.69 331.396,1118.08 342.148,1093.48 352.9,1068.88 363.652,1044.28 374.404,1019.67 385.155,995.071 395.907,1019.67 406.659,995.071 417.411,1019.67 
  428.163,995.071 438.915,970.469 449.667,995.071 460.419,970.469 471.171,945.866 481.923,921.263 492.675,896.66 503.427,872.058 514.178,847.455 524.93,872.058 
  535.682,847.455 546.434,822.852 557.186,798.25 567.938,773.647 578.69,749.044 589.442,773.647 600.194,749.044 610.946,773.647 621.698,798.25 632.45,773.647 
  643.201,749.044 653.953,724.441 664.705,749.044 675.457,724.441 686.209,699.839 696.961,675.236 707.713,650.633 718.465,626.031 729.217,601.428 739.969,626.031 
  750.721,601.428 761.472,626.031 772.224,650.633 782.976,626.031 793.728,650.633 804.48,626.031 815.232,601.428 825.984,576.825 836.736,552.223 847.488,527.62 
  858.24,503.017 868.992,478.414 879.744,503.017 890.495,527.62 901.247,503.017 911.999,478.414 922.751,503.017 933.503,527.62 944.255,503.017 955.007,527.62 
  965.759,552.223 976.511,576.825 987.263,601.428 998.015,626.031 1008.77,601.428 1019.52,626.031 1030.27,650.633 1041.02,626.031 1051.77,650.633 1062.53,675.236 
  1073.28,650.633 1084.03,626.031 1094.78,650.633 1105.53,626.031 1116.29,601.428 1127.04,626.031 1137.79,601.428 1148.54,626.031 1159.29,650.633 1170.05,675.236 
  1180.8,699.839 1191.55,675.236 1202.3,650.633 1213.05,626.031 1223.8,650.633 1234.56,675.236 1245.31,699.839 1256.06,724.441 1266.81,699.839 1277.56,724.441 
  1288.32,749.044 1299.07,773.647 1309.82,749.044 1320.57,724.441 1331.32,699.839 1342.08,724.441 1352.83,749.044 1363.58,724.441 1374.33,699.839 1385.08,675.236 
  1395.84,699.839 1406.59,724.441 1417.34,749.044 1428.09,724.441 1438.84,699.839 1449.6,675.236 1460.35,699.839 1471.1,724.441 1481.85,749.044 1492.6,724.441 
  1503.35,699.839 1514.11,675.236 1524.86,650.633 1535.61,626.031 1546.36,650.633 1557.11,675.236 1567.87,650.633 1578.62,626.031 1589.37,650.633 1600.12,675.236 
  1610.87,650.633 1621.63,626.031 1632.38,601.428 1643.13,576.825 1653.88,601.428 1664.63,626.031 1675.39,650.633 1686.14,675.236 1696.89,699.839 1707.64,675.236 
  1718.39,650.633 1729.14,626.031 1739.9,601.428 1750.65,626.031 1761.4,650.633 1772.15,675.236 1782.9,699.839 1793.66,724.441 1804.41,699.839 1815.16,724.441 
  1825.91,749.044 1836.66,724.441 1847.42,699.839 1858.17,724.441 1868.92,749.044 1879.67,773.647 1890.42,798.25 1901.18,822.852 1911.93,798.25 1922.68,822.852 
  1933.43,798.25 1944.18,822.852 1954.94,847.455 1965.69,872.058 1976.44,847.455 1987.19,822.852 1997.94,798.25 2008.69,822.852 2019.45,847.455 2030.2,872.058 
  2040.95,896.66 2051.7,921.263 2062.45,945.866 2073.21,970.469 2083.96,945.866 2094.71,970.469 2105.46,945.866 2116.21,970.469 2126.97,995.071 2137.72,1019.67 
  2148.47,1044.28 2159.22,1068.88 2169.97,1093.48 2180.73,1118.08 2191.48,1142.69 2202.23,1167.29 2212.98,1191.89 2223.73,1216.5 2234.48,1241.1 2245.24,1265.7 
  2255.99,1290.3 2266.74,1314.91 2277.49,1339.51 2288.24,1364.11 2299,1339.51 2309.75,1314.91 2320.5,1290.3 2331.25,1314.91 2342,1339.51 2352.76,1364.11 
  
  "/>
<polyline clip-path="url(#clip6402)" style="stroke:#ed5d92; stroke-width:4; stroke-opacity:0.5; fill:none" points="
  213.125,1388.71 223.877,1364.11 234.629,1339.51 245.381,1314.91 256.132,1290.3 266.884,1265.7 277.636,1241.1 288.388,1216.5 299.14,1191.89 309.892,1167.29 
  320.644,1191.89 331.396,1167.29 342.148,1142.69 352.9,1167.29 363.652,1142.69 374.404,1118.08 385.155,1093.48 395.907,1068.88 406.659,1044.28 417.411,1019.67 
  428.163,995.071 438.915,970.469 449.667,945.866 460.419,970.469 471.171,945.866 481.923,970.469 492.675,945.866 503.427,921.263 514.178,896.66 524.93,872.058 
  535.682,847.455 546.434,822.852 557.186,798.25 567.938,773.647 578.69,798.25 589.442,822.852 600.194,798.25 610.946,773.647 621.698,749.044 632.45,773.647 
  643.201,749.044 653.953,773.647 664.705,749.044 675.457,724.441 686.209,699.839 696.961,724.441 707.713,699.839 718.465,724.441 729.217,699.839 739.969,675.236 
  750.721,650.633 761.472,626.031 772.224,650.633 782.976,626.031 793.728,601.428 804.48,626.031 815.232,601.428 825.984,576.825 836.736,601.428 847.488,576.825 
  858.24,601.428 868.992,576.825 879.744,552.223 890.495,576.825 901.247,601.428 911.999,626.031 922.751,601.428 933.503,576.825 944.255,601.428 955.007,576.825 
  965.759,552.223 976.511,527.62 987.263,503.017 998.015,527.62 1008.77,503.017 1019.52,527.62 1030.27,503.017 1041.02,527.62 1051.77,503.017 1062.53,478.414 
  1073.28,453.812 1084.03,478.414 1094.78,503.017 1105.53,478.414 1116.29,453.812 1127.04,478.414 1137.79,453.812 1148.54,478.414 1159.29,503.017 1170.05,478.414 
  1180.8,453.812 1191.55,478.414 1202.3,453.812 1213.05,429.209 1223.8,404.606 1234.56,429.209 1245.31,453.812 1256.06,478.414 1266.81,503.017 1277.56,527.62 
  1288.32,503.017 1299.07,527.62 1309.82,552.223 1320.57,527.62 1331.32,503.017 1342.08,527.62 1352.83,552.223 1363.58,576.825 1374.33,552.223 1385.08,527.62 
  1395.84,552.223 1406.59,576.825 1417.34,601.428 1428.09,626.031 1438.84,650.633 1449.6,626.031 1460.35,650.633 1471.1,675.236 1481.85,699.839 1492.6,675.236 
  1503.35,650.633 1514.11,675.236 1524.86,650.633 1535.61,675.236 1546.36,699.839 1557.11,675.236 1567.87,650.633 1578.62,675.236 1589.37,699.839 1600.12,724.441 
  1610.87,749.044 1621.63,773.647 1632.38,749.044 1643.13,773.647 1653.88,749.044 1664.63,773.647 1675.39,798.25 1686.14,773.647 1696.89,798.25 1707.64,773.647 
  1718.39,749.044 1729.14,773.647 1739.9,798.25 1750.65,822.852 1761.4,847.455 1772.15,872.058 1782.9,896.66 1793.66,921.263 1804.41,896.66 1815.16,872.058 
  1825.91,847.455 1836.66,822.852 1847.42,847.455 1858.17,872.058 1868.92,896.66 1879.67,921.263 1890.42,896.66 1901.18,921.263 1911.93,945.866 1922.68,921.263 
  1933.43,945.866 1944.18,970.469 1954.94,995.071 1965.69,1019.67 1976.44,995.071 1987.19,1019.67 1997.94,995.071 2008.69,970.469 2019.45,995.071 2030.2,970.469 
  2040.95,995.071 2051.7,1019.67 2062.45,995.071 2073.21,1019.67 2083.96,995.071 2094.71,1019.67 2105.46,995.071 2116.21,1019.67 2126.97,1044.28 2137.72,1068.88 
  2148.47,1093.48 2159.22,1118.08 2169.97,1093.48 2180.73,1118.08 2191.48,1142.69 2202.23,1167.29 2212.98,1191.89 2223.73,1216.5 2234.48,1191.89 2245.24,1167.29 
  2255.99,1191.89 2266.74,1216.5 2277.49,1241.1 2288.24,1265.7 2299,1290.3 2309.75,1265.7 2320.5,1290.3 2331.25,1314.91 2342,1339.51 2352.76,1364.11 
  
  "/>
<polyline clip-path="url(#clip6402)" style="stroke:#c68125; stroke-width:4; stroke-opacity:0.5; fill:none" points="
  213.125,1388.71 223.877,1364.11 234.629,1339.51 245.381,1314.91 256.132,1290.3 266.884,1265.7 277.636,1241.1 288.388,1216.5 299.14,1191.89 309.892,1167.29 
  320.644,1142.69 331.396,1118.08 342.148,1093.48 352.9,1118.08 363.652,1093.48 374.404,1068.88 385.155,1044.28 395.907,1019.67 406.659,995.071 417.411,1019.67 
  428.163,995.071 438.915,970.469 449.667,945.866 460.419,970.469 471.171,945.866 481.923,921.263 492.675,896.66 503.427,872.058 514.178,847.455 524.93,872.058 
  535.682,896.66 546.434,872.058 557.186,847.455 567.938,822.852 578.69,847.455 589.442,822.852 600.194,798.25 610.946,773.647 621.698,749.044 632.45,773.647 
  643.201,798.25 653.953,773.647 664.705,749.044 675.457,724.441 686.209,749.044 696.961,724.441 707.713,699.839 718.465,675.236 729.217,699.839 739.969,675.236 
  750.721,699.839 761.472,724.441 772.224,699.839 782.976,724.441 793.728,749.044 804.48,724.441 815.232,699.839 825.984,675.236 836.736,650.633 847.488,675.236 
  858.24,650.633 868.992,675.236 879.744,699.839 890.495,724.441 901.247,699.839 911.999,675.236 922.751,650.633 933.503,675.236 944.255,650.633 955.007,675.236 
  965.759,699.839 976.511,724.441 987.263,699.839 998.015,724.441 1008.77,749.044 1019.52,773.647 1030.27,749.044 1041.02,724.441 1051.77,749.044 1062.53,724.441 
  1073.28,749.044 1084.03,724.441 1094.78,699.839 1105.53,724.441 1116.29,699.839 1127.04,675.236 1137.79,699.839 1148.54,675.236 1159.29,650.633 1170.05,626.031 
  1180.8,601.428 1191.55,576.825 1202.3,552.223 1213.05,527.62 1223.8,552.223 1234.56,527.62 1245.31,503.017 1256.06,478.414 1266.81,503.017 1277.56,478.414 
  1288.32,503.017 1299.07,527.62 1309.82,552.223 1320.57,527.62 1331.32,552.223 1342.08,576.825 1352.83,601.428 1363.58,576.825 1374.33,601.428 1385.08,626.031 
  1395.84,650.633 1406.59,675.236 1417.34,699.839 1428.09,675.236 1438.84,650.633 1449.6,675.236 1460.35,650.633 1471.1,626.031 1481.85,601.428 1492.6,626.031 
  1503.35,601.428 1514.11,576.825 1524.86,601.428 1535.61,576.825 1546.36,601.428 1557.11,576.825 1567.87,601.428 1578.62,626.031 1589.37,601.428 1600.12,626.031 
  1610.87,601.428 1621.63,626.031 1632.38,650.633 1643.13,626.031 1653.88,650.633 1664.63,626.031 1675.39,601.428 1686.14,576.825 1696.89,601.428 1707.64,626.031 
  1718.39,650.633 1729.14,675.236 1739.9,699.839 1750.65,724.441 1761.4,699.839 1772.15,724.441 1782.9,749.044 1793.66,773.647 1804.41,798.25 1815.16,822.852 
  1825.91,847.455 1836.66,872.058 1847.42,847.455 1858.17,872.058 1868.92,847.455 1879.67,822.852 1890.42,847.455 1901.18,872.058 1911.93,896.66 1922.68,921.263 
  1933.43,945.866 1944.18,921.263 1954.94,945.866 1965.69,921.263 1976.44,945.866 1987.19,921.263 1997.94,945.866 2008.69,970.469 2019.45,945.866 2030.2,921.263 
  2040.95,945.866 2051.7,970.469 2062.45,995.071 2073.21,1019.67 2083.96,995.071 2094.71,1019.67 2105.46,995.071 2116.21,1019.67 2126.97,1044.28 2137.72,1019.67 
  2148.47,1044.28 2159.22,1068.88 2169.97,1093.48 2180.73,1118.08 2191.48,1093.48 2202.23,1118.08 2212.98,1142.69 2223.73,1118.08 2234.48,1142.69 2245.24,1167.29 
  2255.99,1191.89 2266.74,1216.5 2277.49,1241.1 2288.24,1265.7 2299,1290.3 2309.75,1314.91 2320.5,1290.3 2331.25,1314.91 2342,1339.51 2352.76,1364.11 
  
  "/>
<polyline clip-path="url(#clip6402)" style="stroke:#00a98d; stroke-width:4; stroke-opacity:0.5; fill:none" points="
  213.125,1388.71 223.877,1364.11 234.629,1339.51 245.381,1314.91 256.132,1290.3 266.884,1265.7 277.636,1241.1 288.388,1216.5 299.14,1191.89 309.892,1167.29 
  320.644,1142.69 331.396,1118.08 342.148,1093.48 352.9,1068.88 363.652,1044.28 374.404,1019.67 385.155,995.071 395.907,970.469 406.659,945.866 417.411,921.263 
  428.163,896.66 438.915,872.058 449.667,847.455 460.419,872.058 471.171,847.455 481.923,822.852 492.675,798.25 503.427,773.647 514.178,749.044 524.93,724.441 
  535.682,699.839 546.434,675.236 557.186,650.633 567.938,675.236 578.69,650.633 589.442,675.236 600.194,650.633 610.946,626.031 621.698,601.428 632.45,626.031 
  643.201,650.633 653.953,675.236 664.705,650.633 675.457,626.031 686.209,650.633 696.961,626.031 707.713,650.633 718.465,626.031 729.217,601.428 739.969,626.031 
  750.721,601.428 761.472,626.031 772.224,650.633 782.976,626.031 793.728,650.633 804.48,675.236 815.232,699.839 825.984,675.236 836.736,699.839 847.488,724.441 
  858.24,749.044 868.992,773.647 879.744,798.25 890.495,773.647 901.247,749.044 911.999,724.441 922.751,699.839 933.503,675.236 944.255,650.633 955.007,626.031 
  965.759,650.633 976.511,626.031 987.263,650.633 998.015,626.031 1008.77,650.633 1019.52,626.031 1030.27,601.428 1041.02,576.825 1051.77,601.428 1062.53,576.825 
  1073.28,601.428 1084.03,576.825 1094.78,601.428 1105.53,626.031 1116.29,650.633 1127.04,626.031 1137.79,601.428 1148.54,576.825 1159.29,552.223 1170.05,576.825 
  1180.8,601.428 1191.55,626.031 1202.3,650.633 1213.05,626.031 1223.8,650.633 1234.56,675.236 1245.31,650.633 1256.06,675.236 1266.81,650.633 1277.56,626.031 
  1288.32,650.633 1299.07,675.236 1309.82,699.839 1320.57,675.236 1331.32,699.839 1342.08,724.441 1352.83,749.044 1363.58,773.647 1374.33,798.25 1385.08,773.647 
  1395.84,749.044 1406.59,724.441 1417.34,749.044 1428.09,724.441 1438.84,699.839 1449.6,675.236 1460.35,650.633 1471.1,675.236 1481.85,650.633 1492.6,626.031 
  1503.35,601.428 1514.11,626.031 1524.86,650.633 1535.61,675.236 1546.36,650.633 1557.11,626.031 1567.87,650.633 1578.62,675.236 1589.37,699.839 1600.12,724.441 
  1610.87,749.044 1621.63,724.441 1632.38,699.839 1643.13,675.236 1653.88,650.633 1664.63,675.236 1675.39,650.633 1686.14,675.236 1696.89,650.633 1707.64,675.236 
  1718.39,699.839 1729.14,675.236 1739.9,699.839 1750.65,724.441 1761.4,699.839 1772.15,724.441 1782.9,749.044 1793.66,724.441 1804.41,699.839 1815.16,724.441 
  1825.91,749.044 1836.66,724.441 1847.42,749.044 1858.17,724.441 1868.92,749.044 1879.67,773.647 1890.42,798.25 1901.18,773.647 1911.93,798.25 1922.68,822.852 
  1933.43,847.455 1944.18,872.058 1954.94,896.66 1965.69,872.058 1976.44,847.455 1987.19,872.058 1997.94,896.66 2008.69,921.263 2019.45,896.66 2030.2,921.263 
  2040.95,945.866 2051.7,970.469 2062.45,945.866 2073.21,970.469 2083.96,945.866 2094.71,921.263 2105.46,896.66 2116.21,921.263 2126.97,945.866 2137.72,970.469 
  2148.47,995.071 2159.22,1019.67 2169.97,1044.28 2180.73,1068.88 2191.48,1093.48 2202.23,1118.08 2212.98,1142.69 2223.73,1167.29 2234.48,1191.89 2245.24,1216.5 
  2255.99,1241.1 2266.74,1216.5 2277.49,1241.1 2288.24,1265.7 2299,1290.3 2309.75,1265.7 2320.5,1290.3 2331.25,1314.91 2342,1339.51 2352.76,1364.11 
  
  "/>
<polyline clip-path="url(#clip6402)" style="stroke:#8e971d; stroke-width:4; stroke-opacity:0.5; fill:none" points="
  213.125,1388.71 223.877,1364.11 234.629,1339.51 245.381,1314.91 256.132,1290.3 266.884,1265.7 277.636,1241.1 288.388,1216.5 299.14,1191.89 309.892,1167.29 
  320.644,1142.69 331.396,1118.08 342.148,1093.48 352.9,1118.08 363.652,1093.48 374.404,1118.08 385.155,1093.48 395.907,1068.88 406.659,1093.48 417.411,1118.08 
  428.163,1093.48 438.915,1068.88 449.667,1044.28 460.419,1019.67 471.171,995.071 481.923,1019.67 492.675,995.071 503.427,970.469 514.178,995.071 524.93,970.469 
  535.682,945.866 546.434,921.263 557.186,896.66 567.938,872.058 578.69,847.455 589.442,872.058 600.194,896.66 610.946,921.263 621.698,945.866 632.45,921.263 
  643.201,896.66 653.953,872.058 664.705,896.66 675.457,872.058 686.209,847.455 696.961,822.852 707.713,798.25 718.465,822.852 729.217,798.25 739.969,822.852 
  750.721,798.25 761.472,773.647 772.224,798.25 782.976,773.647 793.728,798.25 804.48,773.647 815.232,749.044 825.984,724.441 836.736,699.839 847.488,675.236 
  858.24,650.633 868.992,626.031 879.744,650.633 890.495,626.031 901.247,650.633 911.999,626.031 922.751,601.428 933.503,626.031 944.255,601.428 955.007,576.825 
  965.759,601.428 976.511,576.825 987.263,601.428 998.015,626.031 1008.77,650.633 1019.52,626.031 1030.27,650.633 1041.02,626.031 1051.77,650.633 1062.53,626.031 
  1073.28,601.428 1084.03,626.031 1094.78,601.428 1105.53,576.825 1116.29,552.223 1127.04,576.825 1137.79,552.223 1148.54,576.825 1159.29,552.223 1170.05,527.62 
  1180.8,552.223 1191.55,527.62 1202.3,552.223 1213.05,527.62 1223.8,552.223 1234.56,527.62 1245.31,552.223 1256.06,576.825 1266.81,552.223 1277.56,527.62 
  1288.32,552.223 1299.07,527.62 1309.82,552.223 1320.57,576.825 1331.32,601.428 1342.08,576.825 1352.83,552.223 1363.58,576.825 1374.33,601.428 1385.08,576.825 
  1395.84,601.428 1406.59,576.825 1417.34,601.428 1428.09,576.825 1438.84,552.223 1449.6,576.825 1460.35,601.428 1471.1,626.031 1481.85,650.633 1492.6,675.236 
  1503.35,699.839 1514.11,724.441 1524.86,699.839 1535.61,675.236 1546.36,699.839 1557.11,675.236 1567.87,650.633 1578.62,675.236 1589.37,699.839 1600.12,675.236 
  1610.87,699.839 1621.63,724.441 1632.38,699.839 1643.13,675.236 1653.88,699.839 1664.63,724.441 1675.39,749.044 1686.14,724.441 1696.89,749.044 1707.64,773.647 
  1718.39,749.044 1729.14,773.647 1739.9,798.25 1750.65,822.852 1761.4,798.25 1772.15,773.647 1782.9,749.044 1793.66,773.647 1804.41,749.044 1815.16,773.647 
  1825.91,798.25 1836.66,773.647 1847.42,798.25 1858.17,773.647 1868.92,749.044 1879.67,724.441 1890.42,749.044 1901.18,773.647 1911.93,749.044 1922.68,773.647 
  1933.43,749.044 1944.18,773.647 1954.94,798.25 1965.69,822.852 1976.44,847.455 1987.19,822.852 1997.94,847.455 2008.69,822.852 2019.45,798.25 2030.2,773.647 
  2040.95,798.25 2051.7,822.852 2062.45,847.455 2073.21,872.058 2083.96,847.455 2094.71,822.852 2105.46,847.455 2116.21,872.058 2126.97,896.66 2137.72,921.263 
  2148.47,945.866 2159.22,921.263 2169.97,945.866 2180.73,970.469 2191.48,995.071 2202.23,1019.67 2212.98,1044.28 2223.73,1068.88 2234.48,1093.48 2245.24,1118.08 
  2255.99,1142.69 2266.74,1167.29 2277.49,1191.89 2288.24,1216.5 2299,1241.1 2309.75,1265.7 2320.5,1290.3 2331.25,1314.91 2342,1339.51 2352.76,1364.11 
  
  "/>
<polygon clip-path="url(#clip6402)" points="
213.125,1388.71 223.877,1364.11 234.629,1344.87 245.381,1324.69 256.132,1304.83 266.884,1285.34 277.636,1266.21 288.388,1247.46 299.14,1229.03 309.892,1210.95 
  320.644,1193.26 331.396,1175.85 342.148,1158.82 352.9,1142.11 363.652,1125.76 374.404,1109.71 385.155,1093.99 395.907,1078.61 406.659,1063.49 417.411,1048.71 
  428.163,1034.22 438.915,1020.05 449.667,1006.14 460.419,992.529 471.171,979.199 481.923,966.149 492.675,953.379 503.427,940.852 514.178,928.614 524.93,916.644 
  535.682,904.976 546.434,893.544 557.186,882.367 567.938,871.408 578.69,860.757 589.442,850.366 600.194,840.194 610.946,830.297 621.698,820.594 632.45,811.103 
  643.201,801.875 653.953,792.846 664.705,784.107 675.457,775.537 686.209,767.3 696.961,759.239 707.713,751.411 718.465,743.82 729.217,736.354 739.969,729.109 
  750.721,722.1 761.472,715.296 772.224,708.699 782.976,702.323 793.728,696.104 804.48,690.16 815.232,684.395 825.984,678.831 836.736,673.371 847.488,668.232 
  858.24,663.211 868.992,658.442 879.744,653.814 890.495,649.433 901.247,645.189 911.999,641.08 922.751,637.197 933.503,633.519 944.255,630.014 955.007,626.722 
  965.759,623.581 976.511,620.551 987.263,617.659 998.015,614.945 1008.77,612.486 1019.52,610.21 1030.27,608.103 1041.02,606.227 1051.77,604.46 1062.53,602.783 
  1073.28,601.395 1084.03,600.073 1094.78,598.931 1105.53,597.984 1116.29,597.157 1127.04,596.452 1137.79,595.896 1148.54,595.55 1159.29,595.418 1170.05,595.323 
  1180.8,595.412 1191.55,595.666 1202.3,596.019 1213.05,596.478 1223.8,597.149 1234.56,598.093 1245.31,599.072 1256.06,600.269 1266.81,601.535 1277.56,603.017 
  1288.32,604.599 1299.07,606.298 1309.82,608.104 1320.57,610.092 1331.32,612.272 1342.08,614.549 1352.83,616.936 1363.58,619.467 1374.33,622.143 1385.08,624.977 
  1395.84,627.922 1406.59,630.964 1417.34,634.199 1428.09,637.588 1438.84,641.114 1449.6,644.654 1460.35,648.386 1471.1,652.23 1481.85,656.242 1492.6,660.388 
  1503.35,664.645 1514.11,669.064 1524.86,673.595 1535.61,678.183 1546.36,682.927 1557.11,687.888 1567.87,692.902 1578.62,698.049 1589.37,703.357 1600.12,708.722 
  1610.87,714.286 1621.63,719.886 1632.38,725.578 1643.13,731.468 1653.88,737.456 1664.63,743.602 1675.39,749.794 1686.14,756.174 1696.89,762.661 1707.64,769.317 
  1718.39,776.037 1729.14,782.853 1739.9,789.842 1750.65,796.91 1761.4,804.118 1772.15,811.398 1782.9,818.837 1793.66,826.379 1804.41,834.049 1815.16,841.798 
  1825.91,849.773 1836.66,857.822 1847.42,865.919 1858.17,874.171 1868.92,882.56 1879.67,891.032 1890.42,899.605 1901.18,908.398 1911.93,917.203 1922.68,926.109 
  1933.43,935.202 1944.18,944.332 1954.94,953.615 1965.69,963.103 1976.44,972.707 1987.19,982.383 1997.94,992.178 2008.69,1002.02 2019.45,1012.07 2030.2,1022.21 
  2040.95,1032.48 2051.7,1042.85 2062.45,1053.36 2073.21,1063.94 2083.96,1074.61 2094.71,1085.48 2105.46,1096.39 2116.21,1107.46 2126.97,1118.62 2137.72,1129.86 
  2148.47,1141.3 2159.22,1152.85 2169.97,1164.48 2180.73,1176.26 2191.48,1188.12 2202.23,1200.14 2212.98,1212.27 2223.73,1224.53 2234.48,1236.89 2245.24,1249.33 
  2255.99,1261.9 2266.74,1274.54 2277.49,1287.27 2288.24,1300.1 2299,1312.9 2309.75,1325.74 2320.5,1338.58 2331.25,1351.13 2342,1363.7 2352.76,1364.11 
  2352.76,1364.11 2342,1329.32 2331.25,1306.71 2320.5,1285.21 2309.75,1264.78 2299,1245.1 2288.24,1226.05 2277.49,1207.49 2266.74,1189.4 2255.99,1171.72 
  2245.24,1154.44 2234.48,1137.44 2223.73,1120.82 2212.98,1104.41 2202.23,1088.33 2191.48,1072.53 2180.73,1056.99 2169.97,1041.68 2159.22,1026.57 2148.47,1011.73 
  2137.72,997.078 2126.97,982.661 2116.21,968.437 2105.46,954.45 2094.71,940.621 2083.96,926.941 2073.21,913.52 2062.45,900.33 2051.7,887.26 2040.95,874.332 
  2030.2,861.568 2019.45,848.99 2008.69,836.604 1997.94,824.357 1987.19,812.311 1976.44,800.432 1965.69,788.711 1954.94,777.188 1944.18,765.838 1933.43,754.636 
  1922.68,743.567 1911.93,732.717 1901.18,722.005 1890.42,711.452 1879.67,701.102 1868.92,690.873 1858.17,680.784 1847.42,670.835 1836.66,660.999 1825.91,651.327 
  1815.16,641.797 1804.41,632.48 1793.66,623.299 1782.9,614.22 1772.15,605.342 1761.4,596.668 1750.65,588.109 1739.9,579.641 1729.14,571.342 1718.39,563.267 
  1707.64,555.255 1696.89,547.457 1686.14,539.832 1675.39,532.349 1664.63,525.035 1653.88,517.838 1643.13,510.818 1632.38,503.94 1621.63,497.15 1610.87,490.555 
  1600.12,484.098 1589.37,477.799 1578.62,471.684 1567.87,465.716 1557.11,459.853 1546.36,454.16 1535.61,448.669 1524.86,443.3 1514.11,438.111 1503.35,433.043 
  1492.6,428.134 1481.85,423.355 1471.1,418.772 1460.35,414.364 1449.6,410.103 1438.84,406.025 1428.09,402.016 1417.34,398.217 1406.59,394.623 1395.84,391.187 
  1385.08,387.833 1374.33,384.711 1363.58,381.793 1352.83,378.936 1342.08,376.307 1331.32,373.852 1320.57,371.504 1309.82,369.402 1299.07,367.452 1288.32,365.645 
  1277.56,364.023 1266.81,362.575 1256.06,361.288 1245.31,360.235 1234.56,359.341 1223.8,358.64 1213.05,358.059 1202.3,357.703 1191.55,357.507 1180.8,357.477 
  1170.05,357.649 1159.29,358.027 1148.54,358.606 1137.79,359.391 1127.04,360.361 1116.29,361.502 1105.53,362.802 1094.78,364.265 1084.03,365.977 1073.28,367.879 
  1062.53,369.988 1051.77,372.285 1041.02,374.773 1030.27,377.444 1019.52,380.319 1008.77,383.417 998.015,386.754 987.263,390.288 976.511,393.931 965.759,397.865 
  955.007,402.022 944.255,406.352 933.503,410.94 922.751,415.78 911.999,420.896 901.247,426.231 890.495,431.731 879.744,437.511 868.992,443.5 858.24,449.703 
  847.488,456.119 836.736,462.773 825.984,469.641 815.232,476.783 804.48,484.209 793.728,491.834 782.976,499.716 772.224,507.892 761.472,516.315 750.721,524.975 
  739.969,533.941 729.217,543.215 718.465,552.703 707.713,562.511 696.961,572.65 686.209,583.04 675.457,593.71 664.705,604.596 653.953,615.779 643.201,627.31 
  632.45,639.121 621.698,651.265 610.946,663.66 600.194,676.424 589.442,689.505 578.69,702.885 567.938,716.586 557.186,730.613 546.434,744.97 535.682,759.712 
  524.93,774.732 514.178,790.114 503.427,805.851 492.675,821.931 481.923,838.423 471.171,855.206 460.419,872.428 449.667,890.046 438.915,908.052 428.163,926.48 
  417.411,945.321 406.659,964.518 395.907,984.152 385.155,1004.19 374.404,1024.72 363.652,1045.69 352.9,1067.11 342.148,1088.97 331.396,1111.28 320.644,1134.08 
  309.892,1157.38 299.14,1181.18 288.388,1205.47 277.636,1230.3 266.884,1255.66 256.132,1281.56 245.381,1308.03 234.629,1335.12 223.877,1364.11 213.125,1388.71 
  
  " fill="#ff0000" fill-rule="evenodd" fill-opacity="0.5"/>
<polyline clip-path="url(#clip6402)" style="stroke:#ff0000; stroke-width:8; stroke-opacity:1; fill:none" points="
  213.125,1388.71 223.877,1364.11 234.629,1340 245.381,1316.36 256.132,1293.2 266.884,1270.5 277.636,1248.26 288.388,1226.47 299.14,1205.11 309.892,1184.16 
  320.644,1163.67 331.396,1143.56 342.148,1123.89 352.9,1104.61 363.652,1085.72 374.404,1067.22 385.155,1049.09 395.907,1031.38 406.659,1014.01 417.411,997.016 
  428.163,980.352 438.915,964.049 449.667,948.094 460.419,932.478 471.171,917.203 481.923,902.286 492.675,887.655 503.427,873.352 514.178,859.364 524.93,845.688 
  535.682,832.344 546.434,819.257 557.186,806.49 567.938,793.997 578.69,781.821 589.442,769.935 600.194,758.309 610.946,746.978 621.698,735.929 632.45,725.112 
  643.201,714.593 653.953,704.313 664.705,694.352 675.457,684.624 686.209,675.17 696.961,665.945 707.713,656.961 718.465,648.262 729.217,639.785 739.969,631.525 
  750.721,623.538 761.472,615.806 772.224,608.296 782.976,601.02 793.728,593.969 804.48,587.185 815.232,580.589 825.984,574.236 836.736,568.072 847.488,562.175 
  858.24,556.457 868.992,550.971 879.744,545.663 890.495,540.582 901.247,535.71 911.999,530.988 922.751,526.489 933.503,522.229 944.255,518.183 955.007,514.372 
  965.759,510.723 976.511,507.241 987.263,503.973 998.015,500.85 1008.77,497.951 1019.52,495.264 1030.27,492.774 1041.02,490.5 1051.77,488.373 1062.53,486.386 
  1073.28,484.637 1084.03,483.025 1094.78,481.598 1105.53,480.393 1116.29,479.33 1127.04,478.407 1137.79,477.644 1148.54,477.078 1159.29,476.722 1170.05,476.486 
  1180.8,476.444 1191.55,476.587 1202.3,476.861 1213.05,477.268 1223.8,477.895 1234.56,478.717 1245.31,479.654 1256.06,480.778 1266.81,482.055 1277.56,483.52 
  1288.32,485.122 1299.07,486.875 1309.82,488.753 1320.57,490.798 1331.32,493.062 1342.08,495.428 1352.83,497.936 1363.58,500.63 1374.33,503.427 1385.08,506.405 
  1395.84,509.555 1406.59,512.794 1417.34,516.208 1428.09,519.802 1438.84,523.569 1449.6,527.379 1460.35,531.375 1471.1,535.501 1481.85,539.798 1492.6,544.261 
  1503.35,548.844 1514.11,553.587 1524.86,558.448 1535.61,563.426 1546.36,568.543 1557.11,573.87 1567.87,579.309 1578.62,584.867 1589.37,590.578 1600.12,596.41 
  1610.87,602.421 1621.63,608.518 1632.38,614.759 1643.13,621.143 1653.88,627.647 1664.63,634.319 1675.39,641.072 1686.14,648.003 1696.89,655.059 1707.64,662.286 
  1718.39,669.652 1729.14,677.097 1739.9,684.742 1750.65,692.509 1761.4,700.393 1772.15,708.37 1782.9,716.528 1793.66,724.839 1804.41,733.265 1815.16,741.798 
  1825.91,750.55 1836.66,759.41 1847.42,768.377 1858.17,777.478 1868.92,786.716 1879.67,796.067 1890.42,805.529 1901.18,815.202 1911.93,824.96 1922.68,834.838 
  1933.43,844.919 1944.18,855.085 1954.94,865.401 1965.69,875.907 1976.44,886.569 1987.19,897.347 1997.94,908.267 2008.69,919.313 2019.45,930.532 2030.2,941.887 
  2040.95,953.406 2051.7,965.055 2062.45,976.846 2073.21,988.73 2083.96,1000.78 2094.71,1013.05 2105.46,1025.42 2116.21,1037.95 2126.97,1050.64 2137.72,1063.47 
  2148.47,1076.52 2159.22,1089.71 2169.97,1103.08 2180.73,1116.62 2191.48,1130.32 2202.23,1144.23 2212.98,1158.34 2223.73,1172.67 2234.48,1187.16 2245.24,1201.88 
  2255.99,1216.81 2266.74,1231.97 2277.49,1247.38 2288.24,1263.07 2299,1279 2309.75,1295.26 2320.5,1311.9 2331.25,1328.92 2342,1346.51 2352.76,1364.11 
  
  "/>
</svg>
