<?xml version="1.0" encoding="utf-8"?>
<svg xmlns="http://www.w3.org/2000/svg" xmlns:xlink="http://www.w3.org/1999/xlink" width="600" height="400" viewBox="0 0 2400 1600">
<defs>
  <clipPath id="clip8400">
    <rect x="0" y="0" width="2400" height="1600"/>
  </clipPath>
</defs>
<polygon clip-path="url(#clip8400)" points="
0,1600 2400,1600 2400,0 0,0 
  " fill="#ffffff" fill-rule="evenodd" fill-opacity="1"/>
<defs>
  <clipPath id="clip8401">
    <rect x="480" y="0" width="1681" height="1600"/>
  </clipPath>
</defs>
<polygon clip-path="url(#clip8400)" points="
202.373,1425.62 2352.76,1425.62 2352.76,121.675 202.373,121.675 
  " fill="#ffffff" fill-rule="evenodd" fill-opacity="1"/>
<defs>
  <clipPath id="clip8402">
    <rect x="202" y="121" width="2151" height="1305"/>
  </clipPath>
</defs>
<polyline clip-path="url(#clip8402)" style="stroke:#000000; stroke-width:2; stroke-opacity:0.1; fill:none" points="
  202.373,1425.62 202.373,121.675 
  "/>
<polyline clip-path="url(#clip8402)" style="stroke:#000000; stroke-width:2; stroke-opacity:0.1; fill:none" points="
  739.969,1425.62 739.969,121.675 
  "/>
<polyline clip-path="url(#clip8402)" style="stroke:#000000; stroke-width:2; stroke-opacity:0.1; fill:none" points="
  1277.56,1425.62 1277.56,121.675 
  "/>
<polyline clip-path="url(#clip8402)" style="stroke:#000000; stroke-width:2; stroke-opacity:0.1; fill:none" points="
  1815.16,1425.62 1815.16,121.675 
  "/>
<polyline clip-path="url(#clip8402)" style="stroke:#000000; stroke-width:2; stroke-opacity:0.1; fill:none" points="
  2352.76,1425.62 2352.76,121.675 
  "/>
<polyline clip-path="url(#clip8402)" style="stroke:#000000; stroke-width:2; stroke-opacity:0.1; fill:none" points="
  202.373,1388.71 2352.76,1388.71 
  "/>
<polyline clip-path="url(#clip8402)" style="stroke:#000000; stroke-width:2; stroke-opacity:0.1; fill:none" points="
  202.373,1115.35 2352.76,1115.35 
  "/>
<polyline clip-path="url(#clip8402)" style="stroke:#000000; stroke-width:2; stroke-opacity:0.1; fill:none" points="
  202.373,841.988 2352.76,841.988 
  "/>
<polyline clip-path="url(#clip8402)" style="stroke:#000000; stroke-width:2; stroke-opacity:0.1; fill:none" points="
  202.373,568.624 2352.76,568.624 
  "/>
<polyline clip-path="url(#clip8402)" style="stroke:#000000; stroke-width:2; stroke-opacity:0.1; fill:none" points="
  202.373,295.261 2352.76,295.261 
  "/>
<polyline clip-path="url(#clip8400)" style="stroke:#000000; stroke-width:4; stroke-opacity:1; fill:none" points="
  202.373,1425.62 2352.76,1425.62 
  "/>
<polyline clip-path="url(#clip8400)" style="stroke:#000000; stroke-width:4; stroke-opacity:1; fill:none" points="
  202.373,1425.62 202.373,121.675 
  "/>
<polyline clip-path="url(#clip8400)" style="stroke:#000000; stroke-width:4; stroke-opacity:1; fill:none" points="
  202.373,1425.62 202.373,1406.06 
  "/>
<polyline clip-path="url(#clip8400)" style="stroke:#000000; stroke-width:4; stroke-opacity:1; fill:none" points="
  739.969,1425.62 739.969,1406.06 
  "/>
<polyline clip-path="url(#clip8400)" style="stroke:#000000; stroke-width:4; stroke-opacity:1; fill:none" points="
  1277.56,1425.62 1277.56,1406.06 
  "/>
<polyline clip-path="url(#clip8400)" style="stroke:#000000; stroke-width:4; stroke-opacity:1; fill:none" points="
  1815.16,1425.62 1815.16,1406.06 
  "/>
<polyline clip-path="url(#clip8400)" style="stroke:#000000; stroke-width:4; stroke-opacity:1; fill:none" points="
  2352.76,1425.62 2352.76,1406.06 
  "/>
<polyline clip-path="url(#clip8400)" style="stroke:#000000; stroke-width:4; stroke-opacity:1; fill:none" points="
  202.373,1388.71 234.629,1388.71 
  "/>
<polyline clip-path="url(#clip8400)" style="stroke:#000000; stroke-width:4; stroke-opacity:1; fill:none" points="
  202.373,1115.35 234.629,1115.35 
  "/>
<polyline clip-path="url(#clip8400)" style="stroke:#000000; stroke-width:4; stroke-opacity:1; fill:none" points="
  202.373,841.988 234.629,841.988 
  "/>
<polyline clip-path="url(#clip8400)" style="stroke:#000000; stroke-width:4; stroke-opacity:1; fill:none" points="
  202.373,568.624 234.629,568.624 
  "/>
<polyline clip-path="url(#clip8400)" style="stroke:#000000; stroke-width:4; stroke-opacity:1; fill:none" points="
  202.373,295.261 234.629,295.261 
  "/>
<g clip-path="url(#clip8400)">
<text style="fill:#000000; fill-opacity:1; font-family:Arial,Helvetica Neue,Helvetica,sans-serif; font-size:48px; text-anchor:middle;" transform="rotate(0, 202.373, 1479.62)" x="202.373" y="1479.62">0</text>
</g>
<g clip-path="url(#clip8400)">
<text style="fill:#000000; fill-opacity:1; font-family:Arial,Helvetica Neue,Helvetica,sans-serif; font-size:48px; text-anchor:middle;" transform="rotate(0, 739.969, 1479.62)" x="739.969" y="1479.62">50</text>
</g>
<g clip-path="url(#clip8400)">
<text style="fill:#000000; fill-opacity:1; font-family:Arial,Helvetica Neue,Helvetica,sans-serif; font-size:48px; text-anchor:middle;" transform="rotate(0, 1277.56, 1479.62)" x="1277.56" y="1479.62">100</text>
</g>
<g clip-path="url(#clip8400)">
<text style="fill:#000000; fill-opacity:1; font-family:Arial,Helvetica Neue,Helvetica,sans-serif; font-size:48px; text-anchor:middle;" transform="rotate(0, 1815.16, 1479.62)" x="1815.16" y="1479.62">150</text>
</g>
<g clip-path="url(#clip8400)">
<text style="fill:#000000; fill-opacity:1; font-family:Arial,Helvetica Neue,Helvetica,sans-serif; font-size:48px; text-anchor:middle;" transform="rotate(0, 2352.76, 1479.62)" x="2352.76" y="1479.62">200</text>
</g>
<g clip-path="url(#clip8400)">
<text style="fill:#000000; fill-opacity:1; font-family:Arial,Helvetica Neue,Helvetica,sans-serif; font-size:48px; text-anchor:end;" transform="rotate(0, 178.373, 1406.21)" x="178.373" y="1406.21">0</text>
</g>
<g clip-path="url(#clip8400)">
<text style="fill:#000000; fill-opacity:1; font-family:Arial,Helvetica Neue,Helvetica,sans-serif; font-size:48px; text-anchor:end;" transform="rotate(0, 178.373, 1132.85)" x="178.373" y="1132.85">10</text>
</g>
<g clip-path="url(#clip8400)">
<text style="fill:#000000; fill-opacity:1; font-family:Arial,Helvetica Neue,Helvetica,sans-serif; font-size:48px; text-anchor:end;" transform="rotate(0, 178.373, 859.488)" x="178.373" y="859.488">20</text>
</g>
<g clip-path="url(#clip8400)">
<text style="fill:#000000; fill-opacity:1; font-family:Arial,Helvetica Neue,Helvetica,sans-serif; font-size:48px; text-anchor:end;" transform="rotate(0, 178.373, 586.124)" x="178.373" y="586.124">30</text>
</g>
<g clip-path="url(#clip8400)">
<text style="fill:#000000; fill-opacity:1; font-family:Arial,Helvetica Neue,Helvetica,sans-serif; font-size:48px; text-anchor:end;" transform="rotate(0, 178.373, 312.761)" x="178.373" y="312.761">40</text>
</g>
<g clip-path="url(#clip8400)">
<text style="fill:#000000; fill-opacity:1; font-family:Arial,Helvetica Neue,Helvetica,sans-serif; font-size:84px; text-anchor:middle;" transform="rotate(0, 1277.56, 73.2)" x="1277.56" y="73.2">halves</text>
</g>
<g clip-path="url(#clip8400)">
<text style="fill:#000000; fill-opacity:1; font-family:Arial,Helvetica Neue,Helvetica,sans-serif; font-size:66px; text-anchor:middle;" transform="rotate(0, 1277.56, 1559.48)" x="1277.56" y="1559.48">day</text>
</g>
<g clip-path="url(#clip8400)">
<text style="fill:#000000; fill-opacity:1; font-family:Arial,Helvetica Neue,Helvetica,sans-serif; font-size:66px; text-anchor:middle;" transform="rotate(-90, 89.2861, 773.647)" x="89.2861" y="773.647">n</text>
</g>
<polyline clip-path="url(#clip8402)" style="stroke:#009af9; stroke-width:4; stroke-opacity:0.5; fill:none" points="
  213.125,1388.71 223.877,1361.38 234.629,1334.04 245.381,1306.71 256.132,1279.37 266.884,1252.03 277.636,1224.7 288.388,1197.36 299.14,1170.02 309.892,1142.69 
  320.644,1115.35 331.396,1142.69 342.148,1115.35 352.9,1088.01 363.652,1060.68 374.404,1033.34 385.155,1006.01 395.907,978.669 406.659,951.333 417.411,923.997 
  428.163,896.66 438.915,869.324 449.667,841.988 460.419,814.651 471.171,787.315 481.923,814.651 492.675,787.315 503.427,759.979 514.178,732.642 524.93,705.306 
  535.682,677.97 546.434,705.306 557.186,677.97 567.938,705.306 578.69,677.97 589.442,650.633 600.194,677.97 610.946,705.306 621.698,732.642 632.45,705.306 
  643.201,677.97 653.953,650.633 664.705,677.97 675.457,650.633 686.209,623.297 696.961,595.961 707.713,568.624 718.465,541.288 729.217,568.624 739.969,541.288 
  750.721,513.952 761.472,541.288 772.224,568.624 782.976,541.288 793.728,513.952 804.48,541.288 815.232,568.624 825.984,595.961 836.736,568.624 847.488,541.288 
  858.24,513.952 868.992,486.615 879.744,459.279 890.495,486.615 901.247,459.279 911.999,431.943 922.751,459.279 933.503,431.943 944.255,459.279 955.007,486.615 
  965.759,513.952 976.511,486.615 987.263,459.279 998.015,486.615 1008.77,513.952 1019.52,541.288 1030.27,568.624 1041.02,541.288 1051.77,513.952 1062.53,486.615 
  1073.28,459.279 1084.03,431.943 1094.78,404.606 1105.53,377.27 1116.29,349.934 1127.04,322.597 1137.79,295.261 1148.54,267.925 1159.29,240.588 1170.05,213.252 
  1180.8,185.916 1191.55,213.252 1202.3,185.916 1213.05,213.252 1223.8,185.916 1234.56,213.252 1245.31,240.588 1256.06,267.925 1266.81,295.261 1277.56,322.597 
  1288.32,349.934 1299.07,322.597 1309.82,349.934 1320.57,322.597 1331.32,349.934 1342.08,377.27 1352.83,404.606 1363.58,377.27 1374.33,404.606 1385.08,431.943 
  1395.84,404.606 1406.59,377.27 1417.34,404.606 1428.09,431.943 1438.84,459.279 1449.6,431.943 1460.35,404.606 1471.1,431.943 1481.85,404.606 1492.6,431.943 
  1503.35,404.606 1514.11,377.27 1524.86,349.934 1535.61,377.27 1546.36,404.606 1557.11,377.27 1567.87,404.606 1578.62,377.27 1589.37,404.606 1600.12,377.27 
  1610.87,404.606 1621.63,431.943 1632.38,459.279 1643.13,431.943 1653.88,404.606 1664.63,431.943 1675.39,404.606 1686.14,431.943 1696.89,459.279 1707.64,431.943 
  1718.39,459.279 1729.14,486.615 1739.9,513.952 1750.65,541.288 1761.4,568.624 1772.15,541.288 1782.9,568.624 1793.66,595.961 1804.41,568.624 1815.16,595.961 
  1825.91,623.297 1836.66,595.961 1847.42,623.297 1858.17,650.633 1868.92,677.97 1879.67,705.306 1890.42,677.97 1901.18,705.306 1911.93,732.642 1922.68,759.979 
  1933.43,787.315 1944.18,814.651 1954.94,841.988 1965.69,814.651 1976.44,841.988 1987.19,869.324 1997.94,841.988 2008.69,814.651 2019.45,841.988 2030.2,814.651 
  2040.95,841.988 2051.7,869.324 2062.45,896.66 2073.21,869.324 2083.96,841.988 2094.71,869.324 2105.46,896.66 2116.21,923.997 2126.97,951.333 2137.72,978.669 
  2148.47,1006.01 2159.22,1033.34 2169.97,1006.01 2180.73,1033.34 2191.48,1060.68 2202.23,1088.01 2212.98,1115.35 2223.73,1142.69 2234.48,1170.02 2245.24,1197.36 
  2255.99,1170.02 2266.74,1142.69 2277.49,1170.02 2288.24,1197.36 2299,1224.7 2309.75,1252.03 2320.5,1279.37 2331.25,1306.71 2342,1334.04 2352.76,1361.38 
  
  "/>
<polyline clip-path="url(#clip8402)" style="stroke:#e26f46; stroke-width:4; stroke-opacity:0.5; fill:none" points="
  213.125,1388.71 223.877,1361.38 234.629,1334.04 245.381,1306.71 256.132,1279.37 266.884,1252.03 277.636,1224.7 288.388,1197.36 299.14,1170.02 309.892,1142.69 
  320.644,1115.35 331.396,1088.01 342.148,1060.68 352.9,1033.34 363.652,1060.68 374.404,1033.34 385.155,1006.01 395.907,978.669 406.659,951.333 417.411,923.997 
  428.163,896.66 438.915,869.324 449.667,841.988 460.419,814.651 471.171,787.315 481.923,759.979 492.675,732.642 503.427,705.306 514.178,677.97 524.93,650.633 
  535.682,623.297 546.434,650.633 557.186,677.97 567.938,650.633 578.69,623.297 589.442,595.961 600.194,568.624 610.946,541.288 621.698,513.952 632.45,541.288 
  643.201,513.952 653.953,541.288 664.705,513.952 675.457,486.615 686.209,513.952 696.961,541.288 707.713,513.952 718.465,541.288 729.217,568.624 739.969,595.961 
  750.721,568.624 761.472,595.961 772.224,568.624 782.976,541.288 793.728,568.624 804.48,541.288 815.232,568.624 825.984,541.288 836.736,513.952 847.488,541.288 
  858.24,513.952 868.992,541.288 879.744,513.952 890.495,486.615 901.247,513.952 911.999,486.615 922.751,459.279 933.503,431.943 944.255,404.606 955.007,377.27 
  965.759,404.606 976.511,431.943 987.263,404.606 998.015,377.27 1008.77,404.606 1019.52,431.943 1030.27,459.279 1041.02,486.615 1051.77,459.279 1062.53,486.615 
  1073.28,513.952 1084.03,486.615 1094.78,513.952 1105.53,486.615 1116.29,459.279 1127.04,431.943 1137.79,459.279 1148.54,486.615 1159.29,459.279 1170.05,486.615 
  1180.8,459.279 1191.55,431.943 1202.3,404.606 1213.05,377.27 1223.8,404.606 1234.56,377.27 1245.31,404.606 1256.06,431.943 1266.81,404.606 1277.56,431.943 
  1288.32,459.279 1299.07,486.615 1309.82,459.279 1320.57,431.943 1331.32,459.279 1342.08,486.615 1352.83,513.952 1363.58,486.615 1374.33,459.279 1385.08,431.943 
  1395.84,404.606 1406.59,431.943 1417.34,459.279 1428.09,431.943 1438.84,459.279 1449.6,431.943 1460.35,404.606 1471.1,377.27 1481.85,404.606 1492.6,431.943 
  1503.35,459.279 1514.11,431.943 1524.86,404.606 1535.61,431.943 1546.36,404.606 1557.11,431.943 1567.87,404.606 1578.62,377.27 1589.37,349.934 1600.12,322.597 
  1610.87,349.934 1621.63,377.27 1632.38,404.606 1643.13,377.27 1653.88,404.606 1664.63,377.27 1675.39,349.934 1686.14,377.27 1696.89,404.606 1707.64,431.943 
  1718.39,459.279 1729.14,431.943 1739.9,459.279 1750.65,431.943 1761.4,459.279 1772.15,486.615 1782.9,513.952 1793.66,541.288 1804.41,568.624 1815.16,595.961 
  1825.91,623.297 1836.66,650.633 1847.42,623.297 1858.17,595.961 1868.92,568.624 1879.67,595.961 1890.42,623.297 1901.18,650.633 1911.93,677.97 1922.68,705.306 
  1933.43,732.642 1944.18,705.306 1954.94,732.642 1965.69,759.979 1976.44,787.315 1987.19,814.651 1997.94,841.988 2008.69,814.651 2019.45,787.315 2030.2,814.651 
  2040.95,841.988 2051.7,869.324 2062.45,841.988 2073.21,814.651 2083.96,787.315 2094.71,814.651 2105.46,841.988 2116.21,869.324 2126.97,896.66 2137.72,923.997 
  2148.47,951.333 2159.22,978.669 2169.97,1006.01 2180.73,1033.34 2191.48,1006.01 2202.23,1033.34 2212.98,1060.68 2223.73,1088.01 2234.48,1115.35 2245.24,1142.69 
  2255.99,1170.02 2266.74,1197.36 2277.49,1224.7 2288.24,1197.36 2299,1224.7 2309.75,1252.03 2320.5,1279.37 2331.25,1306.71 2342,1334.04 2352.76,1361.38 
  
  "/>
<polyline clip-path="url(#clip8402)" style="stroke:#3da44d; stroke-width:4; stroke-opacity:0.5; fill:none" points="
  213.125,1388.71 223.877,1361.38 234.629,1334.04 245.381,1306.71 256.132,1279.37 266.884,1252.03 277.636,1279.37 288.388,1252.03 299.14,1224.7 309.892,1197.36 
  320.644,1170.02 331.396,1142.69 342.148,1115.35 352.9,1088.01 363.652,1060.68 374.404,1033.34 385.155,1006.01 395.907,1033.34 406.659,1006.01 417.411,978.669 
  428.163,951.333 438.915,923.997 449.667,896.66 460.419,869.324 471.171,896.66 481.923,869.324 492.675,841.988 503.427,869.324 514.178,841.988 524.93,869.324 
  535.682,841.988 546.434,869.324 557.186,841.988 567.938,814.651 578.69,787.315 589.442,759.979 600.194,787.315 610.946,759.979 621.698,732.642 632.45,705.306 
  643.201,677.97 653.953,705.306 664.705,677.97 675.457,650.633 686.209,623.297 696.961,595.961 707.713,568.624 718.465,541.288 729.217,513.952 739.969,486.615 
  750.721,459.279 761.472,431.943 772.224,404.606 782.976,431.943 793.728,459.279 804.48,486.615 815.232,513.952 825.984,486.615 836.736,459.279 847.488,431.943 
  858.24,459.279 868.992,431.943 879.744,404.606 890.495,377.27 901.247,349.934 911.999,377.27 922.751,404.606 933.503,377.27 944.255,349.934 955.007,377.27 
  965.759,404.606 976.511,431.943 987.263,459.279 998.015,431.943 1008.77,459.279 1019.52,431.943 1030.27,459.279 1041.02,486.615 1051.77,459.279 1062.53,486.615 
  1073.28,459.279 1084.03,486.615 1094.78,459.279 1105.53,431.943 1116.29,404.606 1127.04,431.943 1137.79,404.606 1148.54,377.27 1159.29,404.606 1170.05,431.943 
  1180.8,404.606 1191.55,377.27 1202.3,349.934 1213.05,322.597 1223.8,349.934 1234.56,377.27 1245.31,404.606 1256.06,377.27 1266.81,349.934 1277.56,377.27 
  1288.32,404.606 1299.07,431.943 1309.82,459.279 1320.57,431.943 1331.32,459.279 1342.08,486.615 1352.83,459.279 1363.58,486.615 1374.33,459.279 1385.08,486.615 
  1395.84,459.279 1406.59,431.943 1417.34,404.606 1428.09,431.943 1438.84,404.606 1449.6,377.27 1460.35,404.606 1471.1,431.943 1481.85,459.279 1492.6,486.615 
  1503.35,513.952 1514.11,486.615 1524.86,513.952 1535.61,541.288 1546.36,568.624 1557.11,541.288 1567.87,513.952 1578.62,541.288 1589.37,568.624 1600.12,595.961 
  1610.87,623.297 1621.63,595.961 1632.38,623.297 1643.13,595.961 1653.88,623.297 1664.63,595.961 1675.39,568.624 1686.14,595.961 1696.89,623.297 1707.64,650.633 
  1718.39,623.297 1729.14,650.633 1739.9,677.97 1750.65,650.633 1761.4,677.97 1772.15,650.633 1782.9,677.97 1793.66,705.306 1804.41,732.642 1815.16,759.979 
  1825.91,732.642 1836.66,705.306 1847.42,677.97 1858.17,705.306 1868.92,732.642 1879.67,705.306 1890.42,732.642 1901.18,759.979 1911.93,787.315 1922.68,814.651 
  1933.43,841.988 1944.18,869.324 1954.94,896.66 1965.69,869.324 1976.44,896.66 1987.19,923.997 1997.94,951.333 2008.69,978.669 2019.45,951.333 2030.2,978.669 
  2040.95,1006.01 2051.7,1033.34 2062.45,1060.68 2073.21,1088.01 2083.96,1060.68 2094.71,1033.34 2105.46,1060.68 2116.21,1033.34 2126.97,1060.68 2137.72,1088.01 
  2148.47,1115.35 2159.22,1142.69 2169.97,1115.35 2180.73,1142.69 2191.48,1170.02 2202.23,1142.69 2212.98,1115.35 2223.73,1142.69 2234.48,1170.02 2245.24,1142.69 
  2255.99,1170.02 2266.74,1197.36 2277.49,1224.7 2288.24,1252.03 2299,1279.37 2309.75,1252.03 2320.5,1279.37 2331.25,1306.71 2342,1334.04 2352.76,1361.38 
  
  "/>
<polyline clip-path="url(#clip8402)" style="stroke:#c271d2; stroke-width:4; stroke-opacity:0.5; fill:none" points="
  213.125,1388.71 223.877,1361.38 234.629,1334.04 245.381,1306.71 256.132,1279.37 266.884,1252.03 277.636,1224.7 288.388,1197.36 299.14,1170.02 309.892,1142.69 
  320.644,1115.35 331.396,1088.01 342.148,1060.68 352.9,1033.34 363.652,1060.68 374.404,1088.01 385.155,1060.68 395.907,1033.34 406.659,1006.01 417.411,978.669 
  428.163,951.333 438.915,923.997 449.667,951.333 460.419,978.669 471.171,951.333 481.923,978.669 492.675,1006.01 503.427,978.669 514.178,951.333 524.93,923.997 
  535.682,896.66 546.434,869.324 557.186,841.988 567.938,814.651 578.69,841.988 589.442,814.651 600.194,787.315 610.946,759.979 621.698,787.315 632.45,759.979 
  643.201,787.315 653.953,759.979 664.705,732.642 675.457,759.979 686.209,732.642 696.961,705.306 707.713,677.97 718.465,705.306 729.217,732.642 739.969,705.306 
  750.721,677.97 761.472,705.306 772.224,677.97 782.976,705.306 793.728,677.97 804.48,705.306 815.232,677.97 825.984,650.633 836.736,623.297 847.488,595.961 
  858.24,568.624 868.992,595.961 879.744,568.624 890.495,595.961 901.247,568.624 911.999,541.288 922.751,513.952 933.503,541.288 944.255,568.624 955.007,541.288 
  965.759,513.952 976.511,486.615 987.263,459.279 998.015,486.615 1008.77,513.952 1019.52,486.615 1030.27,513.952 1041.02,541.288 1051.77,513.952 1062.53,486.615 
  1073.28,513.952 1084.03,486.615 1094.78,513.952 1105.53,541.288 1116.29,513.952 1127.04,486.615 1137.79,459.279 1148.54,486.615 1159.29,513.952 1170.05,486.615 
  1180.8,459.279 1191.55,431.943 1202.3,459.279 1213.05,486.615 1223.8,513.952 1234.56,541.288 1245.31,513.952 1256.06,541.288 1266.81,513.952 1277.56,486.615 
  1288.32,513.952 1299.07,486.615 1309.82,459.279 1320.57,431.943 1331.32,404.606 1342.08,431.943 1352.83,404.606 1363.58,431.943 1374.33,459.279 1385.08,486.615 
  1395.84,459.279 1406.59,486.615 1417.34,459.279 1428.09,431.943 1438.84,404.606 1449.6,431.943 1460.35,459.279 1471.1,431.943 1481.85,459.279 1492.6,431.943 
  1503.35,404.606 1514.11,377.27 1524.86,404.606 1535.61,431.943 1546.36,459.279 1557.11,486.615 1567.87,513.952 1578.62,541.288 1589.37,568.624 1600.12,595.961 
  1610.87,623.297 1621.63,595.961 1632.38,623.297 1643.13,595.961 1653.88,568.624 1664.63,541.288 1675.39,513.952 1686.14,486.615 1696.89,459.279 1707.64,486.615 
  1718.39,513.952 1729.14,541.288 1739.9,568.624 1750.65,595.961 1761.4,623.297 1772.15,595.961 1782.9,623.297 1793.66,595.961 1804.41,623.297 1815.16,650.633 
  1825.91,623.297 1836.66,650.633 1847.42,623.297 1858.17,650.633 1868.92,677.97 1879.67,650.633 1890.42,677.97 1901.18,650.633 1911.93,677.97 1922.68,705.306 
  1933.43,732.642 1944.18,705.306 1954.94,677.97 1965.69,705.306 1976.44,677.97 1987.19,650.633 1997.94,677.97 2008.69,705.306 2019.45,732.642 2030.2,759.979 
  2040.95,787.315 2051.7,759.979 2062.45,787.315 2073.21,814.651 2083.96,841.988 2094.71,869.324 2105.46,896.66 2116.21,869.324 2126.97,896.66 2137.72,923.997 
  2148.47,951.333 2159.22,978.669 2169.97,951.333 2180.73,978.669 2191.48,1006.01 2202.23,1033.34 2212.98,1060.68 2223.73,1088.01 2234.48,1115.35 2245.24,1142.69 
  2255.99,1170.02 2266.74,1197.36 2277.49,1224.7 2288.24,1252.03 2299,1279.37 2309.75,1306.71 2320.5,1279.37 2331.25,1306.71 2342,1334.04 2352.76,1361.38 
  
  "/>
<polyline clip-path="url(#clip8402)" style="stroke:#ac8d18; stroke-width:4; stroke-opacity:0.5; fill:none" points="
  213.125,1388.71 223.877,1361.38 234.629,1334.04 245.381,1306.71 256.132,1279.37 266.884,1252.03 277.636,1224.7 288.388,1197.36 299.14,1170.02 309.892,1142.69 
  320.644,1115.35 331.396,1088.01 342.148,1060.68 352.9,1033.34 363.652,1006.01 374.404,978.669 385.155,951.333 395.907,923.997 406.659,896.66 417.411,923.997 
  428.163,896.66 438.915,869.324 449.667,896.66 460.419,869.324 471.171,841.988 481.923,814.651 492.675,787.315 503.427,759.979 514.178,732.642 524.93,759.979 
  535.682,787.315 546.434,814.651 557.186,787.315 567.938,814.651 578.69,787.315 589.442,814.651 600.194,787.315 610.946,759.979 621.698,787.315 632.45,759.979 
  643.201,732.642 653.953,705.306 664.705,677.97 675.457,650.633 686.209,623.297 696.961,595.961 707.713,623.297 718.465,595.961 729.217,568.624 739.969,541.288 
  750.721,513.952 761.472,486.615 772.224,513.952 782.976,541.288 793.728,513.952 804.48,541.288 815.232,513.952 825.984,541.288 836.736,513.952 847.488,486.615 
  858.24,513.952 868.992,541.288 879.744,568.624 890.495,595.961 901.247,568.624 911.999,595.961 922.751,568.624 933.503,541.288 944.255,513.952 955.007,486.615 
  965.759,513.952 976.511,486.615 987.263,459.279 998.015,486.615 1008.77,459.279 1019.52,431.943 1030.27,459.279 1041.02,431.943 1051.77,459.279 1062.53,431.943 
  1073.28,404.606 1084.03,431.943 1094.78,459.279 1105.53,431.943 1116.29,404.606 1127.04,377.27 1137.79,404.606 1148.54,431.943 1159.29,404.606 1170.05,377.27 
  1180.8,349.934 1191.55,322.597 1202.3,349.934 1213.05,322.597 1223.8,349.934 1234.56,322.597 1245.31,349.934 1256.06,377.27 1266.81,404.606 1277.56,377.27 
  1288.32,349.934 1299.07,377.27 1309.82,349.934 1320.57,322.597 1331.32,349.934 1342.08,377.27 1352.83,404.606 1363.58,431.943 1374.33,404.606 1385.08,431.943 
  1395.84,459.279 1406.59,486.615 1417.34,513.952 1428.09,541.288 1438.84,568.624 1449.6,595.961 1460.35,623.297 1471.1,650.633 1481.85,677.97 1492.6,705.306 
  1503.35,732.642 1514.11,705.306 1524.86,677.97 1535.61,650.633 1546.36,677.97 1557.11,705.306 1567.87,677.97 1578.62,705.306 1589.37,732.642 1600.12,705.306 
  1610.87,732.642 1621.63,705.306 1632.38,677.97 1643.13,650.633 1653.88,623.297 1664.63,650.633 1675.39,677.97 1686.14,705.306 1696.89,677.97 1707.64,705.306 
  1718.39,732.642 1729.14,759.979 1739.9,732.642 1750.65,759.979 1761.4,787.315 1772.15,759.979 1782.9,787.315 1793.66,814.651 1804.41,841.988 1815.16,814.651 
  1825.91,841.988 1836.66,814.651 1847.42,841.988 1858.17,814.651 1868.92,841.988 1879.67,869.324 1890.42,841.988 1901.18,869.324 1911.93,896.66 1922.68,923.997 
  1933.43,951.333 1944.18,923.997 1954.94,951.333 1965.69,978.669 1976.44,951.333 1987.19,923.997 1997.94,951.333 2008.69,978.669 2019.45,1006.01 2030.2,1033.34 
  2040.95,1060.68 2051.7,1088.01 2062.45,1060.68 2073.21,1033.34 2083.96,1060.68 2094.71,1088.01 2105.46,1115.35 2116.21,1088.01 2126.97,1060.68 2137.72,1088.01 
  2148.47,1115.35 2159.22,1142.69 2169.97,1170.02 2180.73,1197.36 2191.48,1170.02 2202.23,1197.36 2212.98,1224.7 2223.73,1252.03 2234.48,1279.37 2245.24,1252.03 
  2255.99,1224.7 2266.74,1252.03 2277.49,1279.37 2288.24,1306.71 2299,1334.04 2309.75,1306.71 2320.5,1334.04 2331.25,1306.71 2342,1334.04 2352.76,1361.38 
  
  "/>
<polyline clip-path="url(#clip8402)" style="stroke:#00a9ad; stroke-width:4; stroke-opacity:0.5; fill:none" points="
  213.125,1388.71 223.877,1361.38 234.629,1334.04 245.381,1306.71 256.132,1279.37 266.884,1252.03 277.636,1224.7 288.388,1197.36 299.14,1170.02 309.892,1142.69 
  320.644,1115.35 331.396,1142.69 342.148,1115.35 352.9,1088.01 363.652,1060.68 374.404,1033.34 385.155,1006.01 395.907,978.669 406.659,1006.01 417.411,978.669 
  428.163,951.333 438.915,923.997 449.667,896.66 460.419,869.324 471.171,841.988 481.923,869.324 492.675,841.988 503.427,814.651 514.178,787.315 524.93,759.979 
  535.682,732.642 546.434,705.306 557.186,677.97 567.938,650.633 578.69,623.297 589.442,595.961 600.194,568.624 610.946,541.288 621.698,513.952 632.45,486.615 
  643.201,459.279 653.953,431.943 664.705,459.279 675.457,486.615 686.209,513.952 696.961,486.615 707.713,513.952 718.465,486.615 729.217,459.279 739.969,431.943 
  750.721,404.606 761.472,377.27 772.224,404.606 782.976,377.27 793.728,349.934 804.48,322.597 815.232,295.261 825.984,267.925 836.736,295.261 847.488,322.597 
  858.24,349.934 868.992,322.597 879.744,349.934 890.495,377.27 901.247,404.606 911.999,431.943 922.751,404.606 933.503,377.27 944.255,349.934 955.007,377.27 
  965.759,404.606 976.511,431.943 987.263,459.279 998.015,431.943 1008.77,459.279 1019.52,431.943 1030.27,404.606 1041.02,377.27 1051.77,349.934 1062.53,322.597 
  1073.28,349.934 1084.03,322.597 1094.78,295.261 1105.53,267.925 1116.29,240.588 1127.04,213.252 1137.79,240.588 1148.54,267.925 1159.29,295.261 1170.05,322.597 
  1180.8,349.934 1191.55,322.597 1202.3,295.261 1213.05,322.597 1223.8,295.261 1234.56,322.597 1245.31,295.261 1256.06,322.597 1266.81,295.261 1277.56,322.597 
  1288.32,349.934 1299.07,322.597 1309.82,295.261 1320.57,267.925 1331.32,240.588 1342.08,213.252 1352.83,185.916 1363.58,158.579 1374.33,185.916 1385.08,213.252 
  1395.84,240.588 1406.59,267.925 1417.34,240.588 1428.09,213.252 1438.84,240.588 1449.6,267.925 1460.35,240.588 1471.1,213.252 1481.85,240.588 1492.6,267.925 
  1503.35,240.588 1514.11,267.925 1524.86,295.261 1535.61,322.597 1546.36,349.934 1557.11,377.27 1567.87,404.606 1578.62,377.27 1589.37,404.606 1600.12,431.943 
  1610.87,404.606 1621.63,377.27 1632.38,349.934 1643.13,322.597 1653.88,349.934 1664.63,377.27 1675.39,404.606 1686.14,431.943 1696.89,459.279 1707.64,486.615 
  1718.39,513.952 1729.14,486.615 1739.9,459.279 1750.65,431.943 1761.4,459.279 1772.15,431.943 1782.9,404.606 1793.66,431.943 1804.41,404.606 1815.16,431.943 
  1825.91,459.279 1836.66,486.615 1847.42,513.952 1858.17,541.288 1868.92,568.624 1879.67,595.961 1890.42,623.297 1901.18,650.633 1911.93,677.97 1922.68,705.306 
  1933.43,677.97 1944.18,705.306 1954.94,732.642 1965.69,705.306 1976.44,732.642 1987.19,705.306 1997.94,732.642 2008.69,705.306 2019.45,732.642 2030.2,759.979 
  2040.95,732.642 2051.7,705.306 2062.45,732.642 2073.21,759.979 2083.96,787.315 2094.71,814.651 2105.46,841.988 2116.21,869.324 2126.97,896.66 2137.72,923.997 
  2148.47,951.333 2159.22,978.669 2169.97,951.333 2180.73,978.669 2191.48,1006.01 2202.23,1033.34 2212.98,1060.68 2223.73,1088.01 2234.48,1115.35 2245.24,1142.69 
  2255.99,1170.02 2266.74,1197.36 2277.49,1224.7 2288.24,1252.03 2299,1224.7 2309.75,1252.03 2320.5,1279.37 2331.25,1306.71 2342,1334.04 2352.76,1361.38 
  
  "/>
<polyline clip-path="url(#clip8402)" style="stroke:#ed5d92; stroke-width:4; stroke-opacity:0.5; fill:none" points="
  213.125,1388.71 223.877,1361.38 234.629,1334.04 245.381,1306.71 256.132,1279.37 266.884,1252.03 277.636,1224.7 288.388,1197.36 299.14,1170.02 309.892,1142.69 
  320.644,1115.35 331.396,1088.01 342.148,1060.68 352.9,1033.34 363.652,1006.01 374.404,1033.34 385.155,1006.01 395.907,978.669 406.659,1006.01 417.411,978.669 
  428.163,951.333 438.915,923.997 449.667,896.66 460.419,869.324 471.171,841.988 481.923,814.651 492.675,787.315 503.427,759.979 514.178,732.642 524.93,705.306 
  535.682,677.97 546.434,650.633 557.186,623.297 567.938,595.961 578.69,568.624 589.442,595.961 600.194,568.624 610.946,541.288 621.698,513.952 632.45,486.615 
  643.201,513.952 653.953,486.615 664.705,459.279 675.457,431.943 686.209,404.606 696.961,377.27 707.713,404.606 718.465,377.27 729.217,349.934 739.969,377.27 
  750.721,349.934 761.472,322.597 772.224,295.261 782.976,322.597 793.728,349.934 804.48,377.27 815.232,349.934 825.984,322.597 836.736,349.934 847.488,377.27 
  858.24,404.606 868.992,377.27 879.744,404.606 890.495,377.27 901.247,349.934 911.999,377.27 922.751,349.934 933.503,377.27 944.255,404.606 955.007,377.27 
  965.759,404.606 976.511,431.943 987.263,459.279 998.015,486.615 1008.77,513.952 1019.52,486.615 1030.27,459.279 1041.02,431.943 1051.77,404.606 1062.53,377.27 
  1073.28,349.934 1084.03,377.27 1094.78,349.934 1105.53,322.597 1116.29,295.261 1127.04,267.925 1137.79,295.261 1148.54,267.925 1159.29,295.261 1170.05,267.925 
  1180.8,295.261 1191.55,322.597 1202.3,295.261 1213.05,267.925 1223.8,240.588 1234.56,213.252 1245.31,185.916 1256.06,213.252 1266.81,240.588 1277.56,213.252 
  1288.32,240.588 1299.07,213.252 1309.82,185.916 1320.57,213.252 1331.32,185.916 1342.08,213.252 1352.83,185.916 1363.58,213.252 1374.33,240.588 1385.08,267.925 
  1395.84,240.588 1406.59,213.252 1417.34,185.916 1428.09,213.252 1438.84,240.588 1449.6,213.252 1460.35,185.916 1471.1,213.252 1481.85,240.588 1492.6,267.925 
  1503.35,295.261 1514.11,322.597 1524.86,349.934 1535.61,322.597 1546.36,295.261 1557.11,267.925 1567.87,295.261 1578.62,322.597 1589.37,349.934 1600.12,377.27 
  1610.87,349.934 1621.63,377.27 1632.38,349.934 1643.13,377.27 1653.88,349.934 1664.63,377.27 1675.39,404.606 1686.14,431.943 1696.89,459.279 1707.64,431.943 
  1718.39,459.279 1729.14,486.615 1739.9,513.952 1750.65,541.288 1761.4,513.952 1772.15,541.288 1782.9,513.952 1793.66,541.288 1804.41,513.952 1815.16,486.615 
  1825.91,513.952 1836.66,541.288 1847.42,568.624 1858.17,595.961 1868.92,623.297 1879.67,650.633 1890.42,677.97 1901.18,705.306 1911.93,677.97 1922.68,705.306 
  1933.43,732.642 1944.18,759.979 1954.94,732.642 1965.69,759.979 1976.44,787.315 1987.19,814.651 1997.94,787.315 2008.69,759.979 2019.45,732.642 2030.2,759.979 
  2040.95,787.315 2051.7,814.651 2062.45,841.988 2073.21,869.324 2083.96,896.66 2094.71,869.324 2105.46,896.66 2116.21,923.997 2126.97,951.333 2137.72,978.669 
  2148.47,1006.01 2159.22,978.669 2169.97,1006.01 2180.73,1033.34 2191.48,1060.68 2202.23,1033.34 2212.98,1060.68 2223.73,1033.34 2234.48,1060.68 2245.24,1088.01 
  2255.99,1115.35 2266.74,1142.69 2277.49,1170.02 2288.24,1197.36 2299,1224.7 2309.75,1252.03 2320.5,1279.37 2331.25,1306.71 2342,1334.04 2352.76,1361.38 
  
  "/>
<polyline clip-path="url(#clip8402)" style="stroke:#c68125; stroke-width:4; stroke-opacity:0.5; fill:none" points="
  213.125,1388.71 223.877,1361.38 234.629,1334.04 245.381,1306.71 256.132,1279.37 266.884,1252.03 277.636,1224.7 288.388,1197.36 299.14,1170.02 309.892,1197.36 
  320.644,1170.02 331.396,1142.69 342.148,1115.35 352.9,1142.69 363.652,1115.35 374.404,1088.01 385.155,1060.68 395.907,1033.34 406.659,1006.01 417.411,978.669 
  428.163,951.333 438.915,978.669 449.667,951.333 460.419,923.997 471.171,896.66 481.923,869.324 492.675,841.988 503.427,869.324 514.178,841.988 524.93,814.651 
  535.682,841.988 546.434,814.651 557.186,787.315 567.938,759.979 578.69,732.642 589.442,705.306 600.194,677.97 610.946,705.306 621.698,732.642 632.45,759.979 
  643.201,732.642 653.953,759.979 664.705,787.315 675.457,759.979 686.209,732.642 696.961,705.306 707.713,732.642 718.465,759.979 729.217,732.642 739.969,705.306 
  750.721,677.97 761.472,650.633 772.224,677.97 782.976,650.633 793.728,623.297 804.48,595.961 815.232,623.297 825.984,650.633 836.736,677.97 847.488,650.633 
  858.24,623.297 868.992,595.961 879.744,568.624 890.495,541.288 901.247,568.624 911.999,595.961 922.751,568.624 933.503,595.961 944.255,568.624 955.007,595.961 
  965.759,568.624 976.511,595.961 987.263,568.624 998.015,541.288 1008.77,513.952 1019.52,486.615 1030.27,513.952 1041.02,486.615 1051.77,459.279 1062.53,431.943 
  1073.28,459.279 1084.03,486.615 1094.78,459.279 1105.53,431.943 1116.29,459.279 1127.04,431.943 1137.79,459.279 1148.54,431.943 1159.29,459.279 1170.05,486.615 
  1180.8,513.952 1191.55,541.288 1202.3,513.952 1213.05,486.615 1223.8,513.952 1234.56,541.288 1245.31,568.624 1256.06,595.961 1266.81,568.624 1277.56,541.288 
  1288.32,513.952 1299.07,541.288 1309.82,568.624 1320.57,595.961 1331.32,623.297 1342.08,595.961 1352.83,623.297 1363.58,595.961 1374.33,623.297 1385.08,595.961 
  1395.84,568.624 1406.59,541.288 1417.34,513.952 1428.09,541.288 1438.84,513.952 1449.6,486.615 1460.35,459.279 1471.1,431.943 1481.85,459.279 1492.6,431.943 
  1503.35,459.279 1514.11,431.943 1524.86,404.606 1535.61,431.943 1546.36,459.279 1557.11,486.615 1567.87,459.279 1578.62,431.943 1589.37,459.279 1600.12,486.615 
  1610.87,459.279 1621.63,486.615 1632.38,513.952 1643.13,541.288 1653.88,513.952 1664.63,486.615 1675.39,513.952 1686.14,486.615 1696.89,513.952 1707.64,486.615 
  1718.39,513.952 1729.14,486.615 1739.9,459.279 1750.65,486.615 1761.4,513.952 1772.15,541.288 1782.9,568.624 1793.66,595.961 1804.41,568.624 1815.16,595.961 
  1825.91,623.297 1836.66,650.633 1847.42,677.97 1858.17,705.306 1868.92,677.97 1879.67,705.306 1890.42,677.97 1901.18,705.306 1911.93,677.97 1922.68,705.306 
  1933.43,732.642 1944.18,759.979 1954.94,787.315 1965.69,759.979 1976.44,787.315 1987.19,814.651 1997.94,841.988 2008.69,814.651 2019.45,787.315 2030.2,814.651 
  2040.95,841.988 2051.7,869.324 2062.45,896.66 2073.21,869.324 2083.96,896.66 2094.71,923.997 2105.46,896.66 2116.21,923.997 2126.97,951.333 2137.72,978.669 
  2148.47,1006.01 2159.22,1033.34 2169.97,1060.68 2180.73,1033.34 2191.48,1060.68 2202.23,1088.01 2212.98,1060.68 2223.73,1088.01 2234.48,1060.68 2245.24,1088.01 
  2255.99,1115.35 2266.74,1142.69 2277.49,1170.02 2288.24,1197.36 2299,1224.7 2309.75,1252.03 2320.5,1279.37 2331.25,1306.71 2342,1334.04 2352.76,1361.38 
  
  "/>
<polyline clip-path="url(#clip8402)" style="stroke:#00a98d; stroke-width:4; stroke-opacity:0.5; fill:none" points="
  213.125,1388.71 223.877,1361.38 234.629,1334.04 245.381,1306.71 256.132,1334.04 266.884,1306.71 277.636,1279.37 288.388,1252.03 299.14,1279.37 309.892,1252.03 
  320.644,1224.7 331.396,1197.36 342.148,1170.02 352.9,1142.69 363.652,1115.35 374.404,1088.01 385.155,1060.68 395.907,1033.34 406.659,1006.01 417.411,978.669 
  428.163,951.333 438.915,923.997 449.667,896.66 460.419,869.324 471.171,841.988 481.923,814.651 492.675,841.988 503.427,814.651 514.178,787.315 524.93,759.979 
  535.682,732.642 546.434,759.979 557.186,732.642 567.938,705.306 578.69,677.97 589.442,650.633 600.194,623.297 610.946,650.633 621.698,623.297 632.45,595.961 
  643.201,568.624 653.953,541.288 664.705,513.952 675.457,541.288 686.209,568.624 696.961,541.288 707.713,568.624 718.465,595.961 729.217,623.297 739.969,595.961 
  750.721,568.624 761.472,541.288 772.224,513.952 782.976,486.615 793.728,513.952 804.48,486.615 815.232,459.279 825.984,486.615 836.736,513.952 847.488,486.615 
  858.24,513.952 868.992,541.288 879.744,568.624 890.495,541.288 901.247,513.952 911.999,541.288 922.751,513.952 933.503,486.615 944.255,513.952 955.007,486.615 
  965.759,459.279 976.511,431.943 987.263,459.279 998.015,431.943 1008.77,459.279 1019.52,431.943 1030.27,459.279 1041.02,431.943 1051.77,404.606 1062.53,431.943 
  1073.28,404.606 1084.03,377.27 1094.78,349.934 1105.53,322.597 1116.29,349.934 1127.04,322.597 1137.79,295.261 1148.54,267.925 1159.29,240.588 1170.05,267.925 
  1180.8,240.588 1191.55,267.925 1202.3,295.261 1213.05,322.597 1223.8,295.261 1234.56,322.597 1245.31,349.934 1256.06,377.27 1266.81,349.934 1277.56,377.27 
  1288.32,404.606 1299.07,377.27 1309.82,349.934 1320.57,322.597 1331.32,295.261 1342.08,322.597 1352.83,349.934 1363.58,377.27 1374.33,404.606 1385.08,431.943 
  1395.84,459.279 1406.59,486.615 1417.34,513.952 1428.09,541.288 1438.84,513.952 1449.6,486.615 1460.35,513.952 1471.1,541.288 1481.85,513.952 1492.6,541.288 
  1503.35,513.952 1514.11,486.615 1524.86,513.952 1535.61,541.288 1546.36,513.952 1557.11,486.615 1567.87,513.952 1578.62,486.615 1589.37,459.279 1600.12,486.615 
  1610.87,513.952 1621.63,541.288 1632.38,568.624 1643.13,595.961 1653.88,568.624 1664.63,595.961 1675.39,568.624 1686.14,595.961 1696.89,623.297 1707.64,650.633 
  1718.39,623.297 1729.14,595.961 1739.9,623.297 1750.65,595.961 1761.4,623.297 1772.15,650.633 1782.9,623.297 1793.66,595.961 1804.41,623.297 1815.16,650.633 
  1825.91,677.97 1836.66,705.306 1847.42,732.642 1858.17,705.306 1868.92,677.97 1879.67,705.306 1890.42,732.642 1901.18,705.306 1911.93,732.642 1922.68,705.306 
  1933.43,732.642 1944.18,759.979 1954.94,787.315 1965.69,759.979 1976.44,787.315 1987.19,814.651 1997.94,841.988 2008.69,869.324 2019.45,896.66 2030.2,869.324 
  2040.95,841.988 2051.7,869.324 2062.45,841.988 2073.21,869.324 2083.96,896.66 2094.71,923.997 2105.46,951.333 2116.21,923.997 2126.97,951.333 2137.72,978.669 
  2148.47,951.333 2159.22,978.669 2169.97,1006.01 2180.73,1033.34 2191.48,1060.68 2202.23,1088.01 2212.98,1115.35 2223.73,1142.69 2234.48,1170.02 2245.24,1197.36 
  2255.99,1224.7 2266.74,1252.03 2277.49,1279.37 2288.24,1306.71 2299,1334.04 2309.75,1361.38 2320.5,1388.71 2331.25,1361.38 2342,1388.71 2352.76,1361.38 
  
  "/>
<polyline clip-path="url(#clip8402)" style="stroke:#8e971d; stroke-width:4; stroke-opacity:0.5; fill:none" points="
  213.125,1388.71 223.877,1361.38 234.629,1334.04 245.381,1306.71 256.132,1279.37 266.884,1252.03 277.636,1224.7 288.388,1197.36 299.14,1170.02 309.892,1197.36 
  320.644,1170.02 331.396,1197.36 342.148,1170.02 352.9,1197.36 363.652,1170.02 374.404,1142.69 385.155,1170.02 395.907,1142.69 406.659,1115.35 417.411,1088.01 
  428.163,1115.35 438.915,1142.69 449.667,1115.35 460.419,1088.01 471.171,1060.68 481.923,1033.34 492.675,1060.68 503.427,1033.34 514.178,1006.01 524.93,978.669 
  535.682,951.333 546.434,923.997 557.186,896.66 567.938,869.324 578.69,896.66 589.442,869.324 600.194,896.66 610.946,869.324 621.698,841.988 632.45,814.651 
  643.201,787.315 653.953,759.979 664.705,787.315 675.457,759.979 686.209,787.315 696.961,759.979 707.713,732.642 718.465,705.306 729.217,732.642 739.969,705.306 
  750.721,677.97 761.472,705.306 772.224,677.97 782.976,650.633 793.728,623.297 804.48,650.633 815.232,677.97 825.984,650.633 836.736,623.297 847.488,650.633 
  858.24,623.297 868.992,595.961 879.744,623.297 890.495,595.961 901.247,568.624 911.999,541.288 922.751,513.952 933.503,541.288 944.255,568.624 955.007,541.288 
  965.759,513.952 976.511,486.615 987.263,459.279 998.015,486.615 1008.77,513.952 1019.52,541.288 1030.27,513.952 1041.02,541.288 1051.77,568.624 1062.53,541.288 
  1073.28,513.952 1084.03,541.288 1094.78,568.624 1105.53,595.961 1116.29,568.624 1127.04,541.288 1137.79,568.624 1148.54,541.288 1159.29,513.952 1170.05,541.288 
  1180.8,513.952 1191.55,486.615 1202.3,459.279 1213.05,431.943 1223.8,459.279 1234.56,486.615 1245.31,459.279 1256.06,431.943 1266.81,404.606 1277.56,377.27 
  1288.32,404.606 1299.07,431.943 1309.82,404.606 1320.57,431.943 1331.32,459.279 1342.08,486.615 1352.83,513.952 1363.58,486.615 1374.33,459.279 1385.08,486.615 
  1395.84,513.952 1406.59,486.615 1417.34,513.952 1428.09,541.288 1438.84,568.624 1449.6,595.961 1460.35,623.297 1471.1,650.633 1481.85,623.297 1492.6,650.633 
  1503.35,623.297 1514.11,650.633 1524.86,677.97 1535.61,650.633 1546.36,677.97 1557.11,705.306 1567.87,732.642 1578.62,705.306 1589.37,677.97 1600.12,650.633 
  1610.87,623.297 1621.63,595.961 1632.38,623.297 1643.13,595.961 1653.88,568.624 1664.63,595.961 1675.39,568.624 1686.14,595.961 1696.89,568.624 1707.64,541.288 
  1718.39,568.624 1729.14,595.961 1739.9,623.297 1750.65,595.961 1761.4,623.297 1772.15,650.633 1782.9,677.97 1793.66,650.633 1804.41,677.97 1815.16,650.633 
  1825.91,677.97 1836.66,705.306 1847.42,732.642 1858.17,759.979 1868.92,787.315 1879.67,759.979 1890.42,787.315 1901.18,814.651 1911.93,787.315 1922.68,814.651 
  1933.43,841.988 1944.18,869.324 1954.94,896.66 1965.69,923.997 1976.44,951.333 1987.19,978.669 1997.94,951.333 2008.69,923.997 2019.45,951.333 2030.2,978.669 
  2040.95,951.333 2051.7,978.669 2062.45,1006.01 2073.21,1033.34 2083.96,1060.68 2094.71,1088.01 2105.46,1115.35 2116.21,1142.69 2126.97,1170.02 2137.72,1197.36 
  2148.47,1224.7 2159.22,1197.36 2169.97,1224.7 2180.73,1197.36 2191.48,1224.7 2202.23,1197.36 2212.98,1224.7 2223.73,1252.03 2234.48,1224.7 2245.24,1252.03 
  2255.99,1279.37 2266.74,1306.71 2277.49,1279.37 2288.24,1252.03 2299,1279.37 2309.75,1306.71 2320.5,1279.37 2331.25,1306.71 2342,1334.04 2352.76,1361.38 
  
  "/>
<polygon clip-path="url(#clip8402)" points="
213.125,1388.71 223.877,1361.38 234.629,1340.01 245.381,1317.65 256.132,1295.59 266.884,1273.95 277.636,1252.71 288.388,1231.87 299.14,1211.42 309.892,1191.37 
  320.644,1171.65 331.396,1152.35 342.148,1133.45 352.9,1114.84 363.652,1096.66 374.404,1078.79 385.155,1061.32 395.907,1044.11 406.659,1027.34 417.411,1010.93 
  428.163,994.832 438.915,979.059 449.667,963.618 460.419,948.415 471.171,933.636 481.923,919.102 492.675,904.935 503.427,891.026 514.178,877.45 524.93,864.159 
  535.682,851.248 546.434,838.536 557.186,826.11 567.938,813.95 578.69,802.091 589.442,790.542 600.194,779.251 610.946,768.233 621.698,757.517 632.45,747.009 
  643.201,736.77 653.953,726.764 664.705,717.032 675.457,707.562 686.209,698.362 696.961,689.4 707.713,680.679 718.465,672.173 729.217,663.909 739.969,655.889 
  750.721,648.152 761.472,640.607 772.224,633.245 782.976,626.142 793.728,619.346 804.48,612.769 815.232,606.325 825.984,600.097 836.736,594.076 847.488,588.379 
  858.24,582.848 868.992,577.501 879.744,572.344 890.495,567.356 901.247,562.681 911.999,558.177 922.751,553.841 933.503,549.764 944.255,545.862 955.007,542.145 
  965.759,538.645 976.511,535.35 987.263,532.2 998.015,529.232 1008.77,526.444 1019.52,523.905 1030.27,521.57 1041.02,519.366 1051.77,517.376 1062.53,515.541 
  1073.28,513.956 1084.03,512.533 1094.78,511.212 1105.53,510.119 1116.29,509.281 1127.04,508.548 1137.79,507.97 1148.54,507.531 1159.29,507.365 1170.05,507.282 
  1180.8,507.389 1191.55,507.664 1202.3,508.027 1213.05,508.622 1223.8,509.428 1234.56,510.297 1245.31,511.441 1256.06,512.669 1266.81,514.116 1277.56,515.73 
  1288.32,517.494 1299.07,519.431 1309.82,521.511 1320.57,523.626 1331.32,526.031 1342.08,528.521 1352.83,531.179 1363.58,534.024 1374.33,536.934 1385.08,540.071 
  1395.84,543.382 1406.59,546.803 1417.34,550.324 1428.09,554.029 1438.84,557.954 1449.6,561.905 1460.35,566.048 1471.1,570.312 1481.85,574.703 1492.6,579.335 
  1503.35,584.082 1514.11,588.964 1524.86,593.947 1535.61,599.117 1546.36,604.355 1557.11,609.83 1567.87,615.371 1578.62,621.07 1589.37,626.894 1600.12,632.881 
  1610.87,638.968 1621.63,645.208 1632.38,651.659 1643.13,658.194 1653.88,664.827 1664.63,671.615 1675.39,678.539 1686.14,685.631 1696.89,692.87 1707.64,700.212 
  1718.39,707.692 1729.14,715.357 1739.9,723.086 1750.65,730.881 1761.4,738.869 1772.15,747.011 1782.9,755.299 1793.66,763.652 1804.41,772.204 1815.16,780.899 
  1825.91,789.664 1836.66,798.549 1847.42,807.563 1858.17,816.8 1868.92,826.151 1879.67,835.57 1890.42,845.091 1901.18,854.818 1911.93,864.659 1922.68,874.562 
  1933.43,884.672 1944.18,894.887 1954.94,905.277 1965.69,915.72 1976.44,926.319 1987.19,937.074 1997.94,947.941 2008.69,958.942 2019.45,970.053 2030.2,981.29 
  2040.95,992.728 2051.7,1004.27 2062.45,1015.9 2073.21,1027.62 2083.96,1039.53 2094.71,1051.6 2105.46,1063.76 2116.21,1076.05 2126.97,1088.44 2137.72,1101.03 
  2148.47,1113.75 2159.22,1126.57 2169.97,1139.53 2180.73,1152.56 2191.48,1165.76 2202.23,1179.12 2212.98,1192.54 2223.73,1206.17 2234.48,1219.91 2245.24,1233.77 
  2255.99,1247.73 2266.74,1261.82 2277.49,1275.98 2288.24,1290.17 2299,1304.48 2309.75,1318.8 2320.5,1333 2331.25,1346.92 2342,1360.92 2352.76,1361.38 
  2352.76,1361.38 2342,1322.72 2331.25,1297.59 2320.5,1273.66 2309.75,1251.01 2299,1229.12 2288.24,1207.98 2277.49,1187.4 2266.74,1167.35 2255.99,1147.7 
  2245.24,1128.44 2234.48,1109.54 2223.73,1091.04 2212.98,1072.87 2202.23,1054.98 2191.48,1037.41 2180.73,1020.06 2169.97,1003.01 2159.22,986.215 2148.47,969.704 
  2137.72,953.439 2126.97,937.444 2116.21,921.687 2105.46,906.121 2094.71,890.764 2083.96,875.557 2073.21,860.621 2062.45,845.855 2051.7,831.37 2040.95,817.059 
  2030.2,802.931 2019.45,788.98 2008.69,775.149 1997.94,761.54 1987.19,748.172 1976.44,735.021 1965.69,722.036 1954.94,709.302 1944.18,696.671 1933.43,684.202 
  1922.68,671.915 1911.93,659.791 1901.18,647.783 1890.42,636.043 1879.67,624.484 1868.92,613.106 1858.17,601.929 1847.42,590.874 1836.66,579.957 1825.91,569.289 
  1815.16,558.714 1804.41,548.343 1793.66,538.156 1782.9,528.109 1772.15,518.262 1761.4,508.555 1750.65,499.013 1739.9,489.701 1729.14,480.541 1718.39,471.541 
  1707.64,462.613 1696.89,453.904 1686.14,445.381 1675.39,437.029 1664.63,428.861 1653.88,420.888 1643.13,412.995 1632.38,405.352 1621.63,397.864 1610.87,390.492 
  1600.12,383.333 1589.37,376.356 1578.62,369.601 1567.87,363.019 1557.11,356.548 1546.36,350.244 1535.61,344.068 1524.86,338.168 1514.11,332.378 1503.35,326.794 
  1492.6,321.338 1481.85,316.084 1471.1,310.995 1460.35,306.072 1449.6,301.353 1438.84,296.772 1428.09,292.361 1417.34,288.176 1406.59,284.146 1395.84,280.326 
  1385.08,276.686 1374.33,273.199 1363.58,269.944 1352.83,266.813 1342.08,263.927 1331.32,261.256 1320.57,258.666 1309.82,256.311 1299.07,254.087 1288.32,252.125 
  1277.56,250.232 1266.81,248.598 1256.06,247.158 1245.31,245.97 1234.56,244.981 1223.8,244.159 1213.05,243.55 1202.3,243.094 1191.55,242.891 1180.8,242.824 
  1170.05,243.017 1159.29,243.412 1148.54,243.989 1137.79,244.816 1127.04,245.847 1116.29,247.097 1105.53,248.564 1094.78,250.17 1084.03,252.05 1073.28,254.164 
  1062.53,256.445 1051.77,259.004 1041.02,261.808 1030.27,264.779 1019.52,268.017 1008.77,271.507 998.015,275.219 987.263,279.143 976.511,283.292 965.759,287.629 
  955.007,292.258 944.255,297.036 933.503,302.13 922.751,307.518 911.999,313.18 901.247,319.076 890.495,325.125 879.744,331.533 868.992,338.208 858.24,345.069 
  847.488,352.231 836.736,359.64 825.984,367.339 815.232,375.361 804.48,383.65 793.728,392.109 782.976,400.902 772.224,410.019 761.472,419.392 750.721,429.105 
  739.969,439.031 729.217,449.317 718.465,459.905 707.713,470.786 696.961,482.016 686.209,493.514 675.457,505.345 664.705,517.482 653.953,529.965 643.201,542.734 
  632.45,555.861 621.698,569.309 610.946,583.098 600.194,597.251 589.442,611.732 578.69,626.561 567.938,641.801 557.186,657.414 546.434,673.343 535.682,689.692 
  524.93,706.398 514.178,723.5 503.427,741.01 492.675,758.911 481.923,777.262 471.171,796.039 460.419,815.146 449.667,834.7 438.915,854.741 428.163,875.233 
  417.411,896.154 406.659,917.497 395.907,939.309 385.155,961.622 374.404,984.41 363.652,1007.67 352.9,1031.45 342.148,1055.74 331.396,1080.54 320.644,1105.85 
  309.892,1131.73 299.14,1158.16 288.388,1185.16 277.636,1212.71 266.884,1240.86 256.132,1269.63 245.381,1299.03 234.629,1329.16 223.877,1361.38 213.125,1388.71 
  
  " fill="#ff0000" fill-rule="evenodd" fill-opacity="0.5"/>
<polyline clip-path="url(#clip8402)" style="stroke:#ff0000; stroke-width:8; stroke-opacity:1; fill:none" points="
  213.125,1388.71 223.877,1361.38 234.629,1334.59 245.381,1308.34 256.132,1282.61 266.884,1257.41 277.636,1232.71 288.388,1208.51 299.14,1184.79 309.892,1161.55 
  320.644,1138.75 331.396,1116.44 342.148,1094.59 352.9,1073.15 363.652,1052.16 374.404,1031.6 385.155,1011.47 395.907,991.709 406.659,972.421 417.411,953.544 
  428.163,935.033 438.915,916.9 449.667,899.159 460.419,881.781 471.171,864.838 481.923,848.182 492.675,831.923 503.427,816.018 514.178,800.475 524.93,785.279 
  535.682,770.47 546.434,755.939 557.186,741.762 567.938,727.875 578.69,714.326 589.442,701.137 600.194,688.251 610.946,675.666 621.698,663.413 632.45,651.435 
  643.201,639.752 653.953,628.364 664.705,617.257 675.457,606.453 686.209,595.938 696.961,585.708 707.713,575.733 718.465,566.039 729.217,556.613 739.969,547.46 
  750.721,538.628 761.472,529.999 772.224,521.632 782.976,513.522 793.728,505.727 804.48,498.209 815.232,490.843 825.984,483.718 836.736,476.858 847.488,470.305 
  858.24,463.958 868.992,457.855 879.744,451.938 890.495,446.241 901.247,440.878 911.999,435.679 922.751,430.679 933.503,425.947 944.255,421.449 955.007,417.201 
  965.759,413.137 976.511,409.321 987.263,405.671 998.015,402.225 1008.77,398.976 1019.52,395.961 1030.27,393.174 1041.02,390.587 1051.77,388.19 1062.53,385.993 
  1073.28,384.06 1084.03,382.291 1094.78,380.691 1105.53,379.342 1116.29,378.189 1127.04,377.197 1137.79,376.393 1148.54,375.76 1159.29,375.388 1170.05,375.149 
  1180.8,375.106 1191.55,375.278 1202.3,375.56 1213.05,376.086 1223.8,376.794 1234.56,377.639 1245.31,378.706 1256.06,379.913 1266.81,381.357 1277.56,382.981 
  1288.32,384.809 1299.07,386.759 1309.82,388.911 1320.57,391.146 1331.32,393.644 1342.08,396.224 1352.83,398.996 1363.58,401.984 1374.33,405.066 1385.08,408.379 
  1395.84,411.854 1406.59,415.474 1417.34,419.25 1428.09,423.195 1438.84,427.363 1449.6,431.629 1460.35,436.06 1471.1,440.653 1481.85,445.394 1492.6,450.337 
  1503.35,455.438 1514.11,460.671 1524.86,466.058 1535.61,471.592 1546.36,477.299 1557.11,483.189 1567.87,489.195 1578.62,495.336 1589.37,501.625 1600.12,508.107 
  1610.87,514.73 1621.63,521.536 1632.38,528.505 1643.13,535.594 1653.88,542.858 1664.63,550.238 1675.39,557.784 1686.14,565.506 1696.89,573.387 1707.64,581.413 
  1718.39,589.616 1729.14,597.949 1739.9,606.393 1750.65,614.947 1761.4,623.712 1772.15,632.637 1782.9,641.704 1793.66,650.904 1804.41,660.273 1815.16,669.807 
  1825.91,679.477 1836.66,689.253 1847.42,699.219 1858.17,709.365 1868.92,719.628 1879.67,730.027 1890.42,740.567 1901.18,751.3 1911.93,762.225 1922.68,773.239 
  1933.43,784.437 1944.18,795.779 1954.94,807.29 1965.69,818.878 1976.44,830.67 1987.19,842.623 1997.94,854.74 2008.69,867.046 2019.45,879.517 2030.2,892.111 
  2040.95,904.894 2051.7,917.818 2062.45,930.878 2073.21,944.12 2083.96,957.543 2094.71,971.182 2105.46,984.943 2116.21,998.869 2126.97,1012.94 2137.72,1027.23 
  2148.47,1041.73 2159.22,1056.39 2169.97,1071.27 2180.73,1086.31 2191.48,1101.59 2202.23,1117.05 2212.98,1132.71 2223.73,1148.61 2234.48,1164.72 2245.24,1181.11 
  2255.99,1197.71 2266.74,1214.58 2277.49,1231.69 2288.24,1249.07 2299,1266.8 2309.75,1284.9 2320.5,1303.33 2331.25,1322.25 2342,1341.82 2352.76,1361.38 
  
  "/>
</svg>
