<?xml version="1.0" encoding="utf-8"?>
<svg xmlns="http://www.w3.org/2000/svg" xmlns:xlink="http://www.w3.org/1999/xlink" width="600" height="400" viewBox="0 0 2400 1600">
<defs>
  <clipPath id="clip6000">
    <rect x="0" y="0" width="2400" height="1600"/>
  </clipPath>
</defs>
<polygon clip-path="url(#clip6000)" points="
0,1600 2400,1600 2400,0 0,0 
  " fill="#ffffff" fill-rule="evenodd" fill-opacity="1"/>
<defs>
  <clipPath id="clip6001">
    <rect x="480" y="0" width="1681" height="1600"/>
  </clipPath>
</defs>
<polygon clip-path="url(#clip6000)" points="
229.135,1425.62 2352.76,1425.62 2352.76,121.675 229.135,121.675 
  " fill="#ffffff" fill-rule="evenodd" fill-opacity="1"/>
<defs>
  <clipPath id="clip6002">
    <rect x="229" y="121" width="2125" height="1305"/>
  </clipPath>
</defs>
<polyline clip-path="url(#clip6002)" style="stroke:#000000; stroke-width:2; stroke-opacity:0.1; fill:none" points="
  229.135,1425.62 229.135,121.675 
  "/>
<polyline clip-path="url(#clip6002)" style="stroke:#000000; stroke-width:2; stroke-opacity:0.1; fill:none" points="
  760.04,1425.62 760.04,121.675 
  "/>
<polyline clip-path="url(#clip6002)" style="stroke:#000000; stroke-width:2; stroke-opacity:0.1; fill:none" points="
  1290.95,1425.62 1290.95,121.675 
  "/>
<polyline clip-path="url(#clip6002)" style="stroke:#000000; stroke-width:2; stroke-opacity:0.1; fill:none" points="
  1821.85,1425.62 1821.85,121.675 
  "/>
<polyline clip-path="url(#clip6002)" style="stroke:#000000; stroke-width:2; stroke-opacity:0.1; fill:none" points="
  2352.76,1425.62 2352.76,121.675 
  "/>
<polyline clip-path="url(#clip6002)" style="stroke:#000000; stroke-width:2; stroke-opacity:0.1; fill:none" points="
  229.135,1386.17 2352.76,1386.17 
  "/>
<polyline clip-path="url(#clip6002)" style="stroke:#000000; stroke-width:2; stroke-opacity:0.1; fill:none" points="
  229.135,1079.27 2352.76,1079.27 
  "/>
<polyline clip-path="url(#clip6002)" style="stroke:#000000; stroke-width:2; stroke-opacity:0.1; fill:none" points="
  229.135,772.376 2352.76,772.376 
  "/>
<polyline clip-path="url(#clip6002)" style="stroke:#000000; stroke-width:2; stroke-opacity:0.1; fill:none" points="
  229.135,465.478 2352.76,465.478 
  "/>
<polyline clip-path="url(#clip6002)" style="stroke:#000000; stroke-width:2; stroke-opacity:0.1; fill:none" points="
  229.135,158.579 2352.76,158.579 
  "/>
<polyline clip-path="url(#clip6000)" style="stroke:#000000; stroke-width:4; stroke-opacity:1; fill:none" points="
  229.135,1425.62 2352.76,1425.62 
  "/>
<polyline clip-path="url(#clip6000)" style="stroke:#000000; stroke-width:4; stroke-opacity:1; fill:none" points="
  229.135,1425.62 229.135,121.675 
  "/>
<polyline clip-path="url(#clip6000)" style="stroke:#000000; stroke-width:4; stroke-opacity:1; fill:none" points="
  229.135,1425.62 229.135,1406.06 
  "/>
<polyline clip-path="url(#clip6000)" style="stroke:#000000; stroke-width:4; stroke-opacity:1; fill:none" points="
  760.04,1425.62 760.04,1406.06 
  "/>
<polyline clip-path="url(#clip6000)" style="stroke:#000000; stroke-width:4; stroke-opacity:1; fill:none" points="
  1290.95,1425.62 1290.95,1406.06 
  "/>
<polyline clip-path="url(#clip6000)" style="stroke:#000000; stroke-width:4; stroke-opacity:1; fill:none" points="
  1821.85,1425.62 1821.85,1406.06 
  "/>
<polyline clip-path="url(#clip6000)" style="stroke:#000000; stroke-width:4; stroke-opacity:1; fill:none" points="
  2352.76,1425.62 2352.76,1406.06 
  "/>
<polyline clip-path="url(#clip6000)" style="stroke:#000000; stroke-width:4; stroke-opacity:1; fill:none" points="
  229.135,1386.17 260.99,1386.17 
  "/>
<polyline clip-path="url(#clip6000)" style="stroke:#000000; stroke-width:4; stroke-opacity:1; fill:none" points="
  229.135,1079.27 260.99,1079.27 
  "/>
<polyline clip-path="url(#clip6000)" style="stroke:#000000; stroke-width:4; stroke-opacity:1; fill:none" points="
  229.135,772.376 260.99,772.376 
  "/>
<polyline clip-path="url(#clip6000)" style="stroke:#000000; stroke-width:4; stroke-opacity:1; fill:none" points="
  229.135,465.478 260.99,465.478 
  "/>
<polyline clip-path="url(#clip6000)" style="stroke:#000000; stroke-width:4; stroke-opacity:1; fill:none" points="
  229.135,158.579 260.99,158.579 
  "/>
<g clip-path="url(#clip6000)">
<text style="fill:#000000; fill-opacity:1; font-family:Arial,Helvetica Neue,Helvetica,sans-serif; font-size:48px; text-anchor:middle;" transform="rotate(0, 229.135, 1479.62)" x="229.135" y="1479.62">0</text>
</g>
<g clip-path="url(#clip6000)">
<text style="fill:#000000; fill-opacity:1; font-family:Arial,Helvetica Neue,Helvetica,sans-serif; font-size:48px; text-anchor:middle;" transform="rotate(0, 760.04, 1479.62)" x="760.04" y="1479.62">50</text>
</g>
<g clip-path="url(#clip6000)">
<text style="fill:#000000; fill-opacity:1; font-family:Arial,Helvetica Neue,Helvetica,sans-serif; font-size:48px; text-anchor:middle;" transform="rotate(0, 1290.95, 1479.62)" x="1290.95" y="1479.62">100</text>
</g>
<g clip-path="url(#clip6000)">
<text style="fill:#000000; fill-opacity:1; font-family:Arial,Helvetica Neue,Helvetica,sans-serif; font-size:48px; text-anchor:middle;" transform="rotate(0, 1821.85, 1479.62)" x="1821.85" y="1479.62">150</text>
</g>
<g clip-path="url(#clip6000)">
<text style="fill:#000000; fill-opacity:1; font-family:Arial,Helvetica Neue,Helvetica,sans-serif; font-size:48px; text-anchor:middle;" transform="rotate(0, 2352.76, 1479.62)" x="2352.76" y="1479.62">200</text>
</g>
<g clip-path="url(#clip6000)">
<text style="fill:#000000; fill-opacity:1; font-family:Arial,Helvetica Neue,Helvetica,sans-serif; font-size:48px; text-anchor:end;" transform="rotate(0, 205.135, 1403.67)" x="205.135" y="1403.67">0</text>
</g>
<g clip-path="url(#clip6000)">
<text style="fill:#000000; fill-opacity:1; font-family:Arial,Helvetica Neue,Helvetica,sans-serif; font-size:48px; text-anchor:end;" transform="rotate(0, 205.135, 1096.77)" x="205.135" y="1096.77">25</text>
</g>
<g clip-path="url(#clip6000)">
<text style="fill:#000000; fill-opacity:1; font-family:Arial,Helvetica Neue,Helvetica,sans-serif; font-size:48px; text-anchor:end;" transform="rotate(0, 205.135, 789.876)" x="205.135" y="789.876">50</text>
</g>
<g clip-path="url(#clip6000)">
<text style="fill:#000000; fill-opacity:1; font-family:Arial,Helvetica Neue,Helvetica,sans-serif; font-size:48px; text-anchor:end;" transform="rotate(0, 205.135, 482.978)" x="205.135" y="482.978">75</text>
</g>
<g clip-path="url(#clip6000)">
<text style="fill:#000000; fill-opacity:1; font-family:Arial,Helvetica Neue,Helvetica,sans-serif; font-size:48px; text-anchor:end;" transform="rotate(0, 205.135, 176.079)" x="205.135" y="176.079">100</text>
</g>
<g clip-path="url(#clip6000)">
<text style="fill:#000000; fill-opacity:1; font-family:Arial,Helvetica Neue,Helvetica,sans-serif; font-size:84px; text-anchor:middle;" transform="rotate(0, 1290.95, 73.2)" x="1290.95" y="73.2">wholes</text>
</g>
<g clip-path="url(#clip6000)">
<text style="fill:#000000; fill-opacity:1; font-family:Arial,Helvetica Neue,Helvetica,sans-serif; font-size:66px; text-anchor:middle;" transform="rotate(0, 1290.95, 1559.48)" x="1290.95" y="1559.48">t</text>
</g>
<g clip-path="url(#clip6000)">
<text style="fill:#000000; fill-opacity:1; font-family:Arial,Helvetica Neue,Helvetica,sans-serif; font-size:66px; text-anchor:middle;" transform="rotate(-90, 89.2861, 773.647)" x="89.2861" y="773.647">n</text>
</g>
<polyline clip-path="url(#clip6002)" style="stroke:#009af9; stroke-width:4; stroke-opacity:0.5; fill:none" points="
  239.753,158.579 250.371,170.855 260.99,183.131 271.608,195.407 282.226,207.683 292.844,219.959 303.462,232.235 314.08,244.511 324.698,256.787 335.316,269.063 
  345.934,281.339 356.552,293.614 367.171,305.89 377.789,318.166 388.407,330.442 399.025,342.718 409.643,354.994 420.261,367.27 430.879,379.546 441.497,379.546 
  452.115,379.546 462.734,391.822 473.352,404.098 483.97,416.374 494.588,428.65 505.206,440.926 515.824,453.202 526.442,453.202 537.06,465.478 547.678,477.754 
  558.296,477.754 568.915,490.029 579.533,502.305 590.151,514.581 600.769,526.857 611.387,539.133 622.005,551.409 632.623,563.685 643.241,563.685 653.859,575.961 
  664.477,588.237 675.096,600.513 685.714,612.789 696.332,612.789 706.95,612.789 717.568,625.065 728.186,637.341 738.804,649.617 749.422,649.617 760.04,661.893 
  770.659,674.168 781.277,674.168 791.895,686.444 802.513,698.72 813.131,710.996 823.749,723.272 834.367,735.548 844.985,735.548 855.603,747.824 866.221,747.824 
  876.84,747.824 887.458,747.824 898.076,747.824 908.694,747.824 919.312,760.1 929.93,760.1 940.548,772.376 951.166,784.652 961.784,796.928 972.402,809.204 
  983.021,809.204 993.639,809.204 1004.26,809.204 1014.87,809.204 1025.49,821.48 1036.11,833.756 1046.73,846.032 1057.35,858.308 1067.97,870.583 1078.58,870.583 
  1089.2,870.583 1099.82,882.859 1110.44,882.859 1121.06,882.859 1131.67,882.859 1142.29,895.135 1152.91,907.411 1163.53,907.411 1174.15,907.411 1184.76,907.411 
  1195.38,907.411 1206,919.687 1216.62,919.687 1227.24,919.687 1237.86,919.687 1248.47,931.963 1259.09,944.239 1269.71,956.515 1280.33,956.515 1290.95,968.791 
  1301.56,981.067 1312.18,993.343 1322.8,1005.62 1333.42,1005.62 1344.04,1005.62 1354.65,1005.62 1365.27,1017.89 1375.89,1017.89 1386.51,1030.17 1397.13,1030.17 
  1407.74,1042.45 1418.36,1042.45 1428.98,1054.72 1439.6,1067 1450.22,1067 1460.84,1079.27 1471.45,1079.27 1482.07,1079.27 1492.69,1079.27 1503.31,1091.55 
  1513.93,1091.55 1524.54,1103.83 1535.16,1103.83 1545.78,1103.83 1556.4,1116.1 1567.02,1116.1 1577.63,1116.1 1588.25,1116.1 1598.87,1128.38 1609.49,1140.65 
  1620.11,1140.65 1630.72,1152.93 1641.34,1152.93 1651.96,1165.21 1662.58,1177.48 1673.2,1177.48 1683.82,1177.48 1694.43,1189.76 1705.05,1202.03 1715.67,1202.03 
  1726.29,1214.31 1736.91,1214.31 1747.52,1214.31 1758.14,1214.31 1768.76,1226.59 1779.38,1226.59 1790,1226.59 1800.61,1226.59 1811.23,1226.59 1821.85,1226.59 
  1832.47,1238.86 1843.09,1238.86 1853.71,1251.14 1864.32,1251.14 1874.94,1251.14 1885.56,1263.41 1896.18,1263.41 1906.8,1263.41 1917.41,1275.69 1928.03,1287.97 
  1938.65,1300.24 1949.27,1300.24 1959.89,1300.24 1970.5,1300.24 1981.12,1300.24 1991.74,1300.24 2002.36,1300.24 2012.98,1312.52 2023.59,1312.52 2034.21,1324.79 
  2044.83,1337.07 2055.45,1337.07 2066.07,1349.34 2076.69,1349.34 2087.3,1349.34 2097.92,1349.34 2108.54,1349.34 2119.16,1349.34 2129.78,1361.62 2140.39,1361.62 
  2151.01,1373.9 2161.63,1373.9 2172.25,1373.9 2182.87,1373.9 2193.48,1373.9 2204.1,1373.9 2214.72,1373.9 2225.34,1373.9 2235.96,1386.17 2246.57,1386.17 
  2257.19,1386.17 2267.81,1386.17 2278.43,1386.17 2289.05,1386.17 2299.67,1386.17 2310.28,1386.17 2320.9,1386.17 2331.52,1386.17 2342.14,1386.17 2352.76,1386.17 
  
  "/>
<polyline clip-path="url(#clip6002)" style="stroke:#e26f46; stroke-width:4; stroke-opacity:0.5; fill:none" points="
  239.753,158.579 250.371,170.855 260.99,183.131 271.608,195.407 282.226,207.683 292.844,219.959 303.462,232.235 314.08,244.511 324.698,256.787 335.316,269.063 
  345.934,281.339 356.552,293.614 367.171,305.89 377.789,318.166 388.407,330.442 399.025,330.442 409.643,342.718 420.261,354.994 430.879,367.27 441.497,379.546 
  452.115,379.546 462.734,391.822 473.352,404.098 483.97,416.374 494.588,428.65 505.206,440.926 515.824,453.202 526.442,465.478 537.06,477.754 547.678,477.754 
  558.296,490.029 568.915,502.305 579.533,514.581 590.151,526.857 600.769,526.857 611.387,539.133 622.005,539.133 632.623,551.409 643.241,563.685 653.859,575.961 
  664.477,575.961 675.096,588.237 685.714,600.513 696.332,612.789 706.95,612.789 717.568,612.789 728.186,612.789 738.804,625.065 749.422,625.065 760.04,637.341 
  770.659,649.617 781.277,649.617 791.895,661.893 802.513,674.168 813.131,674.168 823.749,686.444 834.367,686.444 844.985,698.72 855.603,698.72 866.221,698.72 
  876.84,710.996 887.458,710.996 898.076,723.272 908.694,735.548 919.312,747.824 929.93,760.1 940.548,760.1 951.166,760.1 961.784,772.376 972.402,772.376 
  983.021,772.376 993.639,784.652 1004.26,796.928 1014.87,809.204 1025.49,809.204 1036.11,809.204 1046.73,821.48 1057.35,821.48 1067.97,821.48 1078.58,821.48 
  1089.2,821.48 1099.82,821.48 1110.44,821.48 1121.06,833.756 1131.67,833.756 1142.29,846.032 1152.91,846.032 1163.53,858.308 1174.15,870.583 1184.76,870.583 
  1195.38,882.859 1206,895.135 1216.62,907.411 1227.24,919.687 1237.86,919.687 1248.47,919.687 1259.09,931.963 1269.71,931.963 1280.33,944.239 1290.95,956.515 
  1301.56,956.515 1312.18,956.515 1322.8,968.791 1333.42,981.067 1344.04,993.343 1354.65,993.343 1365.27,1005.62 1375.89,1005.62 1386.51,1005.62 1397.13,1017.89 
  1407.74,1017.89 1418.36,1017.89 1428.98,1017.89 1439.6,1030.17 1450.22,1042.45 1460.84,1042.45 1471.45,1042.45 1482.07,1054.72 1492.69,1067 1503.31,1067 
  1513.93,1067 1524.54,1079.27 1535.16,1079.27 1545.78,1091.55 1556.4,1091.55 1567.02,1091.55 1577.63,1091.55 1588.25,1091.55 1598.87,1091.55 1609.49,1103.83 
  1620.11,1103.83 1630.72,1116.1 1641.34,1116.1 1651.96,1128.38 1662.58,1140.65 1673.2,1140.65 1683.82,1152.93 1694.43,1152.93 1705.05,1152.93 1715.67,1152.93 
  1726.29,1152.93 1736.91,1152.93 1747.52,1152.93 1758.14,1152.93 1768.76,1152.93 1779.38,1165.21 1790,1177.48 1800.61,1189.76 1811.23,1189.76 1821.85,1189.76 
  1832.47,1202.03 1843.09,1202.03 1853.71,1214.31 1864.32,1214.31 1874.94,1226.59 1885.56,1226.59 1896.18,1226.59 1906.8,1238.86 1917.41,1238.86 1928.03,1251.14 
  1938.65,1251.14 1949.27,1251.14 1959.89,1263.41 1970.5,1275.69 1981.12,1275.69 1991.74,1275.69 2002.36,1287.97 2012.98,1287.97 2023.59,1287.97 2034.21,1287.97 
  2044.83,1287.97 2055.45,1287.97 2066.07,1287.97 2076.69,1287.97 2087.3,1287.97 2097.92,1287.97 2108.54,1300.24 2119.16,1312.52 2129.78,1312.52 2140.39,1312.52 
  2151.01,1324.79 2161.63,1324.79 2172.25,1324.79 2182.87,1324.79 2193.48,1324.79 2204.1,1324.79 2214.72,1324.79 2225.34,1324.79 2235.96,1324.79 2246.57,1324.79 
  2257.19,1324.79 2267.81,1337.07 2278.43,1349.34 2289.05,1349.34 2299.67,1349.34 2310.28,1361.62 2320.9,1373.9 2331.52,1373.9 2342.14,1386.17 2352.76,1386.17 
  
  "/>
<polyline clip-path="url(#clip6002)" style="stroke:#3da44d; stroke-width:4; stroke-opacity:0.5; fill:none" points="
  239.753,158.579 250.371,170.855 260.99,183.131 271.608,195.407 282.226,207.683 292.844,219.959 303.462,232.235 314.08,244.511 324.698,256.787 335.316,269.063 
  345.934,269.063 356.552,281.339 367.171,293.614 377.789,305.89 388.407,318.166 399.025,330.442 409.643,342.718 420.261,354.994 430.879,367.27 441.497,379.546 
  452.115,391.822 462.734,404.098 473.352,404.098 483.97,416.374 494.588,428.65 505.206,440.926 515.824,453.202 526.442,453.202 537.06,465.478 547.678,477.754 
  558.296,477.754 568.915,490.029 579.533,502.305 590.151,502.305 600.769,514.581 611.387,526.857 622.005,539.133 632.623,551.409 643.241,551.409 653.859,563.685 
  664.477,575.961 675.096,575.961 685.714,588.237 696.332,600.513 706.95,612.789 717.568,625.065 728.186,625.065 738.804,637.341 749.422,649.617 760.04,661.893 
  770.659,661.893 781.277,674.168 791.895,674.168 802.513,686.444 813.131,686.444 823.749,686.444 834.367,686.444 844.985,698.72 855.603,710.996 866.221,723.272 
  876.84,735.548 887.458,747.824 898.076,747.824 908.694,747.824 919.312,760.1 929.93,772.376 940.548,772.376 951.166,784.652 961.784,796.928 972.402,796.928 
  983.021,809.204 993.639,809.204 1004.26,821.48 1014.87,833.756 1025.49,833.756 1036.11,833.756 1046.73,846.032 1057.35,858.308 1067.97,858.308 1078.58,870.583 
  1089.2,882.859 1099.82,882.859 1110.44,882.859 1121.06,895.135 1131.67,907.411 1142.29,919.687 1152.91,931.963 1163.53,931.963 1174.15,931.963 1184.76,931.963 
  1195.38,944.239 1206,944.239 1216.62,944.239 1227.24,956.515 1237.86,956.515 1248.47,956.515 1259.09,968.791 1269.71,981.067 1280.33,993.343 1290.95,993.343 
  1301.56,1005.62 1312.18,1005.62 1322.8,1017.89 1333.42,1017.89 1344.04,1030.17 1354.65,1030.17 1365.27,1042.45 1375.89,1054.72 1386.51,1054.72 1397.13,1067 
  1407.74,1079.27 1418.36,1079.27 1428.98,1091.55 1439.6,1091.55 1450.22,1103.83 1460.84,1103.83 1471.45,1103.83 1482.07,1116.1 1492.69,1116.1 1503.31,1116.1 
  1513.93,1116.1 1524.54,1128.38 1535.16,1140.65 1545.78,1140.65 1556.4,1140.65 1567.02,1140.65 1577.63,1140.65 1588.25,1140.65 1598.87,1140.65 1609.49,1152.93 
  1620.11,1152.93 1630.72,1152.93 1641.34,1165.21 1651.96,1165.21 1662.58,1177.48 1673.2,1177.48 1683.82,1177.48 1694.43,1177.48 1705.05,1189.76 1715.67,1189.76 
  1726.29,1202.03 1736.91,1202.03 1747.52,1202.03 1758.14,1202.03 1768.76,1214.31 1779.38,1214.31 1790,1226.59 1800.61,1226.59 1811.23,1238.86 1821.85,1238.86 
  1832.47,1238.86 1843.09,1238.86 1853.71,1238.86 1864.32,1251.14 1874.94,1251.14 1885.56,1251.14 1896.18,1263.41 1906.8,1263.41 1917.41,1275.69 1928.03,1275.69 
  1938.65,1287.97 1949.27,1300.24 1959.89,1312.52 1970.5,1324.79 1981.12,1324.79 1991.74,1324.79 2002.36,1324.79 2012.98,1324.79 2023.59,1324.79 2034.21,1324.79 
  2044.83,1324.79 2055.45,1324.79 2066.07,1324.79 2076.69,1324.79 2087.3,1324.79 2097.92,1337.07 2108.54,1337.07 2119.16,1337.07 2129.78,1337.07 2140.39,1349.34 
  2151.01,1361.62 2161.63,1361.62 2172.25,1361.62 2182.87,1361.62 2193.48,1361.62 2204.1,1361.62 2214.72,1361.62 2225.34,1361.62 2235.96,1361.62 2246.57,1373.9 
  2257.19,1373.9 2267.81,1373.9 2278.43,1373.9 2289.05,1373.9 2299.67,1373.9 2310.28,1373.9 2320.9,1386.17 2331.52,1386.17 2342.14,1386.17 2352.76,1386.17 
  
  "/>
<polyline clip-path="url(#clip6002)" style="stroke:#c271d2; stroke-width:4; stroke-opacity:0.5; fill:none" points="
  239.753,158.579 250.371,170.855 260.99,183.131 271.608,195.407 282.226,207.683 292.844,219.959 303.462,232.235 314.08,244.511 324.698,256.787 335.316,269.063 
  345.934,281.339 356.552,293.614 367.171,305.89 377.789,318.166 388.407,330.442 399.025,342.718 409.643,354.994 420.261,367.27 430.879,379.546 441.497,379.546 
  452.115,391.822 462.734,404.098 473.352,416.374 483.97,428.65 494.588,440.926 505.206,440.926 515.824,440.926 526.442,453.202 537.06,465.478 547.678,477.754 
  558.296,490.029 568.915,502.305 579.533,514.581 590.151,526.857 600.769,539.133 611.387,551.409 622.005,563.685 632.623,575.961 643.241,575.961 653.859,588.237 
  664.477,600.513 675.096,612.789 685.714,612.789 696.332,625.065 706.95,637.341 717.568,649.617 728.186,661.893 738.804,674.168 749.422,674.168 760.04,674.168 
  770.659,686.444 781.277,698.72 791.895,710.996 802.513,723.272 813.131,735.548 823.749,747.824 834.367,747.824 844.985,760.1 855.603,760.1 866.221,772.376 
  876.84,772.376 887.458,772.376 898.076,772.376 908.694,784.652 919.312,796.928 929.93,809.204 940.548,821.48 951.166,821.48 961.784,821.48 972.402,833.756 
  983.021,833.756 993.639,833.756 1004.26,833.756 1014.87,846.032 1025.49,846.032 1036.11,858.308 1046.73,870.583 1057.35,882.859 1067.97,895.135 1078.58,907.411 
  1089.2,919.687 1099.82,919.687 1110.44,931.963 1121.06,944.239 1131.67,944.239 1142.29,956.515 1152.91,956.515 1163.53,968.791 1174.15,981.067 1184.76,981.067 
  1195.38,981.067 1206,981.067 1216.62,981.067 1227.24,993.343 1237.86,1005.62 1248.47,1017.89 1259.09,1030.17 1269.71,1042.45 1280.33,1054.72 1290.95,1054.72 
  1301.56,1067 1312.18,1079.27 1322.8,1079.27 1333.42,1091.55 1344.04,1103.83 1354.65,1103.83 1365.27,1103.83 1375.89,1103.83 1386.51,1103.83 1397.13,1103.83 
  1407.74,1116.1 1418.36,1116.1 1428.98,1116.1 1439.6,1116.1 1450.22,1128.38 1460.84,1128.38 1471.45,1128.38 1482.07,1140.65 1492.69,1140.65 1503.31,1140.65 
  1513.93,1140.65 1524.54,1152.93 1535.16,1152.93 1545.78,1152.93 1556.4,1152.93 1567.02,1152.93 1577.63,1152.93 1588.25,1152.93 1598.87,1165.21 1609.49,1165.21 
  1620.11,1165.21 1630.72,1165.21 1641.34,1165.21 1651.96,1165.21 1662.58,1177.48 1673.2,1177.48 1683.82,1177.48 1694.43,1177.48 1705.05,1177.48 1715.67,1177.48 
  1726.29,1177.48 1736.91,1177.48 1747.52,1189.76 1758.14,1189.76 1768.76,1202.03 1779.38,1214.31 1790,1226.59 1800.61,1238.86 1811.23,1251.14 1821.85,1251.14 
  1832.47,1251.14 1843.09,1263.41 1853.71,1263.41 1864.32,1263.41 1874.94,1275.69 1885.56,1287.97 1896.18,1287.97 1906.8,1287.97 1917.41,1287.97 1928.03,1287.97 
  1938.65,1287.97 1949.27,1287.97 1959.89,1287.97 1970.5,1287.97 1981.12,1287.97 1991.74,1287.97 2002.36,1300.24 2012.98,1300.24 2023.59,1312.52 2034.21,1324.79 
  2044.83,1324.79 2055.45,1324.79 2066.07,1324.79 2076.69,1324.79 2087.3,1324.79 2097.92,1324.79 2108.54,1324.79 2119.16,1324.79 2129.78,1324.79 2140.39,1324.79 
  2151.01,1337.07 2161.63,1337.07 2172.25,1349.34 2182.87,1361.62 2193.48,1361.62 2204.1,1373.9 2214.72,1373.9 2225.34,1373.9 2235.96,1373.9 2246.57,1386.17 
  2257.19,1386.17 2267.81,1386.17 2278.43,1386.17 2289.05,1386.17 2299.67,1386.17 2310.28,1386.17 2320.9,1386.17 2331.52,1386.17 2342.14,1386.17 2352.76,1386.17 
  
  "/>
<polyline clip-path="url(#clip6002)" style="stroke:#ac8d18; stroke-width:4; stroke-opacity:0.5; fill:none" points="
  239.753,158.579 250.371,170.855 260.99,183.131 271.608,195.407 282.226,207.683 292.844,219.959 303.462,232.235 314.08,244.511 324.698,256.787 335.316,256.787 
  345.934,269.063 356.552,281.339 367.171,293.614 377.789,305.89 388.407,318.166 399.025,330.442 409.643,342.718 420.261,354.994 430.879,354.994 441.497,367.27 
  452.115,367.27 462.734,367.27 473.352,367.27 483.97,379.546 494.588,391.822 505.206,391.822 515.824,404.098 526.442,404.098 537.06,416.374 547.678,428.65 
  558.296,440.926 568.915,453.202 579.533,465.478 590.151,477.754 600.769,490.029 611.387,502.305 622.005,514.581 632.623,526.857 643.241,539.133 653.859,551.409 
  664.477,563.685 675.096,575.961 685.714,575.961 696.332,575.961 706.95,588.237 717.568,600.513 728.186,612.789 738.804,612.789 749.422,625.065 760.04,637.341 
  770.659,649.617 781.277,661.893 791.895,674.168 802.513,674.168 813.131,686.444 823.749,698.72 834.367,710.996 844.985,710.996 855.603,723.272 866.221,723.272 
  876.84,735.548 887.458,735.548 898.076,735.548 908.694,747.824 919.312,747.824 929.93,747.824 940.548,760.1 951.166,772.376 961.784,772.376 972.402,784.652 
  983.021,796.928 993.639,809.204 1004.26,821.48 1014.87,833.756 1025.49,833.756 1036.11,833.756 1046.73,846.032 1057.35,846.032 1067.97,858.308 1078.58,858.308 
  1089.2,858.308 1099.82,870.583 1110.44,882.859 1121.06,882.859 1131.67,895.135 1142.29,907.411 1152.91,907.411 1163.53,919.687 1174.15,931.963 1184.76,944.239 
  1195.38,956.515 1206,956.515 1216.62,968.791 1227.24,968.791 1237.86,981.067 1248.47,981.067 1259.09,993.343 1269.71,993.343 1280.33,1005.62 1290.95,1005.62 
  1301.56,1005.62 1312.18,1005.62 1322.8,1005.62 1333.42,1005.62 1344.04,1017.89 1354.65,1017.89 1365.27,1030.17 1375.89,1030.17 1386.51,1030.17 1397.13,1030.17 
  1407.74,1042.45 1418.36,1042.45 1428.98,1042.45 1439.6,1054.72 1450.22,1054.72 1460.84,1054.72 1471.45,1054.72 1482.07,1054.72 1492.69,1054.72 1503.31,1054.72 
  1513.93,1067 1524.54,1067 1535.16,1079.27 1545.78,1091.55 1556.4,1091.55 1567.02,1103.83 1577.63,1103.83 1588.25,1103.83 1598.87,1116.1 1609.49,1128.38 
  1620.11,1128.38 1630.72,1140.65 1641.34,1140.65 1651.96,1140.65 1662.58,1140.65 1673.2,1140.65 1683.82,1140.65 1694.43,1140.65 1705.05,1152.93 1715.67,1165.21 
  1726.29,1165.21 1736.91,1177.48 1747.52,1189.76 1758.14,1189.76 1768.76,1202.03 1779.38,1214.31 1790,1214.31 1800.61,1214.31 1811.23,1226.59 1821.85,1226.59 
  1832.47,1226.59 1843.09,1238.86 1853.71,1251.14 1864.32,1251.14 1874.94,1263.41 1885.56,1263.41 1896.18,1275.69 1906.8,1275.69 1917.41,1275.69 1928.03,1275.69 
  1938.65,1275.69 1949.27,1275.69 1959.89,1275.69 1970.5,1275.69 1981.12,1275.69 1991.74,1275.69 2002.36,1287.97 2012.98,1287.97 2023.59,1300.24 2034.21,1300.24 
  2044.83,1300.24 2055.45,1300.24 2066.07,1312.52 2076.69,1312.52 2087.3,1312.52 2097.92,1312.52 2108.54,1312.52 2119.16,1312.52 2129.78,1324.79 2140.39,1324.79 
  2151.01,1337.07 2161.63,1337.07 2172.25,1337.07 2182.87,1337.07 2193.48,1337.07 2204.1,1349.34 2214.72,1349.34 2225.34,1349.34 2235.96,1349.34 2246.57,1349.34 
  2257.19,1361.62 2267.81,1361.62 2278.43,1361.62 2289.05,1361.62 2299.67,1373.9 2310.28,1373.9 2320.9,1373.9 2331.52,1373.9 2342.14,1373.9 2352.76,1386.17 
  
  "/>
<polyline clip-path="url(#clip6002)" style="stroke:#00a9ad; stroke-width:4; stroke-opacity:0.5; fill:none" points="
  239.753,158.579 250.371,170.855 260.99,183.131 271.608,195.407 282.226,207.683 292.844,219.959 303.462,232.235 314.08,244.511 324.698,256.787 335.316,269.063 
  345.934,281.339 356.552,293.614 367.171,305.89 377.789,318.166 388.407,330.442 399.025,342.718 409.643,354.994 420.261,354.994 430.879,367.27 441.497,367.27 
  452.115,379.546 462.734,391.822 473.352,391.822 483.97,404.098 494.588,416.374 505.206,428.65 515.824,440.926 526.442,453.202 537.06,465.478 547.678,465.478 
  558.296,477.754 568.915,490.029 579.533,502.305 590.151,514.581 600.769,526.857 611.387,526.857 622.005,539.133 632.623,539.133 643.241,539.133 653.859,551.409 
  664.477,563.685 675.096,575.961 685.714,575.961 696.332,588.237 706.95,600.513 717.568,612.789 728.186,625.065 738.804,637.341 749.422,649.617 760.04,649.617 
  770.659,661.893 781.277,661.893 791.895,661.893 802.513,674.168 813.131,674.168 823.749,686.444 834.367,698.72 844.985,710.996 855.603,723.272 866.221,735.548 
  876.84,747.824 887.458,760.1 898.076,760.1 908.694,760.1 919.312,772.376 929.93,784.652 940.548,784.652 951.166,784.652 961.784,796.928 972.402,796.928 
  983.021,796.928 993.639,796.928 1004.26,796.928 1014.87,796.928 1025.49,809.204 1036.11,809.204 1046.73,809.204 1057.35,821.48 1067.97,821.48 1078.58,821.48 
  1089.2,833.756 1099.82,846.032 1110.44,846.032 1121.06,858.308 1131.67,870.583 1142.29,870.583 1152.91,882.859 1163.53,882.859 1174.15,882.859 1184.76,882.859 
  1195.38,882.859 1206,895.135 1216.62,907.411 1227.24,919.687 1237.86,919.687 1248.47,919.687 1259.09,919.687 1269.71,919.687 1280.33,931.963 1290.95,931.963 
  1301.56,931.963 1312.18,931.963 1322.8,944.239 1333.42,956.515 1344.04,968.791 1354.65,968.791 1365.27,968.791 1375.89,981.067 1386.51,993.343 1397.13,1005.62 
  1407.74,1005.62 1418.36,1005.62 1428.98,1005.62 1439.6,1017.89 1450.22,1030.17 1460.84,1042.45 1471.45,1042.45 1482.07,1042.45 1492.69,1042.45 1503.31,1054.72 
  1513.93,1067 1524.54,1079.27 1535.16,1091.55 1545.78,1103.83 1556.4,1103.83 1567.02,1103.83 1577.63,1116.1 1588.25,1128.38 1598.87,1128.38 1609.49,1128.38 
  1620.11,1140.65 1630.72,1152.93 1641.34,1165.21 1651.96,1177.48 1662.58,1177.48 1673.2,1177.48 1683.82,1177.48 1694.43,1177.48 1705.05,1177.48 1715.67,1189.76 
  1726.29,1202.03 1736.91,1214.31 1747.52,1226.59 1758.14,1226.59 1768.76,1226.59 1779.38,1226.59 1790,1226.59 1800.61,1226.59 1811.23,1238.86 1821.85,1238.86 
  1832.47,1238.86 1843.09,1251.14 1853.71,1263.41 1864.32,1263.41 1874.94,1263.41 1885.56,1263.41 1896.18,1263.41 1906.8,1263.41 1917.41,1275.69 1928.03,1275.69 
  1938.65,1287.97 1949.27,1287.97 1959.89,1287.97 1970.5,1287.97 1981.12,1300.24 1991.74,1312.52 2002.36,1324.79 2012.98,1324.79 2023.59,1324.79 2034.21,1324.79 
  2044.83,1324.79 2055.45,1324.79 2066.07,1324.79 2076.69,1324.79 2087.3,1337.07 2097.92,1337.07 2108.54,1349.34 2119.16,1349.34 2129.78,1349.34 2140.39,1349.34 
  2151.01,1349.34 2161.63,1349.34 2172.25,1349.34 2182.87,1349.34 2193.48,1349.34 2204.1,1349.34 2214.72,1349.34 2225.34,1349.34 2235.96,1349.34 2246.57,1349.34 
  2257.19,1349.34 2267.81,1349.34 2278.43,1349.34 2289.05,1349.34 2299.67,1361.62 2310.28,1373.9 2320.9,1386.17 2331.52,1386.17 2342.14,1386.17 2352.76,1386.17 
  
  "/>
<polyline clip-path="url(#clip6002)" style="stroke:#ed5d92; stroke-width:4; stroke-opacity:0.5; fill:none" points="
  239.753,158.579 250.371,170.855 260.99,183.131 271.608,195.407 282.226,207.683 292.844,219.959 303.462,232.235 314.08,244.511 324.698,256.787 335.316,269.063 
  345.934,269.063 356.552,281.339 367.171,293.614 377.789,293.614 388.407,305.89 399.025,318.166 409.643,330.442 420.261,342.718 430.879,354.994 441.497,367.27 
  452.115,379.546 462.734,391.822 473.352,404.098 483.97,404.098 494.588,416.374 505.206,416.374 515.824,428.65 526.442,440.926 537.06,453.202 547.678,465.478 
  558.296,477.754 568.915,490.029 579.533,502.305 590.151,514.581 600.769,514.581 611.387,514.581 622.005,526.857 632.623,539.133 643.241,551.409 653.859,551.409 
  664.477,563.685 675.096,563.685 685.714,575.961 696.332,588.237 706.95,600.513 717.568,600.513 728.186,612.789 738.804,612.789 749.422,625.065 760.04,637.341 
  770.659,649.617 781.277,661.893 791.895,661.893 802.513,674.168 813.131,686.444 823.749,686.444 834.367,698.72 844.985,710.996 855.603,710.996 866.221,723.272 
  876.84,723.272 887.458,735.548 898.076,747.824 908.694,747.824 919.312,747.824 929.93,747.824 940.548,760.1 951.166,772.376 961.784,772.376 972.402,784.652 
  983.021,796.928 993.639,809.204 1004.26,821.48 1014.87,821.48 1025.49,833.756 1036.11,833.756 1046.73,846.032 1057.35,846.032 1067.97,858.308 1078.58,870.583 
  1089.2,882.859 1099.82,882.859 1110.44,882.859 1121.06,895.135 1131.67,907.411 1142.29,907.411 1152.91,919.687 1163.53,919.687 1174.15,919.687 1184.76,931.963 
  1195.38,944.239 1206,944.239 1216.62,956.515 1227.24,968.791 1237.86,981.067 1248.47,981.067 1259.09,981.067 1269.71,981.067 1280.33,981.067 1290.95,981.067 
  1301.56,993.343 1312.18,993.343 1322.8,993.343 1333.42,1005.62 1344.04,1017.89 1354.65,1017.89 1365.27,1017.89 1375.89,1017.89 1386.51,1030.17 1397.13,1042.45 
  1407.74,1042.45 1418.36,1042.45 1428.98,1042.45 1439.6,1042.45 1450.22,1042.45 1460.84,1054.72 1471.45,1054.72 1482.07,1054.72 1492.69,1054.72 1503.31,1067 
  1513.93,1079.27 1524.54,1079.27 1535.16,1091.55 1545.78,1091.55 1556.4,1091.55 1567.02,1103.83 1577.63,1116.1 1588.25,1116.1 1598.87,1116.1 1609.49,1116.1 
  1620.11,1116.1 1630.72,1116.1 1641.34,1128.38 1651.96,1128.38 1662.58,1140.65 1673.2,1140.65 1683.82,1140.65 1694.43,1152.93 1705.05,1152.93 1715.67,1165.21 
  1726.29,1177.48 1736.91,1177.48 1747.52,1177.48 1758.14,1177.48 1768.76,1177.48 1779.38,1177.48 1790,1177.48 1800.61,1177.48 1811.23,1189.76 1821.85,1202.03 
  1832.47,1214.31 1843.09,1226.59 1853.71,1226.59 1864.32,1226.59 1874.94,1226.59 1885.56,1226.59 1896.18,1238.86 1906.8,1238.86 1917.41,1238.86 1928.03,1251.14 
  1938.65,1251.14 1949.27,1251.14 1959.89,1251.14 1970.5,1251.14 1981.12,1263.41 1991.74,1263.41 2002.36,1275.69 2012.98,1287.97 2023.59,1287.97 2034.21,1300.24 
  2044.83,1300.24 2055.45,1300.24 2066.07,1312.52 2076.69,1312.52 2087.3,1324.79 2097.92,1324.79 2108.54,1337.07 2119.16,1337.07 2129.78,1337.07 2140.39,1337.07 
  2151.01,1337.07 2161.63,1337.07 2172.25,1349.34 2182.87,1349.34 2193.48,1349.34 2204.1,1349.34 2214.72,1349.34 2225.34,1349.34 2235.96,1361.62 2246.57,1373.9 
  2257.19,1373.9 2267.81,1373.9 2278.43,1373.9 2289.05,1373.9 2299.67,1373.9 2310.28,1386.17 2320.9,1386.17 2331.52,1386.17 2342.14,1386.17 2352.76,1386.17 
  
  "/>
<polyline clip-path="url(#clip6002)" style="stroke:#c68125; stroke-width:4; stroke-opacity:0.5; fill:none" points="
  239.753,158.579 250.371,170.855 260.99,183.131 271.608,195.407 282.226,207.683 292.844,219.959 303.462,232.235 314.08,244.511 324.698,256.787 335.316,269.063 
  345.934,281.339 356.552,293.614 367.171,305.89 377.789,305.89 388.407,318.166 399.025,330.442 409.643,342.718 420.261,354.994 430.879,367.27 441.497,367.27 
  452.115,379.546 462.734,391.822 473.352,404.098 483.97,404.098 494.588,416.374 505.206,428.65 515.824,440.926 526.442,453.202 537.06,465.478 547.678,465.478 
  558.296,465.478 568.915,477.754 579.533,490.029 590.151,502.305 600.769,502.305 611.387,514.581 622.005,526.857 632.623,539.133 643.241,551.409 653.859,551.409 
  664.477,551.409 675.096,563.685 685.714,575.961 696.332,588.237 706.95,588.237 717.568,600.513 728.186,612.789 738.804,625.065 749.422,625.065 760.04,637.341 
  770.659,637.341 781.277,637.341 791.895,649.617 802.513,649.617 813.131,649.617 823.749,661.893 834.367,674.168 844.985,686.444 855.603,698.72 866.221,698.72 
  876.84,710.996 887.458,710.996 898.076,710.996 908.694,710.996 919.312,723.272 929.93,735.548 940.548,747.824 951.166,747.824 961.784,760.1 972.402,760.1 
  983.021,760.1 993.639,760.1 1004.26,772.376 1014.87,772.376 1025.49,772.376 1036.11,772.376 1046.73,784.652 1057.35,796.928 1067.97,796.928 1078.58,809.204 
  1089.2,809.204 1099.82,821.48 1110.44,833.756 1121.06,833.756 1131.67,846.032 1142.29,858.308 1152.91,858.308 1163.53,870.583 1174.15,882.859 1184.76,895.135 
  1195.38,907.411 1206,919.687 1216.62,931.963 1227.24,944.239 1237.86,944.239 1248.47,956.515 1259.09,968.791 1269.71,981.067 1280.33,981.067 1290.95,993.343 
  1301.56,993.343 1312.18,993.343 1322.8,993.343 1333.42,1005.62 1344.04,1005.62 1354.65,1005.62 1365.27,1005.62 1375.89,1017.89 1386.51,1017.89 1397.13,1017.89 
  1407.74,1017.89 1418.36,1017.89 1428.98,1017.89 1439.6,1030.17 1450.22,1042.45 1460.84,1042.45 1471.45,1054.72 1482.07,1067 1492.69,1079.27 1503.31,1079.27 
  1513.93,1091.55 1524.54,1103.83 1535.16,1103.83 1545.78,1116.1 1556.4,1116.1 1567.02,1128.38 1577.63,1128.38 1588.25,1128.38 1598.87,1140.65 1609.49,1140.65 
  1620.11,1152.93 1630.72,1152.93 1641.34,1152.93 1651.96,1165.21 1662.58,1165.21 1673.2,1177.48 1683.82,1189.76 1694.43,1202.03 1705.05,1202.03 1715.67,1202.03 
  1726.29,1202.03 1736.91,1202.03 1747.52,1202.03 1758.14,1202.03 1768.76,1214.31 1779.38,1214.31 1790,1214.31 1800.61,1214.31 1811.23,1214.31 1821.85,1214.31 
  1832.47,1214.31 1843.09,1214.31 1853.71,1226.59 1864.32,1226.59 1874.94,1238.86 1885.56,1251.14 1896.18,1251.14 1906.8,1251.14 1917.41,1251.14 1928.03,1251.14 
  1938.65,1251.14 1949.27,1263.41 1959.89,1263.41 1970.5,1275.69 1981.12,1275.69 1991.74,1287.97 2002.36,1287.97 2012.98,1287.97 2023.59,1300.24 2034.21,1312.52 
  2044.83,1312.52 2055.45,1312.52 2066.07,1312.52 2076.69,1312.52 2087.3,1324.79 2097.92,1324.79 2108.54,1337.07 2119.16,1337.07 2129.78,1337.07 2140.39,1349.34 
  2151.01,1349.34 2161.63,1349.34 2172.25,1349.34 2182.87,1349.34 2193.48,1361.62 2204.1,1361.62 2214.72,1361.62 2225.34,1373.9 2235.96,1373.9 2246.57,1373.9 
  2257.19,1373.9 2267.81,1373.9 2278.43,1373.9 2289.05,1373.9 2299.67,1373.9 2310.28,1373.9 2320.9,1386.17 2331.52,1386.17 2342.14,1386.17 2352.76,1386.17 
  
  "/>
<polyline clip-path="url(#clip6002)" style="stroke:#00a98d; stroke-width:4; stroke-opacity:0.5; fill:none" points="
  239.753,158.579 250.371,170.855 260.99,183.131 271.608,195.407 282.226,207.683 292.844,219.959 303.462,232.235 314.08,244.511 324.698,256.787 335.316,269.063 
  345.934,281.339 356.552,293.614 367.171,305.89 377.789,318.166 388.407,330.442 399.025,342.718 409.643,354.994 420.261,367.27 430.879,379.546 441.497,391.822 
  452.115,404.098 462.734,416.374 473.352,428.65 483.97,428.65 494.588,440.926 505.206,453.202 515.824,465.478 526.442,477.754 537.06,490.029 547.678,502.305 
  558.296,514.581 568.915,526.857 579.533,539.133 590.151,539.133 600.769,551.409 611.387,551.409 622.005,563.685 632.623,575.961 643.241,588.237 653.859,588.237 
  664.477,588.237 675.096,588.237 685.714,600.513 696.332,612.789 706.95,612.789 717.568,625.065 728.186,625.065 738.804,637.341 749.422,649.617 760.04,649.617 
  770.659,661.893 781.277,661.893 791.895,661.893 802.513,674.168 813.131,674.168 823.749,674.168 834.367,674.168 844.985,686.444 855.603,686.444 866.221,686.444 
  876.84,686.444 887.458,686.444 898.076,686.444 908.694,698.72 919.312,710.996 929.93,723.272 940.548,735.548 951.166,747.824 961.784,760.1 972.402,772.376 
  983.021,772.376 993.639,784.652 1004.26,784.652 1014.87,796.928 1025.49,796.928 1036.11,809.204 1046.73,821.48 1057.35,833.756 1067.97,833.756 1078.58,846.032 
  1089.2,846.032 1099.82,858.308 1110.44,858.308 1121.06,858.308 1131.67,858.308 1142.29,870.583 1152.91,882.859 1163.53,895.135 1174.15,907.411 1184.76,907.411 
  1195.38,907.411 1206,907.411 1216.62,907.411 1227.24,919.687 1237.86,919.687 1248.47,919.687 1259.09,931.963 1269.71,931.963 1280.33,944.239 1290.95,956.515 
  1301.56,956.515 1312.18,956.515 1322.8,956.515 1333.42,968.791 1344.04,968.791 1354.65,968.791 1365.27,968.791 1375.89,968.791 1386.51,968.791 1397.13,981.067 
  1407.74,993.343 1418.36,1005.62 1428.98,1005.62 1439.6,1017.89 1450.22,1030.17 1460.84,1042.45 1471.45,1054.72 1482.07,1054.72 1492.69,1067 1503.31,1079.27 
  1513.93,1091.55 1524.54,1091.55 1535.16,1091.55 1545.78,1091.55 1556.4,1103.83 1567.02,1116.1 1577.63,1116.1 1588.25,1116.1 1598.87,1116.1 1609.49,1116.1 
  1620.11,1116.1 1630.72,1128.38 1641.34,1140.65 1651.96,1152.93 1662.58,1165.21 1673.2,1165.21 1683.82,1177.48 1694.43,1177.48 1705.05,1189.76 1715.67,1189.76 
  1726.29,1189.76 1736.91,1202.03 1747.52,1202.03 1758.14,1202.03 1768.76,1214.31 1779.38,1214.31 1790,1214.31 1800.61,1226.59 1811.23,1238.86 1821.85,1238.86 
  1832.47,1238.86 1843.09,1251.14 1853.71,1251.14 1864.32,1263.41 1874.94,1263.41 1885.56,1263.41 1896.18,1263.41 1906.8,1275.69 1917.41,1275.69 1928.03,1275.69 
  1938.65,1275.69 1949.27,1275.69 1959.89,1275.69 1970.5,1287.97 1981.12,1300.24 1991.74,1300.24 2002.36,1300.24 2012.98,1300.24 2023.59,1312.52 2034.21,1312.52 
  2044.83,1312.52 2055.45,1312.52 2066.07,1324.79 2076.69,1324.79 2087.3,1337.07 2097.92,1349.34 2108.54,1361.62 2119.16,1361.62 2129.78,1361.62 2140.39,1361.62 
  2151.01,1361.62 2161.63,1361.62 2172.25,1361.62 2182.87,1361.62 2193.48,1361.62 2204.1,1361.62 2214.72,1361.62 2225.34,1361.62 2235.96,1361.62 2246.57,1361.62 
  2257.19,1361.62 2267.81,1373.9 2278.43,1373.9 2289.05,1373.9 2299.67,1373.9 2310.28,1386.17 2320.9,1386.17 2331.52,1386.17 2342.14,1386.17 2352.76,1386.17 
  
  "/>
<polyline clip-path="url(#clip6002)" style="stroke:#8e971d; stroke-width:4; stroke-opacity:0.5; fill:none" points="
  239.753,158.579 250.371,170.855 260.99,183.131 271.608,195.407 282.226,207.683 292.844,219.959 303.462,232.235 314.08,244.511 324.698,256.787 335.316,269.063 
  345.934,281.339 356.552,293.614 367.171,305.89 377.789,305.89 388.407,318.166 399.025,318.166 409.643,330.442 420.261,342.718 430.879,342.718 441.497,342.718 
  452.115,354.994 462.734,367.27 473.352,379.546 483.97,391.822 494.588,404.098 505.206,404.098 515.824,416.374 526.442,428.65 537.06,428.65 547.678,440.926 
  558.296,453.202 568.915,465.478 579.533,477.754 590.151,490.029 600.769,502.305 611.387,502.305 622.005,502.305 632.623,502.305 643.241,502.305 653.859,514.581 
  664.477,526.857 675.096,539.133 685.714,539.133 696.332,551.409 706.95,563.685 717.568,575.961 728.186,588.237 738.804,588.237 749.422,600.513 760.04,600.513 
  770.659,612.789 781.277,625.065 791.895,625.065 802.513,637.341 813.131,637.341 823.749,649.617 834.367,661.893 844.985,674.168 855.603,686.444 866.221,698.72 
  876.84,710.996 887.458,723.272 898.076,723.272 908.694,735.548 919.312,735.548 929.93,747.824 940.548,760.1 951.166,760.1 961.784,772.376 972.402,784.652 
  983.021,784.652 993.639,796.928 1004.26,796.928 1014.87,796.928 1025.49,796.928 1036.11,809.204 1046.73,809.204 1057.35,821.48 1067.97,821.48 1078.58,833.756 
  1089.2,846.032 1099.82,846.032 1110.44,858.308 1121.06,870.583 1131.67,882.859 1142.29,882.859 1152.91,895.135 1163.53,895.135 1174.15,907.411 1184.76,919.687 
  1195.38,919.687 1206,931.963 1216.62,931.963 1227.24,944.239 1237.86,944.239 1248.47,956.515 1259.09,956.515 1269.71,956.515 1280.33,968.791 1290.95,981.067 
  1301.56,981.067 1312.18,993.343 1322.8,993.343 1333.42,993.343 1344.04,993.343 1354.65,1005.62 1365.27,1017.89 1375.89,1017.89 1386.51,1017.89 1397.13,1030.17 
  1407.74,1030.17 1418.36,1042.45 1428.98,1042.45 1439.6,1054.72 1450.22,1067 1460.84,1067 1471.45,1067 1482.07,1067 1492.69,1067 1503.31,1067 
  1513.93,1067 1524.54,1067 1535.16,1079.27 1545.78,1091.55 1556.4,1091.55 1567.02,1103.83 1577.63,1116.1 1588.25,1116.1 1598.87,1116.1 1609.49,1128.38 
  1620.11,1128.38 1630.72,1128.38 1641.34,1140.65 1651.96,1152.93 1662.58,1152.93 1673.2,1152.93 1683.82,1152.93 1694.43,1165.21 1705.05,1165.21 1715.67,1165.21 
  1726.29,1177.48 1736.91,1177.48 1747.52,1177.48 1758.14,1177.48 1768.76,1189.76 1779.38,1202.03 1790,1214.31 1800.61,1214.31 1811.23,1226.59 1821.85,1226.59 
  1832.47,1226.59 1843.09,1238.86 1853.71,1238.86 1864.32,1251.14 1874.94,1263.41 1885.56,1275.69 1896.18,1275.69 1906.8,1275.69 1917.41,1287.97 1928.03,1287.97 
  1938.65,1300.24 1949.27,1300.24 1959.89,1300.24 1970.5,1300.24 1981.12,1300.24 1991.74,1312.52 2002.36,1312.52 2012.98,1324.79 2023.59,1337.07 2034.21,1349.34 
  2044.83,1349.34 2055.45,1349.34 2066.07,1349.34 2076.69,1349.34 2087.3,1361.62 2097.92,1373.9 2108.54,1373.9 2119.16,1373.9 2129.78,1373.9 2140.39,1373.9 
  2151.01,1373.9 2161.63,1386.17 2172.25,1386.17 2182.87,1386.17 2193.48,1386.17 2204.1,1386.17 2214.72,1386.17 2225.34,1386.17 2235.96,1386.17 2246.57,1386.17 
  2257.19,1386.17 2267.81,1386.17 2278.43,1386.17 2289.05,1386.17 2299.67,1386.17 2310.28,1386.17 2320.9,1386.17 2331.52,1386.17 2342.14,1386.17 2352.76,1386.17 
  
  "/>
<polygon clip-path="url(#clip6002)" points="
239.753,158.579 250.371,170.855 260.99,184.226 271.608,197.122 282.226,209.864 292.844,222.463 303.462,234.928 314.08,247.261 324.698,259.46 335.316,271.535 
  345.934,283.485 356.552,295.313 367.171,307.016 377.789,318.607 388.407,330.09 399.025,341.458 409.643,352.718 420.261,363.856 430.879,374.893 441.497,385.82 
  452.115,396.658 462.734,407.394 473.352,418.024 483.97,428.557 494.588,438.992 505.206,449.317 515.824,459.569 526.442,469.719 537.06,479.783 547.678,489.759 
  558.296,499.644 568.915,509.46 579.533,519.18 590.151,528.817 600.769,538.373 611.387,547.849 622.005,557.251 632.623,566.573 643.241,575.804 653.859,584.971 
  664.477,594.056 675.096,603.071 685.714,611.999 696.332,620.852 706.95,629.652 717.568,638.382 728.186,647.05 738.804,655.635 749.422,664.14 760.04,672.591 
  770.659,680.966 781.277,689.265 791.895,697.504 802.513,705.682 813.131,713.786 823.749,721.827 834.367,729.817 844.985,737.737 855.603,745.588 866.221,753.386 
  876.84,761.125 887.458,768.811 898.076,776.443 908.694,784.023 919.312,791.533 929.93,799.002 940.548,806.416 951.166,813.762 961.784,821.044 972.402,828.262 
  983.021,835.438 993.639,842.557 1004.26,849.604 1014.87,856.623 1025.49,863.594 1036.11,870.505 1046.73,877.36 1057.35,884.164 1067.97,890.923 1078.58,897.634 
  1089.2,904.298 1099.82,910.911 1110.44,917.476 1121.06,923.979 1131.67,930.441 1142.29,936.864 1152.91,943.243 1163.53,949.577 1174.15,955.86 1184.76,962.092 
  1195.38,968.273 1206,974.403 1216.62,980.493 1227.24,986.542 1237.86,992.535 1248.47,998.498 1259.09,1004.41 1269.71,1010.29 1280.33,1016.1 1290.95,1021.88 
  1301.56,1027.61 1312.18,1033.3 1322.8,1038.95 1333.42,1044.57 1344.04,1050.12 1354.65,1055.64 1365.27,1061.13 1375.89,1066.55 1386.51,1071.96 1397.13,1077.32 
  1407.74,1082.62 1418.36,1087.9 1428.98,1093.14 1439.6,1098.33 1450.22,1103.47 1460.84,1108.59 1471.45,1113.67 1482.07,1118.71 1492.69,1123.7 1503.31,1128.65 
  1513.93,1133.56 1524.54,1138.43 1535.16,1143.28 1545.78,1148.08 1556.4,1152.84 1567.02,1157.56 1577.63,1162.24 1588.25,1166.88 1598.87,1171.5 1609.49,1176.06 
  1620.11,1180.59 1630.72,1185.08 1641.34,1189.53 1651.96,1193.95 1662.58,1198.34 1673.2,1202.68 1683.82,1206.99 1694.43,1211.26 1705.05,1215.5 1715.67,1219.69 
  1726.29,1223.83 1736.91,1227.95 1747.52,1232.02 1758.14,1236.05 1768.76,1240.05 1779.38,1244.02 1790,1247.95 1800.61,1251.82 1811.23,1255.67 1821.85,1259.48 
  1832.47,1263.24 1843.09,1266.97 1853.71,1270.65 1864.32,1274.31 1874.94,1277.93 1885.56,1281.51 1896.18,1285.07 1906.8,1288.57 1917.41,1292.04 1928.03,1295.47 
  1938.65,1298.85 1949.27,1302.19 1959.89,1305.5 1970.5,1308.76 1981.12,1311.97 1991.74,1315.15 2002.36,1318.28 2012.98,1321.36 2023.59,1324.41 2034.21,1327.41 
  2044.83,1330.36 2055.45,1333.28 2066.07,1336.15 2076.69,1339 2087.3,1341.79 2097.92,1344.52 2108.54,1347.2 2119.16,1349.85 2129.78,1352.44 2140.39,1354.98 
  2151.01,1357.47 2161.63,1359.9 2172.25,1362.27 2182.87,1364.59 2193.48,1366.85 2204.1,1369.05 2214.72,1371.17 2225.34,1373.21 2235.96,1375.21 2246.57,1377.1 
  2257.19,1378.93 2267.81,1380.66 2278.43,1382.28 2289.05,1383.79 2299.67,1385.17 2310.28,1386.4 2320.9,1387.44 2331.52,1388.22 2342.14,1388.71 2352.76,1386.17 
  2352.76,1386.17 2342.14,1380.14 2331.52,1377.14 2320.9,1374.13 2310.28,1371.19 2299.67,1368.26 2289.05,1365.32 2278.43,1362.38 2267.81,1359.42 2257.19,1356.43 
  2246.57,1353.43 2235.96,1350.4 2225.34,1347.34 2214.72,1344.26 2204.1,1341.15 2193.48,1338.01 2182.87,1334.83 2172.25,1331.63 2161.63,1328.4 2151.01,1325.14 
  2140.39,1321.85 2129.78,1318.52 2119.16,1315.17 2108.54,1311.79 2097.92,1308.38 2087.3,1304.95 2076.69,1301.47 2066.07,1297.97 2055.45,1294.46 2044.83,1290.91 
  2034.21,1287.33 2023.59,1283.72 2012.98,1280.09 2002.36,1276.41 1991.74,1272.72 1981.12,1268.99 1970.5,1265.25 1959.89,1261.48 1949.27,1257.66 1938.65,1253.8 
  1928.03,1249.93 1917.41,1246.01 1906.8,1242.07 1896.18,1238.13 1885.56,1234.13 1874.94,1230.1 1864.32,1226.06 1853.71,1221.98 1843.09,1217.86 1832.47,1213.73 
  1821.85,1209.58 1811.23,1205.38 1800.61,1201.15 1790,1196.9 1779.38,1192.62 1768.76,1188.29 1758.14,1183.95 1747.52,1179.58 1736.91,1175.19 1726.29,1170.75 
  1715.67,1166.29 1705.05,1161.81 1694.43,1157.29 1683.82,1152.74 1673.2,1148.15 1662.58,1143.54 1651.96,1138.9 1641.34,1134.23 1630.72,1129.51 1620.11,1124.77 
  1609.49,1120.02 1598.87,1115.22 1588.25,1110.41 1577.63,1105.56 1567.02,1100.67 1556.4,1095.77 1545.78,1090.82 1535.16,1085.82 1524.54,1080.81 1513.93,1075.78 
  1503.31,1070.7 1492.69,1065.6 1482.07,1060.46 1471.45,1055.28 1460.84,1050.08 1450.22,1044.82 1439.6,1039.56 1428.98,1034.27 1418.36,1028.94 1407.74,1023.56 
  1397.13,1018.16 1386.51,1012.73 1375.89,1007.26 1365.27,1001.75 1354.65,996.207 1344.04,990.638 1333.42,985.043 1322.8,979.401 1312.18,973.714 1301.56,968 
  1290.95,962.256 1280.33,956.488 1269.71,950.666 1259.09,944.827 1248.47,938.933 1237.86,933.031 1227.24,927.06 1216.62,921.037 1206,914.987 1195.38,908.912 
  1184.76,902.796 1174.15,896.635 1163.53,890.464 1152.91,884.24 1142.29,877.963 1131.67,871.649 1121.06,865.305 1110.44,858.931 1099.82,852.508 1089.2,846.04 
  1078.58,839.556 1067.97,832.999 1057.35,826.42 1046.73,819.814 1036.11,813.151 1025.49,806.445 1014.87,799.694 1004.26,792.879 993.639,786.019 983.021,779.125 
  972.402,772.204 961.784,765.244 951.166,758.232 940.548,751.176 929.93,744.07 919.312,736.906 908.694,729.71 898.076,722.479 887.458,715.186 876.84,707.858 
  866.221,700.468 855.603,693.048 844.985,685.548 834.367,678.021 823.749,670.445 813.131,662.824 802.513,655.135 791.895,647.406 781.277,639.622 770.659,631.787 
  760.04,623.9 749.422,615.955 738.804,607.954 728.186,599.922 717.568,591.831 706.95,583.682 696.332,575.489 685.714,567.213 675.096,558.895 664.477,550.505 
  653.859,542.064 643.241,533.559 632.623,525 622.005,516.393 611.387,507.717 600.769,498.987 590.151,490.192 579.533,481.319 568.915,472.393 558.296,463.403 
  547.678,454.354 537.06,445.23 526.442,436.039 515.824,426.775 505.206,417.451 494.588,408.058 483.97,398.594 473.352,389.06 462.734,379.453 452.115,369.778 
  441.497,360.026 430.879,350.2 420.261,340.29 409.643,330.315 399.025,320.256 388.407,310.114 377.789,299.895 367.171,289.591 356.552,279.203 345.934,268.722 
  335.316,258.171 324.698,247.521 314.08,236.784 303.462,225.971 292.844,215.06 282.226,204.058 271.608,192.967 260.99,181.792 250.371,170.855 239.753,158.579 
  
  " fill="#ff0000" fill-rule="evenodd" fill-opacity="0.5"/>
<polyline clip-path="url(#clip6002)" style="stroke:#ff0000; stroke-width:8; stroke-opacity:1; fill:none" points="
  239.753,158.579 250.371,170.855 260.99,183.009 271.608,195.045 282.226,206.961 292.844,218.762 303.462,230.449 314.08,242.023 324.698,253.49 335.316,264.853 
  345.934,276.104 356.552,287.258 367.171,298.303 377.789,309.251 388.407,320.102 399.025,330.857 409.643,341.516 420.261,352.073 430.879,362.546 441.497,372.923 
  452.115,383.218 462.734,393.423 473.352,403.542 483.97,413.576 494.588,423.525 505.206,433.384 515.824,443.172 526.442,452.879 537.06,462.507 547.678,472.056 
  558.296,481.524 568.915,490.926 579.533,500.25 590.151,509.504 600.769,518.68 611.387,527.783 622.005,536.822 632.623,545.787 643.241,554.681 653.859,563.518 
  664.477,572.28 675.096,580.983 685.714,589.606 696.332,598.171 706.95,606.667 717.568,615.107 728.186,623.486 738.804,631.794 749.422,640.047 760.04,648.246 
  770.659,656.376 781.277,664.443 791.895,672.455 802.513,680.408 813.131,688.305 823.749,696.136 834.367,703.919 844.985,711.642 855.603,719.318 866.221,726.927 
  876.84,734.492 887.458,741.998 898.076,749.461 908.694,756.866 919.312,764.22 929.93,771.536 940.548,778.796 951.166,785.997 961.784,793.144 972.402,800.233 
  983.021,807.281 993.639,814.288 1004.26,821.241 1014.87,828.158 1025.49,835.019 1036.11,841.828 1046.73,848.587 1057.35,855.292 1067.97,861.961 1078.58,868.595 
  1089.2,875.169 1099.82,881.709 1110.44,888.203 1121.06,894.642 1131.67,901.045 1142.29,907.413 1152.91,913.742 1163.53,920.021 1174.15,926.247 1184.76,932.444 
  1195.38,938.593 1206,944.695 1216.62,950.765 1227.24,956.801 1237.86,962.783 1248.47,968.715 1259.09,974.62 1269.71,980.477 1280.33,986.297 1290.95,992.069 
  1301.56,997.807 1312.18,1003.51 1322.8,1009.18 1333.42,1014.81 1344.04,1020.38 1354.65,1025.93 1365.27,1031.44 1375.89,1036.9 1386.51,1042.34 1397.13,1047.74 
  1407.74,1053.09 1418.36,1058.42 1428.98,1063.71 1439.6,1068.95 1450.22,1074.15 1460.84,1079.33 1471.45,1084.48 1482.07,1089.58 1492.69,1094.65 1503.31,1099.67 
  1513.93,1104.67 1524.54,1109.62 1535.16,1114.55 1545.78,1119.45 1556.4,1124.31 1567.02,1129.12 1577.63,1133.9 1588.25,1138.65 1598.87,1143.36 1609.49,1148.04 
  1620.11,1152.68 1630.72,1157.3 1641.34,1161.88 1651.96,1166.43 1662.58,1170.94 1673.2,1175.41 1683.82,1179.87 1694.43,1184.28 1705.05,1188.65 1715.67,1192.99 
  1726.29,1197.29 1736.91,1201.57 1747.52,1205.8 1758.14,1210 1768.76,1214.17 1779.38,1218.32 1790,1222.42 1800.61,1226.49 1811.23,1230.52 1821.85,1234.53 
  1832.47,1238.49 1843.09,1242.41 1853.71,1246.31 1864.32,1250.18 1874.94,1254.01 1885.56,1257.82 1896.18,1261.6 1906.8,1265.32 1917.41,1269.03 1928.03,1272.7 
  1938.65,1276.32 1949.27,1279.92 1959.89,1283.49 1970.5,1287 1981.12,1290.48 1991.74,1293.93 2002.36,1297.35 2012.98,1300.73 2023.59,1304.07 2034.21,1307.37 
  2044.83,1310.64 2055.45,1313.87 2066.07,1317.06 2076.69,1320.24 2087.3,1323.37 2097.92,1326.45 2108.54,1329.5 2119.16,1332.51 2129.78,1335.48 2140.39,1338.42 
  2151.01,1341.3 2161.63,1344.15 2172.25,1346.95 2182.87,1349.71 2193.48,1352.43 2204.1,1355.1 2214.72,1357.72 2225.34,1360.28 2235.96,1362.8 2246.57,1365.27 
  2257.19,1367.68 2267.81,1370.04 2278.43,1372.33 2289.05,1374.55 2299.67,1376.72 2310.28,1378.8 2320.9,1380.79 2331.52,1382.68 2342.14,1384.43 2352.76,1386.17 
  
  "/>
</svg>
